<svg height="478pt" viewBox="-6 0 478 478.24" width="478pt" xmlns="http://www.w3.org/2000/svg"><path d="m408.964844 241.441406 10.636718-60.242187c2.300782-13.054688 14.746094-21.777344 27.800782-19.480469 13.058594 2.296875 21.777344 14.746094 19.480468 27.800781l-30.558593 173.28125-38.480469 33.839844-2.71875 15.757813-94.5625-16.636719 11.039062-62.640625 12.160157-14.480469 58.800781-70.082031c5.5-6.59375 14.105469-9.738282 22.5625-8.238282 1.320312.203126 2.613281.578126 3.839844 1.121094zm0 0" fill="#ffc477"/><path d="m410.882812 415.199219-11.121093 63.039062-126.078125-22.238281 11.121094-63.039062 15.757812 2.800781 94.5625 16.636719zm0 0" fill="#1e81ce"/><path d="m182.5625 392.960938 11.121094 63.039062-126.082032 22.238281-11.117187-63.039062 15.757813-2.800781 94.5625-16.636719zm0 0" fill="#1e81ce"/><path d="m58.402344 241.441406c1.226562-.542968 2.515625-.917968 3.839844-1.121094 8.453124-1.5 17.0625 1.644532 22.5625 8.238282l58.796874 70.082031 12.160157 14.480469 11.042969 62.640625-94.5625 16.636719-2.71875-15.757813-38.480469-33.839844-30.558594-173.28125c-2.296875-13.054687 6.421875-25.503906 19.480469-27.800781 13.054687-2.296875 25.5 6.425781 27.796875 19.480469zm0 0" fill="#ffc477"/><path d="m158.929688 397.144531-10.671876-60.527343-69.597656-82.921876c-3.664062-4.40625-9.417968-6.5-15.058594-5.472656-.675781.105469-1.339843.277344-1.980468.511719-.257813.113281-.523438.21875-.800782.304687-1.757812.605469-3.386718 1.535157-4.800781 2.738282-6.695312 5.710937-7.542969 15.746094-1.90625 22.503906l58.785157 70.046875-12.253907 10.28125-58.769531-70.058594c-11.304688-13.554687-9.542969-33.691406 3.945312-45.078125 2.867188-2.414062 6.152344-4.28125 9.695313-5.511718 1.710937-.695313 3.496094-1.191407 5.320313-1.488282 11.265624-1.96875 22.726562 2.195313 30.101562 10.933594l70.96875 84.59375c.898438 1.074219 1.5 2.363281 1.746094 3.742188l11.039062 62.632812zm0 0" fill="#ffb655"/><path d="m308.433594 397.144531-15.757813-2.785156 11.039063-62.632813c.246094-1.371093.847656-2.65625 1.746094-3.726562l70.972656-84.574219c7.363281-8.746093 18.824218-12.910156 30.082031-10.9375 1.828125.292969 3.617187.792969 5.335937 1.488281 3.503907 1.214844 6.757813 3.058594 9.601563 5.4375 13.535156 11.382813 15.324219 31.570313 4 45.152344l-58.792969 70.058594-12.175781-10.296875 58.78125-70.054687c5.660156-6.792969 4.769531-16.875-1.992187-22.570313-1.394532-1.171875-2.992188-2.074219-4.71875-2.664063-.269532-.085937-.535157-.191406-.800782-.304687-.648437-.234375-1.316406-.40625-2-.511719-5.632812-1.019531-11.378906 1.070313-15.039062 5.472656l-69.601563 82.921876zm0 0" fill="#ffb655"/><path d="m321.683594 120 16 24v40l-24 24v16l-32 8-8 24h-24l-16-16v-176l16-16h24l8 24h24l16 16zm0 0" fill="#ed539d"/><path d="m185.683594 232-32-8v-16l-24-24v-40l16-24v-32l16-16h24l8-24h24l16 16v176l-16 16h-24zm0 0" fill="#ea348b"/><path d="m273.683594 96h-16v-8c0-2.121094.84375-4.15625 2.34375-5.65625l10.34375-10.34375c3.125-3.125 8.1875-3.125 11.3125 0 3.121094 3.125 3.121094 8.1875 0 11.3125l-8 8zm0 0" fill="#c61469"/><path d="m313.683594 144h-16v-8c0-2.121094.84375-4.15625 2.34375-5.65625l10.34375-10.34375c3.125-3.125 8.1875-3.125 11.3125 0 3.121094 3.125 3.121094 8.1875 0 11.3125l-8 8zm0 0" fill="#c61469"/><path d="m276.027344 157.65625-16-16c-1.5-1.5-2.34375-3.535156-2.34375-5.65625v-24h16v20.6875l13.65625 13.65625zm0 0" fill="#c61469"/><path d="m270.371094 232-10.34375-10.34375c-1.5-1.5-2.34375-3.535156-2.34375-5.65625v-8h16v4.6875l8 8c3.121094 3.125 3.121094 8.1875 0 11.3125-3.125 3.125-8.1875 3.125-11.3125 0zm0 0" fill="#c61469"/><path d="m313.683594 200c-4.417969 0-8-3.582031-8-8v-16h16v16c0 4.417969-3.582032 8-8 8zm0 0" fill="#c61469"/><path d="m289.683594 200h-16v-12.6875l-5.65625-5.65625 11.3125-11.3125 8 8c1.5 1.5 2.34375 3.535156 2.34375 5.65625zm0 0" fill="#c61469"/><path d="m209.683594 96h-16v-4.6875l-8-8c-3.125-3.125-3.125-8.1875 0-11.3125s8.1875-3.125 11.3125 0l10.34375 10.34375c1.5 1.5 2.34375 3.535156 2.34375 5.65625zm0 0" fill="#a71159"/><path d="m169.683594 144h-16v-4.6875l-8-8c-3.125-3.125-3.125-8.1875 0-11.3125s8.1875-3.125 11.3125 0l10.34375 10.34375c1.5 1.5 2.34375 3.535156 2.34375 5.65625zm0 0" fill="#a71159"/><path d="m191.339844 157.65625-11.3125-11.3125 13.65625-13.65625v-20.6875h16v24c0 2.121094-.84375 4.15625-2.34375 5.65625zm0 0" fill="#a71159"/><path d="m185.683594 232c-3.125-3.125-3.125-8.1875 0-11.3125l8-8v-4.6875h16v8c0 2.121094-.84375 4.15625-2.34375 5.65625l-10.34375 10.34375c-3.125 3.125-8.1875 3.125-11.3125 0zm0 0" fill="#a71159"/><path d="m153.683594 200c-4.417969 0-8-3.582031-8-8v-16h16v16c0 4.417969-3.582032 8-8 8zm0 0" fill="#a71159"/><path d="m193.683594 200h-16v-16c0-2.121094.84375-4.15625 2.34375-5.65625l8-8 11.3125 11.3125-5.65625 5.65625zm0 0" fill="#a71159"/><g fill="#ee8700"><path d="m225.683594 0h16v16h-16zm0 0"/><path d="m186.609375 7.25 15.453125-4.140625 4.144531 15.457031-15.457031 4.140625zm0 0"/><path d="m150.753906 24.363281 13.855469-8 8 13.855469-13.855469 8zm0 0"/><path d="m120.542969 50.175781 11.3125-11.316406 11.3125 11.316406-11.3125 11.3125zm0 0"/><path d="m98.042969 82.929688 8-13.855469 13.855469 8-8 13.855469zm0 0"/><path d="m84.792969 120.386719 4.140625-15.453125 15.453125 4.140625-4.140625 15.453125zm0 0"/><path d="m81.683594 144h16v16h-16zm0 0"/><path d="m84.789062 183.613281 15.457032-4.144531 4.140625 15.457031-15.457031 4.140625zm0 0"/><path d="m98.042969 221.070312 13.855469-8 8 13.855469-13.859376 8zm0 0"/><path d="m120.542969 253.824219 11.3125-11.3125 11.316406 11.3125-11.316406 11.3125zm0 0"/><path d="m150.746094 279.636719 8-13.855469 13.855468 8-7.996093 13.855469zm0 0"/><path d="m186.617188 296.753906 4.140624-15.457031 15.453126 4.140625-4.140626 15.457031zm0 0"/><path d="m225.683594 288h16v16h-16zm0 0"/><path d="m261.160156 285.4375 15.453125-4.140625 4.140625 15.457031-15.453125 4.140625zm0 0"/><path d="m294.753906 273.785156 13.855469-8 8 13.855469-13.855469 8zm0 0"/><path d="m324.191406 253.824219 11.3125-11.316407 11.316406 11.316407-11.316406 11.3125zm0 0"/><path d="m347.464844 226.929688 8-13.855469 13.855468 8-8 13.855469zm0 0"/><path d="m362.980469 194.925781 4.140625-15.453125 15.457031 4.140625-4.140625 15.457031zm0 0"/><path d="m369.683594 144h16v16h-16zm0 0"/><path d="m362.976562 109.070312 15.457032-4.140624 4.140625 15.453124-15.457031 4.140626zm0 0"/><path d="m347.464844 77.070312 13.855468-8 8 13.859376-13.859374 7.996093zm0 0"/><path d="m324.191406 50.171875 11.3125-11.3125 11.3125 11.3125-11.3125 11.316406zm0 0"/><path d="m294.757812 30.21875 7.996094-13.855469 13.859375 7.996094-8 13.859375zm0 0"/><path d="m261.15625 18.5625 4.140625-15.453125 15.457031 4.140625-4.140625 15.453125zm0 0"/></g></svg>