<svg height="511pt" viewBox="0 1 511 511.99838" width="511pt" xmlns="http://www.w3.org/2000/svg"><path d="m.5 114.335938 114.21875-114.214844 397.660156 397.660156-114.21875 114.21875zm0 0" fill="#99f9ff"/><path d="m113.015625 129.953125c-4.625 0-8.972656-1.800781-12.246094-5.074219-6.75-6.75-6.753906-17.738281-.003906-24.492187 3.277344-3.273438 7.625-5.074219 12.25-5.074219s8.976563 1.800781 12.246094 5.070312c6.757812 6.757813 6.753906 17.746094.003906 24.496094-3.277344 3.273438-7.625 5.074219-12.25 5.074219zm0 0" fill="#fff"/><g fill="#7ed6f4"><path d="m315.613281 429.453125 49.003907-49.007813 21.207031 21.207032-49.007813 49.003906zm0 0"/><path d="m273.332031 387.171875 49.003907-49.007813 21.207031 21.207032-49.003907 49.003906zm0 0"/><path d="m104.207031 218.046875 49.007813-49.007813 21.207031 21.207032-49.007813 49.003906zm0 0"/></g><path d="m59.738281 346.941406-45.484375 45.484375c-8.761718 8.761719-13.589844 20.410157-13.589844 32.800781 0 12.390626 4.828126 24.039063 13.589844 32.800782l40.167969 40.167968c8.757813 8.761719 20.410156 13.585938 32.796875 13.585938 12.390625 0 24.039062-4.824219 32.800781-13.585938l45.488281-45.484374zm0 0" fill="#d11372"/><path d="m34.335938 478.109375 20.085937 20.085937c8.757813 8.761719 20.410156 13.585938 32.796875 13.585938 12.390625 0 24.039062-4.824219 32.800781-13.585938l45.488281-45.484374-52.886718-52.886719zm0 0" fill="#b20042"/><path d="m339.65625 67.019531-33.824219 33.828125 105.769531 105.769532 33.824219-33.828126 67.019531-172.789062zm0 0" fill="#f3eee9"/><path d="m358.714844 153.730469 52.886718 52.886719 33.824219-33.828126 67.019531-172.789062zm0 0" fill="#e9dfda"/><path d="m38.527344 368.148438 301.125-301.125 105.769531 105.765624-301.125 301.125zm0 0" fill="#ffe23a"/><path d="m91.410156 421.03125 301.125-301.125 52.886719 52.882812-301.125 301.125zm0 0" fill="#ffd844"/><path d="m80.804688 410.433594 301.125-301.128906 21.207031 21.207031-301.125 301.125zm0 0" fill="#1c78bd"/><path d="m91.40625 421.035156 301.125-301.125 10.605469 10.601563-301.125 301.125zm0 0" fill="#145381"/><path d="m512.445312 0-53.707031 20.832031 32.875 32.875zm0 0" fill="#1c78bd"/><path d="m512.445312 0-37.269531 37.269531 16.4375 16.4375zm0 0" fill="#145381"/></svg>