<svg id="icons" enable-background="new 0 0 64 64" height="512" viewBox="0 0 64 64" width="512" xmlns="http://www.w3.org/2000/svg"><path d="m47 48h-2-26-2c-1.1 0-2 .9-2 2v11c0 1.1.9 2 2 2h30c1.1 0 2-.9 2-2v-11c0-1.1-.9-2-2-2z" fill="#656d78"/><path d="m34 34.88v10.12h-4v-10.11-.01c.65.08 1.32.12 2 .12s1.35-.04 2-.12z" fill="#f6bb42"/><path d="m45 47v1h-26v-1c0-1.11.89-2 2-2h9 4 9c1.11 0 2 .89 2 2z" fill="#ffce54"/><path d="m41 54v3c-.55 0-1 .45-1 1h-16c0-.55-.45-1-1-1v-3c.55 0 1-.45 1-1h16c0 .55.45 1 1 1z" fill="#ffce54"/><path d="m15.47 22.01c.261 1.04.601 2.05 1.04 3h-1.51c-6.08 0-10.99-4.91-11-11v-.01-8h11v3h-8v5 .01c.01 4.431 3.58 8 8 8z" fill="#f6bb42"/><path d="m60 6v8 .01c-.01 6.09-4.92 11-11 11h-1.51c.439-.95.779-1.96 1.04-3h.47c4.42 0 7.99-3.569 8-8v-.01-5h-8v-3z" fill="#f6bb42"/><path d="m49 9v9c0 1.38-.16 2.72-.47 4.01-.261 1.04-.601 2.05-1.04 3-2.41 5.31-7.47 9.17-13.49 9.87-.65.08-1.32.12-2 .12s-1.35-.04-2-.12c-6.02-.7-11.08-4.56-13.49-9.87-.439-.95-.779-1.96-1.04-3-.31-1.29-.47-2.63-.47-4.01v-9-3-5h34v5zm-10 9.01v-3.01c0-3.87-3.13-7-7-7s-7 3.13-7 7v3.01c0 3.86 3.13 7 7 7s7-3.14 7-7z" fill="#ffce54"/><path d="m39 18.01c0 3.86-3.13 7-7 7s-7-3.14-7-7v-3.01c0 3.87 3.13 7 7 7s7-3.13 7-7z" fill="#edab37"/><path d="m32 8c-3.87 0-7 3.13-7 7s3.13 7 7 7 7-3.13 7-7-3.13-7-7-7z" fill="#f6bb42"/><path d="m35.15 14.29-1.57 1.54.37 2.17-1.95-1.02-1.95 1.02.37-2.17-1.57-1.54 2.17-.32.98-1.97.98 1.97z" fill="#ffce54"/><path d="m47 64h-30.004c-1.654 0-3-1.346-3-3v-11.001c0-1.654 1.346-3 3-3h30.004c1.654 0 3 1.346 3 3v11.001c0 1.654-1.346 3-3 3zm-30.004-15.001c-.552 0-1 .448-1 1v11.001c0 .552.448 1 1 1h30.004c.552 0 1-.448 1-1v-11.001c0-.552-.448-1-1-1z"/><path d="m18.996 47.999c-.553 0-1-.447-1-1 0-1.654 1.346-3 3-3 .553 0 1 .447 1 1s-.447 1-1 1c-.552 0-1 .448-1 1 0 .553-.447 1-1 1z"/><path d="m45 47.999c-.553 0-1-.447-1-1 0-.552-.448-1-1-1-.553 0-1-.447-1-1s.447-1 1-1c1.654 0 3 1.346 3 3 0 .553-.447 1-1 1z"/><path d="m18.996 48.999c-.553 0-1-.447-1-1v-1c0-.553.447-1 1-1s1 .447 1 1v1c0 .553-.447 1-1 1z"/><path d="m45 48.999c-.553 0-1-.447-1-1v-1c0-.553.447-1 1-1s1 .447 1 1v1c0 .553-.447 1-1 1z"/><path d="m43 45.999h-22.004c-.553 0-1-.447-1-1s.447-1 1-1h22.004c.553 0 1 .447 1 1s-.447 1-1 1z"/><path d="m30 45.999c-.553 0-1-.447-1-1v-10.113c0-.553.447-1 1-1s1 .447 1 1v10.113c0 .553-.447 1-1 1z"/><path d="m34 45.999c-.553 0-1-.447-1-1v-10.123c0-.553.447-1 1-1s1 .447 1 1v10.123c0 .553-.447 1-1 1z"/><path d="m31.998 36.002c-9.925 0-18-8.075-18-18 0-.553.447-1 1-1s1 .447 1 1c0 8.822 7.178 16 16 16s16-7.178 16-16c0-.553.447-1 1-1s1 .447 1 1c0 9.925-8.075 18-18 18z"/><path d="m14.998 19.002c-.553 0-1-.447-1-1v-17.002c0-.553.447-1 1-1s1 .447 1 1v17.002c0 .553-.447 1-1 1z"/><path d="m49 19.002c-.553 0-1-.447-1-1v-17.002c0-.553.447-1 1-1s1 .447 1 1v17.002c0 .553-.447 1-1 1z"/><path d="m49.001 2h-34.002c-.553 0-1-.447-1-1s.447-1 1-1h34.002c.553 0 1 .447 1 1s-.447 1-1 1z"/><path d="m48.998 23.006c-.553 0-1-.447-1-1s.447-1 1-1c3.861 0 7.002-3.141 7.002-7.001 0-.553.447-1 1-1s1 .447 1 1c0 4.963-4.038 9.001-9.002 9.001z"/><path d="m48.998 26.006c-.553 0-1-.447-1-1s.447-1 1-1c5.515 0 10.002-4.486 10.002-10.001 0-.553.447-1 1-1s1 .447 1 1c0 6.617-5.384 12.001-12.002 12.001z"/><path d="m56.998 15.007c-.553 0-1-.447-1-1v-5.002c0-.553.447-1 1-1s1 .447 1 1v5.002c0 .553-.447 1-1 1z"/><path d="m59.998 15.007c-.553 0-1-.447-1-1v-8.002c0-.553.447-1 1-1s1 .447 1 1v8.002c0 .553-.447 1-1 1z"/><path d="m59.998 7.005h-10.998c-.553 0-1-.447-1-1s.447-1 1-1h10.998c.553 0 1 .447 1 1s-.447 1-1 1z"/><path d="m56.998 10.005h-7.998c-.553 0-1-.447-1-1s.447-1 1-1h7.998c.553 0 1 .447 1 1s-.447 1-1 1z"/><path d="m48.998 26.006h-1.504c-.553 0-1-.447-1-1s.447-1 1-1h1.504c.553 0 1 .447 1 1s-.447 1-1 1z"/><path d="m48.998 23.006h-.473c-.553 0-1-.447-1-1s.447-1 1-1h.473c.553 0 1 .447 1 1s-.447 1-1 1z"/><path d="m15.002 23.006c-4.964 0-9.002-4.038-9.002-9.001 0-.553.447-1 1-1s1 .447 1 1c0 3.86 3.141 7.001 7.002 7.001.553 0 1 .447 1 1s-.447 1-1 1z"/><path d="m15.002 26.006c-6.618 0-12.002-5.384-12.002-12.001 0-.553.447-1 1-1s1 .447 1 1c0 5.515 4.487 10.001 10.002 10.001.553 0 1 .447 1 1s-.447 1-1 1z"/><path d="m7.002 15.007c-.553 0-1-.447-1-1v-5.002c0-.553.447-1 1-1s1 .447 1 1v5.002c0 .553-.447 1-1 1z"/><path d="m4.002 15.007c-.553 0-1-.447-1-1v-8.002c0-.553.447-1 1-1s1 .447 1 1v8.002c0 .553-.447 1-1 1z"/><path d="m15 7.005h-10.998c-.553 0-1-.447-1-1s.447-1 1-1h10.998c.553 0 1 .447 1 1s-.447 1-1 1z"/><path d="m15 10.005h-7.998c-.553 0-1-.447-1-1s.447-1 1-1h7.998c.553 0 1 .447 1 1s-.447 1-1 1z"/><path d="m16.506 26.006h-1.504c-.553 0-1-.447-1-1s.447-1 1-1h1.504c.553 0 1 .447 1 1s-.447 1-1 1z"/><path d="m15.475 23.006h-.473c-.553 0-1-.447-1-1s.447-1 1-1h.473c.553 0 1 .447 1 1s-.448 1-1 1z"/><path d="m39.996 58.999h-15.996c-.553 0-1-.447-1-1-.553 0-1-.447-1-1v-2.999c0-.553.447-1 1-1 0-.553.447-1 1-1h15.996c.553 0 1 .447 1 1 .553 0 1 .447 1 1v2.999c0 .553-.447 1-1 1 0 .553-.447 1-1 1zm-15.265-2h14.533c.176-.303.429-.556.731-.731v-1.536c-.303-.176-.556-.429-.731-.731h-14.533c-.176.303-.429.556-.731.731v1.536c.303.175.556.428.731.731z"/><path d="m32 22.999c-4.411 0-8-3.589-8-8s3.589-8 8-8 8 3.589 8 8-3.589 8-8 8zm0-14c-3.309 0-6 2.691-6 6s2.691 6 6 6 6-2.691 6-6-2.691-6-6-6z"/><path d="m32 26.006c-4.411 0-8-3.589-8-8 0-.553.447-1 1-1s1 .447 1 1c0 3.309 2.691 6 6 6s6-2.691 6-6c0-.553.447-1 1-1s1 .447 1 1c0 4.411-3.589 8-8 8z"/><path d="m33.951 18.999c-.159 0-.318-.038-.464-.114l-1.487-.779-1.487.778c-.335.177-.743.147-1.053-.077-.308-.225-.461-.604-.396-.978l.284-1.651-1.199-1.168c-.273-.266-.371-.663-.254-1.025.117-.361.43-.626.806-.681l1.658-.243.745-1.506c.338-.682 1.455-.682 1.793 0l.745 1.506 1.658.243c.376.055.688.319.806.681.117.362.02.76-.254 1.025l-1.199 1.168.251 1.458c.044.112.067.234.067.362 0 .553-.447 1-1 1-.005.001-.012.001-.02.001zm-1.951-3.021c.159 0 .318.038.464.114l.159.083-.03-.177c-.056-.324.052-.655.288-.886l.126-.123-.175-.025c-.324-.048-.605-.252-.751-.546l-.081-.164-.081.164c-.146.294-.427.498-.751.546l-.175.025.126.123c.236.23.344.562.288.886l-.03.177.159-.083c.146-.076.305-.114.464-.114z"/><path d="m25 19.006c-.553 0-1-.447-1-1v-3.007c0-.553.447-1 1-1s1 .447 1 1v3.007c0 .553-.447 1-1 1z"/><path d="m39 19.006c-.553 0-1-.447-1-1v-3.007c0-.553.447-1 1-1s1 .447 1 1v3.007c0 .553-.447 1-1 1z"/></svg>