<?xml version="1.0" encoding="iso-8859-1"?>
<!-- Generator: Adobe Illustrator 19.0.0, SVG Export Plug-In . SVG Version: 6.00 Build 0)  -->
<svg version="1.1" id="Capa_1" xmlns="http://www.w3.org/2000/svg" xmlns:xlink="http://www.w3.org/1999/xlink" x="0px" y="0px"
	 viewBox="0 0 512 512" style="enable-background:new 0 0 512 512;" xml:space="preserve">
<path style="fill:#EDEBED;" d="M452,96.012c-4.422,0-8-3.582-8-8v-16h16v16C460,92.43,456.422,96.012,452,96.012z"/>
<path style="fill:#5AB478;" d="M458.977,258.879l-28.542-34.245C425.876,219.163,419.122,216,412,216H276
	c-7.122,0-13.875,3.163-18.435,8.634l-28.541,34.245c-2.828,3.395-2.367,8.438,1.023,11.266c1.5,1.246,3.312,1.855,5.117,1.855
	c2.297,0,4.57-0.98,6.156-2.879l20.489-24.583c1.804-2.165,4.612-3.22,7.395-2.78L344,253.589l74.796-11.832
	c2.783-0.44,5.591,0.616,7.395,2.78l20.489,24.583c1.586,1.898,3.859,2.879,6.156,2.879c1.805,0,3.617-0.609,5.117-1.855
	C461.344,267.316,461.805,262.273,458.977,258.879z"/>
<g>
	<path style="fill:#82C378;" d="M499.999,272c2.164,0,4.32-0.875,5.898-2.594c2.984-3.258,2.766-8.32-0.492-11.305
		c-12.953-11.871-32.664-13.211-46.844-3.195c-1,0.703-2.438,1.094-4.031,1.094H436c-4.422,0-8,3.582-8,8s3.578,8,8,8h18.531
		c4.938,0,9.523-1.391,13.25-4.023C471.469,265.375,475.695,264,480,264c6.742,0,11.656,3.207,14.594,5.898
		C496.132,271.304,498.07,272,499.999,272z"/>
	<path style="fill:#82C378;" d="M188.001,272c-2.164,0-4.32-0.875-5.898-2.594c-2.984-3.258-2.766-8.32,0.492-11.305
		c12.953-11.871,32.664-13.211,46.844-3.195c1,0.703,2.438,1.094,4.031,1.094h18.531c4.422,0,8,3.582,8,8s-3.578,8-8,8H233.47
		c-4.938,0-9.523-1.391-13.25-4.023c-3.688-2.602-7.914-3.977-12.219-3.977c-6.742,0-11.656,3.207-14.594,5.898
		C191.868,271.304,189.931,272,188.001,272z"/>
	<path style="fill:#82C378;" d="M175.272,96h48c7.122,0,13.875,3.163,18.435,8.634l28.542,34.245
		c2.828,3.395,2.367,8.437-1.023,11.266c-1.5,1.246-3.312,1.855-5.117,1.855c-2.297,0-4.57-0.98-6.156-2.879l-20.275-24.327
		c-1.917-2.3-4.958-3.337-7.881-2.688l-54.523,12.116V96H175.272z"/>
</g>
<path style="fill:#A0DC91;" d="M311.271,152c2.164,0,4.32-0.875,5.898-2.594c2.984-3.258,2.766-8.32-0.492-11.305
	c-12.953-11.871-32.664-13.211-46.844-3.195c-1,0.703-2.438,1.094-4.031,1.094h-18.531c-4.422,0-8,3.582-8,8s3.578,8,8,8h18.531
	c4.938,0,9.523-1.391,13.25-4.023c3.687-2.602,7.914-3.977,12.219-3.977c6.742,0,11.656,3.207,14.594,5.898
	C307.404,151.305,309.342,152,311.271,152z"/>
<path style="fill:#5AB478;" d="M175.272,96h48c7.122,0,13.875,3.163,18.435,8.634l28.542,34.245
	c2.828,3.395,2.367,8.437-1.023,11.266c-1.5,1.246-3.312,1.855-5.117,1.855c-2.297,0-4.57-0.98-6.156-2.879l-20.275-24.327
	c-1.917-2.3-4.958-3.337-7.881-2.688l-54.523,12.116V96H175.272z"/>
<path style="fill:#82C378;" d="M311.271,152c2.164,0,4.32-0.875,5.898-2.594c2.984-3.258,2.766-8.32-0.492-11.305
	c-12.953-11.871-32.664-13.211-46.844-3.195c-1,0.703-2.438,1.094-4.031,1.094h-18.531c-4.422,0-8,3.582-8,8s3.578,8,8,8h18.531
	c4.938,0,9.523-1.391,13.25-4.023c3.687-2.602,7.914-3.977,12.219-3.977c6.742,0,11.656,3.207,14.594,5.898
	C307.404,151.305,309.342,152,311.271,152z"/>
<path style="fill:#5AB478;" d="M148.001,96h-48c-7.122,0-13.875,3.163-18.435,8.634l-28.542,34.245
	c-2.828,3.395-2.367,8.437,1.023,11.266c1.5,1.246,3.312,1.855,5.117,1.855c2.297,0,4.57-0.98,6.156-2.879l20.275-24.327
	c1.917-2.3,4.958-3.337,7.881-2.688l54.523,12.116V96H148.001z"/>
<path style="fill:#82C378;" d="M444,48.012h-24l-14.627-14.627c-6.001-6.001-14.141-9.373-22.627-9.373H348L356,40H244v8h-20
	c-46.392,0-84,37.608-84,83.999l0,0c0,46.392,37.608,84,84,84h76c26.51,0,48,21.49,48,48s-21.49,48-48,48
	c-61.856,0-112,50.144-112,112v80h8c13.255,0,24-10.745,24-24v-48c0-44.183,35.817-80,80-80h4c50.81,0,92-41.19,92-92
	s-41.19-92-92-92h-76c-17.673,0-32-14.327-32-32s14.327-32,32-32h111.988l8.012,8.012h40v-16c0-8.837,7.164-16,16-16h48
	c4.418,0,8-3.582,8-8v-8C460,55.175,452.837,48.012,444,48.012z"/>
<g>
	<path style="fill:#FF646F;" d="M360.172,48h-5.773c-4.108,0-8.058-1.58-11.033-4.412l-24.053-22.9
		C316.289,17.664,312.274,16,308,16h-19.828c-4.422,0-8-3.582-8-8s3.578-8,8-8h30.055c8.482,0,16.617,3.369,22.616,9.366
		l24.986,24.978c3.125,3.121,3.125,8.187,0,11.312C364.266,47.219,362.219,48,360.172,48z"/>
	<path style="fill:#FF646F;" d="M188.001,512c-4.422,0-8-3.582-8-8v-80c0-66.168,53.828-120,120-120c22.055,0,40-17.945,40-40
		s-17.945-40-40-40h-76c-50.727,0-92-41.27-92-92s41.273-92,92-92h68c4.422,0,8,3.582,8,8s-3.578,8-8,8h-68
		c-41.906,0-76,34.094-76,76s34.094,76,76,76h76c30.875,0,56,25.121,56,56s-25.125,56-56,56c-57.344,0-104,46.652-104,104v80
		C196.001,508.418,192.422,512,188.001,512z"/>
</g>
<path style="fill:#82C378;" d="M12.001,152c-2.164,0-4.32-0.875-5.898-2.594c-2.984-3.258-2.766-8.32,0.492-11.305
	c12.953-11.871,32.664-13.211,46.844-3.195c1,0.703,2.438,1.094,4.031,1.094h18.531c4.422,0,8,3.582,8,8s-3.578,8-8,8H57.47
	c-4.937,0-9.523-1.391-13.25-4.023C40.533,145.375,36.306,144,32.001,144c-6.742,0-11.656,3.207-14.594,5.898
	C15.869,151.305,13.931,152,12.001,152z"/>
<path style="fill:#5AB478;" d="M442.985,136c-1.266,0-2.547-0.301-3.75-0.938c-3.898-2.07-5.383-6.914-3.305-10.816
	c0.664-1.254,0.234-2.316-0.078-2.84c-0.312-0.52-1.047-1.395-2.461-1.395H363.5c-21.992,0-40.164-17.887-40.516-39.875
	c-0.07-4.418,3.453-8.055,7.875-8.125c0.039,0,0.086,0,0.125,0c4.359,0,7.93,3.5,8,7.875c0.211,13.301,11.211,24.125,24.516,24.125
	h69.891c6.688,0,12.734,3.422,16.18,9.152c3.445,5.734,3.625,12.684,0.484,18.59C448.617,134.461,445.852,136,442.985,136z"/>
<path style="fill:#FFFFFF;" d="M388.078,64.012c-4.422,0-8.039-3.582-8.039-8s3.539-8,7.961-8h0.078c4.422,0,8,3.582,8,8
	S392.5,64.012,388.078,64.012z"/>
<path style="fill:#FF8087;" d="M220.714,22.624c-10.801-9.451-25.329-13.68-39.477-11.262C68.413,30.639,12.001,80,12.001,80
	l72.666-15C132.167,89.5,268,64,268,64l0,0L220.714,22.624z"/>
<path style="fill:#FF646F;" d="M11.993,88c-3.687,0-7-2.559-7.812-6.309c-0.93-4.32,1.812-8.578,6.133-9.512l178-38.5
	c4.242-0.918,8.57,1.809,9.508,6.129c0.93,4.32-1.812,8.578-6.133,9.512l-178,38.5C13.126,87.941,12.555,88,11.993,88z"/>
<path style="fill:#5AB478;" d="M12.001,88c-2.227,0-4.437-0.926-6.023-2.73c-2.906-3.328-2.57-8.383,0.758-11.289
	c2.367-2.078,59.414-51.07,173.156-70.504c16.523-2.824,33.336,1.969,46.094,13.129l47.281,41.375
	c3.328,2.906,3.664,7.961,0.758,11.289c-2.922,3.316-7.977,3.652-11.289,0.75l-47.289-41.375
	c-9.117-7.98-21.086-11.418-32.867-9.395C73.251,37.93,17.813,85.543,17.266,86.019C15.751,87.348,13.876,88,12.001,88z"/>
<g>
</g>
<g>
</g>
<g>
</g>
<g>
</g>
<g>
</g>
<g>
</g>
<g>
</g>
<g>
</g>
<g>
</g>
<g>
</g>
<g>
</g>
<g>
</g>
<g>
</g>
<g>
</g>
<g>
</g>
</svg>
