<?xml version="1.0" encoding="iso-8859-1"?>
<!-- Generator: Adobe Illustrator 19.0.0, SVG Export Plug-In . SVG Version: 6.00 Build 0)  -->
<svg version="1.1" id="Capa_1" xmlns="http://www.w3.org/2000/svg" xmlns:xlink="http://www.w3.org/1999/xlink" x="0px" y="0px"
	 viewBox="0 0 512 512" style="enable-background:new 0 0 512 512;" xml:space="preserve">
<path style="fill:#DBD9DC;" d="M469.52,106.761c-4.539,0-8.212-3.677-8.212-8.212V82.124h16.425v16.425
	C477.733,103.083,474.059,106.761,469.52,106.761z"/>
<g>
	<path style="fill:#8CB4EB;" d="M255.999,219.424l59.416,37.135c2.735,1.709,6.282-0.257,6.282-3.482v-33.653H255.999z"/>
	<path style="fill:#8CB4EB;" d="M182.088,205.309l58.689,58.689c2.587,2.587,7.01,0.755,7.01-2.904v-39.361L182.088,205.309z"/>
	<path style="fill:#8CB4EB;" d="M149.238,147.822v78.63c0,3.881,4.888,5.596,7.313,2.565l25.537-31.921L149.238,147.822z"/>
	<path style="fill:#8CB4EB;" d="M122.281,153.684l35.169-5.862l16.425-63.459l-56.036,61.131
		C114.673,148.948,117.66,154.454,122.281,153.684z"/>
</g>
<path style="fill:#5D5360;" d="M451.038,44.182L346.335,24.637v32.849H235.468c-47.624,0-86.23,38.606-86.23,86.23
	c0,47.623,38.606,86.23,86.23,86.23h86.23c22.678,0,41.062,18.384,41.062,41.062s-18.384,41.062-41.062,41.062h-49.274
	c-45.355,0-82.124,36.768-82.124,82.124v82.124h16.425v-73.911c0-31.749,25.738-57.486,57.486-57.486h57.486
	c45.355,0,82.124-36.768,82.124-82.124s-36.768-82.124-82.124-82.124h-82.124c-18.142,0-32.849-14.707-32.849-32.849
	s14.707-32.849,32.849-32.849h114.972l8.213,8.212h41.062v-8.212c0-13.607,11.03-24.637,24.637-24.637h41.062
	c4.536,0,8.212-3.677,8.212-8.212V76.45C477.733,60.681,466.528,47.137,451.038,44.182z"/>
<path style="fill:#A5CDFF;" d="M321.698,180.672h-82.124c-18.142,0-32.849-14.707-32.849-32.849s14.707-32.849,32.849-32.849
	h114.973l-16.425-16.425h-98.548c-27.17,0-49.274,22.104-49.274,49.274s22.104,49.274,49.274,49.274h82.124
	c36.226,0,65.699,29.473,65.699,65.699s-29.473,65.699-65.699,65.699h-41.062c-38.767,0-70.594,30.019-73.613,68.023
	c2.95-28.982,27.428-51.598,57.188-51.598h57.486c45.355,0,82.124-36.768,82.124-82.124
	C403.821,217.439,367.053,180.672,321.698,180.672z"/>
<path style="fill:#8CB4EB;" d="M461.308,114.973h-81.55c-8.71,0-17.063-3.46-23.221-9.62l-15.013-15.016
	c-3.207-3.207-8.407-3.208-11.614-0.001l0,0c-3.206,3.206-3.207,8.405-0.001,11.612l14.998,15.004
	c9.245,9.249,21.786,14.445,34.863,14.445h81.538c4.539,0,8.212-3.677,8.212-8.212S465.847,114.973,461.308,114.973z"/>
<path style="fill:#FFFFFF;" d="M403.902,73.911c-4.539,0-8.252-3.677-8.252-8.212s3.633-8.212,8.172-8.212h0.08
	c4.539,0,8.212,3.677,8.212,8.212S408.441,73.911,403.902,73.911z"/>
<path style="fill:#A5CDFF;" d="M132.814,49.274l32.723,21.815c10.792,7.195,23.473,11.034,36.443,11.034h70.444l-41.062-41.062
	h-98.548V49.274z"/>
<g>
	<path style="fill:#8CB4EB;" d="M220.264,506.798l-11.224-41.155c-1.537-5.633-2.315-11.447-2.315-17.286V418.83
		c0,4.535-3.677,8.212-8.212,8.212c-4.536,0-8.212-3.677-8.212-8.212v29.526c0,5.839-0.778,11.653-2.315,17.286l-11.224,41.155
		c-0.999,3.663,3.081,6.603,6.239,4.497l10.957-7.305c2.758-1.839,6.352-1.839,9.111,0l10.957,7.305
		C217.183,513.401,221.263,510.461,220.264,506.798z"/>
	<path style="fill:#8CB4EB;" d="M272.424,82.124L198.513,8.212H42.478l51.719,32.324c9.136,5.71,19.693,8.738,30.467,8.738h70.041
		c8.115,0,15.943,3.004,21.975,8.433l27.129,24.417H272.424z"/>
</g>
<path style="fill:#4B3F4E;" d="M225.09,21.084C210.009,7.511,190.437,0,170.146,0H42.478c-4.539,0-8.212,3.677-8.212,8.212
	s3.673,8.212,8.212,8.212h127.668c16.234,0,31.894,6.009,43.961,16.87l54.932,49.439c3.371,3.034,8.562,2.761,11.596-0.61l0,0
	c3.034-3.371,2.761-8.563-0.61-11.597L225.09,21.084z"/>
<path style="fill:#6F6571;" d="M451.038,44.182L346.335,24.637v19.504l94.877,17.789c11.652,2.185,20.096,12.319,20.097,24.174
	c0,1.339,0,2.802,0,4.231h8.211c4.536,0,8.212-3.677,8.212-8.212V76.45C477.733,60.681,466.528,47.137,451.038,44.182z"/>
<path style="fill:#8CB4EB;" d="M360.768,30.858c-9.241-9.241-21.775-14.433-34.843-14.433h-61.713c-4.536,0-8.212,3.677-8.212,8.212
	s3.677,8.212,8.212,8.212h22.644c6.534,0,12.801,2.596,17.421,7.216l2.989,2.989c9.241,9.241,21.774,14.432,34.843,14.432h35.375
	c3.658,0,5.49-4.423,2.904-7.01L360.768,30.858z"/>
<g>
</g>
<g>
</g>
<g>
</g>
<g>
</g>
<g>
</g>
<g>
</g>
<g>
</g>
<g>
</g>
<g>
</g>
<g>
</g>
<g>
</g>
<g>
</g>
<g>
</g>
<g>
</g>
<g>
</g>
</svg>
