<?xml version="1.0" encoding="iso-8859-1"?>
<!-- Generator: Adobe Illustrator 19.0.0, SVG Export Plug-In . SVG Version: 6.00 Build 0)  -->
<svg version="1.1" id="Capa_1" xmlns="http://www.w3.org/2000/svg" xmlns:xlink="http://www.w3.org/1999/xlink" x="0px" y="0px"
	 viewBox="0 0 512 512" style="enable-background:new 0 0 512 512;" xml:space="preserve">
<path style="fill:#64DCA0;" d="M80.093,148.278c-2.108,0-4.215-0.804-5.824-2.413c-3.218-3.218-3.218-8.431,0-11.649l17.473-17.473
	c6.13-6.134,14.617-9.653,23.297-9.653h30.956c4.553,0,8.238,3.688,8.238,8.238c0,4.549-3.684,8.238-8.238,8.238h-30.956
	c-4.336,0-8.584,1.758-11.649,4.827l-17.473,17.473C84.309,147.473,82.201,148.278,80.093,148.278z"/>
<path style="fill:#FAEBC8;" d="M327.223,32.951h-90.614c-54.594,0-98.852,44.257-98.852,98.852h49.426V65.901h140.04L327.223,32.951
	L327.223,32.951z"/>
<g>
	<path style="fill:#7DF5AA;" d="M38.905,148.278c-2.228,0-4.449-0.901-6.074-2.671c-3.073-3.355-2.848-8.567,0.507-11.64
		c13.813-12.654,35.155-13.507,49.756-2.164h13.475c4.553,0,8.238,3.688,8.238,8.238s-3.684,8.238-8.238,8.238H80.093
		c-2.059,0-4.046-0.772-5.567-2.164c-3.025-2.771-8.085-6.074-15.027-6.074s-12.003,3.302-15.027,6.074
		C42.887,147.562,40.892,148.278,38.905,148.278z"/>
	<path style="fill:#7DF5AA;" d="M228.371,148.278c-1.987,0-3.982-0.716-5.567-2.164c-3.025-2.771-8.085-6.074-15.027-6.074
		c-6.942,0-12.003,3.302-15.027,6.074c-3.363,3.073-8.567,2.836-11.641-0.507c-3.073-3.355-2.848-8.567,0.507-11.64
		c14.641-13.418,37.681-13.418,52.322,0c3.355,3.073,3.58,8.286,0.507,11.64C232.82,147.377,230.599,148.278,228.371,148.278z"/>
</g>
<path style="fill:#64DCA0;" d="M431.907,280.08c-2.108,0-4.215-0.804-5.824-2.413l-17.473-17.473
	c-3.113-3.113-7.248-4.827-11.649-4.827h-84.219c-4.336,0-8.584,1.758-11.649,4.827l-17.473,17.473
	c-3.218,3.218-8.431,3.218-11.649,0s-3.218-8.431,0-11.649l17.473-17.473c6.13-6.134,14.617-9.653,23.297-9.653h84.219
	c8.801,0,17.079,3.431,23.297,9.653l17.473,17.473c3.218,3.218,3.218,8.431,0,11.649C436.122,279.275,434.014,280.08,431.907,280.08
	z"/>
<path style="fill:#7DF5AA;" d="M302.51,172.99h-82.376c-18.198,0-32.951-14.753-32.951-32.951s14.752-32.951,32.951-32.951H335.46
	V49.426H216.014c-47.77,0-86.495,38.725-86.495,86.495s38.725,86.495,86.495,86.495h86.495c22.748,0,41.188,18.441,41.188,41.188
	s-18.441,41.188-41.188,41.188h-49.426c-45.495,0-82.376,36.881-82.376,82.376v82.376h16.475v-74.139
	c0-31.847,25.817-57.663,57.663-57.663h57.663c45.495,0,82.376-36.881,82.376-82.376C384.885,209.871,348.005,172.99,302.51,172.99z
	"/>
<g>
	<path style="fill:#FAEBC8;" d="M187.482,389.5c-0.198,1.942-0.299,3.912-0.299,5.907
		C187.183,393.413,187.327,391.455,187.482,389.5z"/>
	<path style="fill:#FAEBC8;" d="M302.51,172.99h-82.376c-18.198,0-32.951-14.753-32.951-32.951s14.752-32.951,32.951-32.951H335.46
		V90.614H220.133c-27.253,0-49.426,22.172-49.426,49.426s22.172,49.426,49.426,49.426h82.376c36.338,0,65.901,29.563,65.901,65.901
		s-29.563,65.901-65.901,65.901h-41.188c-38.886,0-70.812,30.111-73.84,68.232c2.959-29.072,27.512-51.757,57.364-51.757h57.663
		c45.495,0,82.376-36.881,82.376-82.376C384.885,209.871,348.005,172.99,302.51,172.99z"/>
	<path style="fill:#FAEBC8;" d="M450.786,98.852c-4.553,0-8.238-3.688-8.238-8.238V74.139h16.475v16.475
		C459.025,95.163,455.34,98.852,450.786,98.852z"/>
</g>
<path style="fill:#A0FFB9;" d="M442.549,49.426h-24.713l-15.062-15.062c-6.179-6.179-14.561-9.651-23.3-9.651h-68.728l16.475,16.475
	v16.475c0,31.847,25.817,57.663,57.663,57.663l0,0V98.852c0-9.099,7.376-16.475,16.475-16.475h49.426
	c4.549,0,8.238-3.688,8.238-8.238v-8.238C459.025,56.802,451.648,49.426,442.549,49.426z"/>
<path style="fill:#7DF5AA;" d="M384.885,65.901V49.426H302.51v24.713l41.188,41.188h41.188V98.852
	c0-9.099,7.376-16.475,16.475-16.475h49.426c4.55,0,8.238-3.688,8.238-8.238v-8.238H384.885z"/>
<path style="fill:#64DCA0;" d="M442.549,107.089h-81.802c-8.737,0-17.116-3.471-23.293-9.649l-15.059-15.062
	c-3.217-3.217-8.433-3.218-11.65-0.001l0,0c-3.216,3.216-3.217,8.431-0.001,11.648l15.044,15.05
	c9.274,9.277,21.853,14.489,34.971,14.489h81.789c4.553,0,8.238-3.688,8.238-8.238C450.786,110.778,447.103,107.089,442.549,107.089
	z"/>
<path style="fill:#FFEDB1;" d="M384.967,65.901c-4.553,0-8.278-3.688-8.278-8.238s3.644-8.238,8.197-8.238h0.08
	c4.553,0,8.238,3.688,8.238,8.238S389.52,65.901,384.967,65.901z"/>
<path style="fill:#F5DCB4;" d="M327.223,49.426c-2.108,0-4.215-0.804-5.824-2.413l-25.71-25.71
	c-3.065-3.069-7.313-4.827-11.649-4.827h-21.334c-5.583,0-11.126,0.623-16.475,1.854c-19.146,4.396-67.237,14.621-100.235,14.621
	c-4.553,0-8.238-3.688-8.238-8.238s3.684-8.238,8.238-8.238c31.318,0,77.952-9.931,96.551-14.203C249.102,0.764,255.883,0,262.704,0
	h21.334c8.68,0,17.167,3.52,23.297,9.653l25.71,25.71c3.218,3.218,3.218,8.431,0,11.649
	C331.438,48.621,329.329,49.426,327.223,49.426z"/>
<g>
	<path style="fill:#7DF5AA;" d="M236.609,280.08c-2.228,0-4.449-0.901-6.074-2.671c-3.073-3.355-2.848-8.567,0.507-11.641
		c13.804-12.65,35.155-13.511,49.756-2.164h13.475c4.553,0,8.238,3.688,8.238,8.238c0,4.549-3.684,8.238-8.238,8.238h-16.475
		c-2.059,0-4.046-0.772-5.567-2.164c-3.025-2.771-8.085-6.074-15.027-6.074s-12.003,3.302-15.027,6.074
		C240.591,279.364,238.596,280.08,236.609,280.08z"/>
	<path style="fill:#7DF5AA;" d="M473.095,280.08c-1.987,0-3.982-0.716-5.567-2.164c-3.025-2.771-8.085-6.074-15.027-6.074
		c-6.942,0-12.003,3.302-15.027,6.074c-1.52,1.392-3.507,2.164-5.567,2.164h-16.475c-4.553,0-8.238-3.688-8.238-8.238
		c0-4.549,3.684-8.238,8.238-8.238h13.475c14.609-11.351,35.943-10.494,49.756,2.164c3.355,3.073,3.58,8.286,0.507,11.641
		C477.543,279.179,475.323,280.08,473.095,280.08z"/>
</g>
<path style="fill:#64DCA0;" d="M187.183,450.843v-38.961c0-4.549-3.688-8.238-8.238-8.238l0,0c-4.55,0-8.238,3.688-8.238,8.238
	v38.961c0,4.192-0.8,8.345-2.357,12.238l-3.433,8.583c-1.571,3.928-1.571,8.31,0,12.238l10.204,25.509
	c1.381,3.452,6.268,3.452,7.648,0l10.204-25.509c1.571-3.928,1.571-8.31,0-12.238l-3.433-8.583
	C187.983,459.189,187.183,455.035,187.183,450.843z"/>
<g>
</g>
<g>
</g>
<g>
</g>
<g>
</g>
<g>
</g>
<g>
</g>
<g>
</g>
<g>
</g>
<g>
</g>
<g>
</g>
<g>
</g>
<g>
</g>
<g>
</g>
<g>
</g>
<g>
</g>
</svg>
