<?xml version="1.0" encoding="iso-8859-1"?>
<!-- Generator: Adobe Illustrator 19.0.0, SVG Export Plug-In . SVG Version: 6.00 Build 0)  -->
<svg version="1.1" id="Capa_1" xmlns="http://www.w3.org/2000/svg" xmlns:xlink="http://www.w3.org/1999/xlink" x="0px" y="0px"
	 viewBox="0 0 512 512" style="enable-background:new 0 0 512 512;" xml:space="preserve">
<path style="fill:#FFC350;" d="M317.936,0c-4.561,0-8.258,3.697-8.258,8.258c0,18.159-11.799,33.408-28.089,38.936
	c2.064-4.309,3.315-9.074,3.315-14.162c0-4.56-3.694-8.258-8.258-8.258s-8.258,3.698-8.258,8.258
	c0,9.109-7.411,16.516-16.516,16.516c-4.565,0-8.258,3.698-8.258,8.258s0,16.516,0,16.516h82.581V8.258
	C326.195,3.697,322.497,0,317.936,0z"/>
<path style="fill:#FFD164;" d="M317.936,66.065h-9.675c-4.381,0-8.581-1.74-11.679-4.838l-6.841-6.841
	c-3.098-3.097-7.298-4.837-11.679-4.837h-34.449c-91.216,0-165.161,73.945-165.161,165.161h198.194V90.839
	c0-4.561,3.697-8.258,8.258-8.258h33.032c4.561,0,8.258-3.698,8.258-8.258C326.195,69.762,322.497,66.065,317.936,66.065z"/>
<path style="fill:#FFC350;" d="M188.84,90.839c-29.474,0-56.618,9.764-78.186,26.186c-20.15,27.378-32.201,61.084-32.201,97.684
	h198.194V90.839H188.84z"/>
<path style="fill:#FFD164;" d="M417.033,57.806c-4.561,0-8.258,3.697-8.258,8.258c0,22.804-18.486,41.29-41.29,41.29h-8.258v33.032
	h66.065V66.065C425.291,61.504,421.594,57.806,417.033,57.806z"/>
<path style="fill:#FFEDB1;" d="M425.557,181.677h-0.532c-4.414,0-7.992-3.578-7.992-7.992v-16.782h16.516v16.782
	C433.549,178.099,429.971,181.677,425.557,181.677z"/>
<path style="fill:#FFE17D;" d="M272.517,272.516h-72.37c-23.722,0-44.906-17.343-47.158-40.958
	c-2.583-27.09,18.649-49.88,45.206-49.88h103.226v16.516h57.806v-16.516c0-9.122,7.395-16.516,16.516-16.516h49.548
	c4.561,0,8.258-3.697,8.258-8.258v-8.258c0-9.122-7.395-16.516-16.516-16.516H399.1c-4.38,0-8.581-1.74-11.679-4.837l-12.68-12.681
	c-4.646-4.646-10.947-7.256-17.518-7.256H188.84c-57.806,0-107.546,44.423-110.265,102.165
	c-2.903,61.65,46.221,112.545,107.232,112.545h84.459c29.391,0,55.022,22.648,55.903,52.026
	c0.912,30.399-23.459,55.329-53.652,55.329h-94.968c-31.926,0-57.806,25.881-57.806,57.806V512h8.258
	c13.516,0,25.011-10.823,24.778-24.337c-0.239-13.882,10.942-25.211,24.77-25.211h91.818c52.29,0,97.145-40.909,98.101-93.19
	C368.442,315.999,325.558,272.516,272.517,272.516z"/>
<g>
	<rect x="251.871" y="429.42" style="fill:#FFD164;" width="16.516" height="33.03"/>
	<path style="fill:#FFD164;" d="M415.985,222.956c-1.306,0-2.629-0.31-3.871-0.968c-4.024-2.137-5.556-7.137-3.411-11.165
		c0.685-1.294,0.242-2.391-0.081-2.931c-0.323-0.536-1.081-1.44-2.54-1.44h-96.403c-4.565,0-8.258-3.698-8.258-8.258
		s3.694-8.258,8.258-8.258h96.403c6.903,0,13.145,3.532,16.702,9.448c3.556,5.919,3.742,13.093,0.5,19.19
		C421.799,221.367,418.945,222.956,415.985,222.956z"/>
	<path style="fill:#FFD164;" d="M136.259,510.507v-23.281c0-22.804,18.486-41.29,41.29-41.29h92.529
		c18.257,0,36.353-6.032,49.8-18.381c15.284-14.036,23.417-33.398,22.8-53.96c-1.126-37.521-33.61-68.047-72.412-68.047h-81.478
		c-24.574,0-48.817-8.619-66.393-25.794c-18.831-18.402-28.559-43.22-27.323-69.458c2.282-48.463,43.47-86.426,93.767-86.426h112.58
		c4.561,0,8.258-3.697,8.258-8.258l0,0c0-4.561-3.697-8.258-8.258-8.258h-112.58c-57.806,0-107.546,44.423-110.265,102.165
		c-2.903,61.65,46.221,112.545,107.232,112.545h84.457c29.391,0,55.022,22.648,55.905,52.026
		c0.913,30.399-23.459,55.329-53.652,55.329h-94.968c-31.926,0-57.806,25.881-57.806,57.806V512h8.259
		C130.89,512,133.649,511.416,136.259,510.507z"/>
	<path style="fill:#FFD164;" d="M167.426,259.779l-30.457,50.417c4.927,2.525,10.025,4.759,15.357,6.508l29.046-48.081
		C176.209,266.468,171.493,263.488,167.426,259.779z"/>
	<path style="fill:#FFD164;" d="M78.885,223.271l74.084,7.812c-0.489-5.745,0.126-11.272,1.6-16.441l-75.712-7.983
		c-0.072,0.961-0.237,1.893-0.282,2.861C78.356,214.18,78.527,218.751,78.885,223.271z"/>
	<path style="fill:#FFD164;" d="M314.282,409.442c-3.479,4.306-7.625,8.037-12.259,11.095l24.105,24.103
		c4.574-3.16,8.879-6.657,12.839-10.516L314.282,409.442z"/>
	<path style="fill:#FFD164;" d="M326.169,374.091c0.058,1.952,0.006,3.879-0.139,5.78h40.585c0.47-3.481,0.787-7.011,0.853-10.609
		c0.036-1.993-0.109-3.943-0.194-5.907h-42.575C325.553,366.806,326.058,370.395,326.169,374.091z"/>
	<rect x="194.061" y="429.42" style="fill:#FFD164;" width="16.516" height="33.03"/>
	<rect x="243.611" y="272.52" style="fill:#FFD164;" width="16.516" height="49.548"/>
	<path style="fill:#FFD164;" d="M137.573,119.774l34.615,70.122c4.487-3.143,9.57-5.475,15.043-6.834l-34.385-69.657
		C147.587,115.187,142.461,117.265,137.573,119.774z"/>
	<path style="fill:#FFD164;" d="M333.572,294.748l-34.914,34.917c4.868,2.779,9.292,6.227,13.098,10.257l33.449-33.452
		C341.656,302.247,337.795,298.297,333.572,294.748z"/>
</g>
<g>
	<path style="fill:#FFC350;" d="M311.755,339.923l11.591-11.592c-3.811-3.991-8.055-7.585-12.708-10.647l-11.98,11.981
		C303.526,332.445,307.949,335.893,311.755,339.923z"/>
	<path style="fill:#FFC350;" d="M145.614,295.886l-8.645,14.31c4.927,2.525,10.025,4.759,15.357,6.508l8.992-14.886
		C155.907,300.309,150.656,298.313,145.614,295.886z"/>
	<path style="fill:#FFC350;" d="M314.282,409.442c-3.479,4.306-7.625,8.037-12.259,11.095l11.853,11.852
		c2.079-1.496,4.097-3.085,6.002-4.834c2.201-2.021,4.209-4.18,6.108-6.41L314.282,409.442z"/>
	<path style="fill:#FFC350;" d="M326.169,374.091c0.058,1.952,0.006,3.879-0.139,5.78h16.504c0.119-2.08,0.208-4.166,0.144-6.276
		c-0.105-3.489-0.566-6.891-1.193-10.24h-16.786C325.552,366.806,326.058,370.395,326.169,374.091z"/>
	<rect x="251.871" y="429.42" style="fill:#FFC350;" width="16.516" height="16.516"/>
	<rect x="194.061" y="429.42" style="fill:#FFC350;" width="16.516" height="16.516"/>
	<path style="fill:#FFC350;" d="M144.801,134.416c4.876-2.496,10.02-4.551,15.358-6.196l-7.313-14.815
		c-5.259,1.783-10.386,3.86-15.274,6.368L144.801,134.416z"/>
	<path style="fill:#FFC350;" d="M78.885,223.271l16.783,1.77c-0.544-4.849-0.83-9.757-0.595-14.743
		c0.03-0.646,0.143-1.268,0.187-1.909l-16.403-1.729c-0.072,0.961-0.236,1.893-0.282,2.861
		C78.356,214.18,78.527,218.751,78.885,223.271z"/>
	<rect x="243.611" y="305.55" style="fill:#FFC350;" width="16.516" height="16.516"/>
	<path style="fill:#FFC350;" d="M317.936,132.129c-4.561,0-8.258,3.697-8.258,8.258c0,18.159-11.799,33.408-28.089,38.936
		c2.064-4.309,3.315-9.074,3.315-14.162c0-4.56-3.694-8.258-8.258-8.258s-8.258,3.698-8.258,8.258
		c0,9.109-7.411,16.516-16.516,16.516c-4.565,0-8.258,3.698-8.258,8.258s0,16.516,0,16.516h82.581v-66.065
		C326.195,135.826,322.497,132.129,317.936,132.129z"/>
</g>
<path style="fill:#FFD164;" d="M317.936,198.194h-9.675c-4.381,0-8.581-1.74-11.679-4.838l-6.841-6.841
	c-3.098-3.097-7.298-4.837-11.679-4.837h-34.449h-45.419c-25.085,0-45.419,20.335-45.419,45.419s20.335,45.419,45.419,45.419h8.258
	c-11.402,0-20.645-9.243-20.645-20.645s9.243-20.645,20.645-20.645h35.333c4.535,5.034,11.036,8.258,18.345,8.258h16.516v-16.516
	c0-4.561,3.697-8.258,8.258-8.258h33.032c4.561,0,8.258-3.698,8.258-8.258C326.195,201.891,322.497,198.194,317.936,198.194z"/>
<path style="fill:#FFC350;" d="M317.936,256c-4.565,0-8.258-3.698-8.258-8.258H260.13c-18.218,0-33.032-14.819-33.032-33.032
	c0-4.56,3.694-8.258,8.258-8.258s8.258,3.698,8.258,8.258c0,9.109,7.411,16.516,16.516,16.516h49.548
	c9.105,0,16.516,7.407,16.516,16.516C326.195,252.302,322.501,256,317.936,256z"/>
<g>
	<circle style="fill:#E6646E;" cx="268.391" cy="66.06" r="8.258"/>
	<circle style="fill:#E6646E;" cx="359.231" cy="140.39" r="8.258"/>
	<circle style="fill:#E6646E;" cx="268.391" cy="198.19" r="8.258"/>
</g>
<g>
</g>
<g>
</g>
<g>
</g>
<g>
</g>
<g>
</g>
<g>
</g>
<g>
</g>
<g>
</g>
<g>
</g>
<g>
</g>
<g>
</g>
<g>
</g>
<g>
</g>
<g>
</g>
<g>
</g>
</svg>
