<?xml version="1.0" encoding="iso-8859-1"?>
<!-- Generator: Adobe Illustrator 19.0.0, SVG Export Plug-In . SVG Version: 6.00 Build 0)  -->
<svg version="1.1" id="Capa_1" xmlns="http://www.w3.org/2000/svg" xmlns:xlink="http://www.w3.org/1999/xlink" x="0px" y="0px"
	 viewBox="0 0 511.999 511.999" style="enable-background:new 0 0 511.999 511.999;" xml:space="preserve">
<path style="fill:#5D5360;" d="M287.495,267.999c-7.124,0-13.88,3.164-18.441,8.637l-35.203,42.242l12.297,10.242l23.63-28.355
	c3.931-4.717,10.215-6.768,16.172-5.279l82.049,20.513l-0.001-48H287.495z"/>
<path style="fill:#FFB464;" d="M200,331.999c-2.164,0-4.32-0.875-5.898-2.594c-2.984-3.258-2.766-8.32,0.492-11.305
	c12.953-11.871,32.664-13.211,46.844-3.195c1,0.703,2.438,1.094,4.031,1.094H264c4.422,0,8,3.582,8,8s-3.578,8-8,8h-18.531
	c-4.938,0-9.523-1.391-13.25-4.023c-3.688-2.602-7.914-3.977-12.219-3.977c-6.742,0-11.656,3.207-14.594,5.898
	C203.867,331.304,201.93,331.999,200,331.999z"/>
<path style="fill:#5D5360;" d="M416.503,267.999c7.124,0,13.88,3.164,18.44,8.637l35.203,42.242l-12.297,10.242l-23.63-28.354
	c-3.931-4.717-10.215-6.769-16.172-5.279l-50.049,12.512v-40H416.503z"/>
<path style="fill:#FFB464;" d="M503.998,331.999c2.164,0,4.32-0.875,5.898-2.594c2.984-3.258,2.766-8.32-0.492-11.305
	c-12.953-11.871-32.664-13.211-46.844-3.195c-1,0.703-2.438,1.094-4.031,1.094h-18.531c-4.422,0-8,3.582-8,8s3.578,8,8,8h18.531
	c4.938,0,9.523-1.391,13.25-4.023c3.688-2.602,7.914-3.977,12.219-3.977c6.742,0,11.656,3.207,14.594,5.898
	C500.131,331.304,502.069,331.999,503.998,331.999z"/>
<path style="fill:#5D5360;" d="M216.504,91.999c7.124,0,13.88,3.164,18.44,8.637l35.203,42.242L257.85,153.12l-23.63-28.354
	c-3.931-4.717-10.215-6.769-16.172-5.279l-50.049,12.512v-40H216.504z"/>
<path style="fill:#FFB464;" d="M303.999,155.999c2.164,0,4.32-0.875,5.898-2.594c2.984-3.258,2.766-8.32-0.492-11.305
	c-12.953-11.871-32.664-13.211-46.844-3.195c-1,0.703-2.438,1.094-4.031,1.094h-18.531c-4.422,0-8,3.582-8,8s3.578,8,8,8h18.531
	c4.937,0,9.523-1.391,13.25-4.023c3.687-2.602,7.914-3.977,12.219-3.977c6.742,0,11.656,3.207,14.594,5.898
	C300.131,155.304,302.069,155.999,303.999,155.999z"/>
<path style="fill:#5D5360;" d="M95.495,91.999c-7.124,0-13.88,3.164-18.44,8.637l-35.203,42.242l12.297,10.242l23.63-28.354
	c3.931-4.717,10.215-6.769,16.172-5.279L144,131.999v-40H95.495z"/>
<path style="fill:#FFB464;" d="M8,155.999c-2.164,0-4.32-0.875-5.898-2.594c-2.984-3.258-2.766-8.32,0.492-11.305
	c12.953-11.871,32.664-13.211,46.844-3.195c1,0.703,2.437,1.094,4.031,1.094H72c4.422,0,8,3.582,8,8s-3.578,8-8,8H53.468
	c-4.937,0-9.523-1.391-13.25-4.023c-3.687-2.602-7.914-3.977-12.218-3.977c-6.742,0-11.656,3.207-14.594,5.898
	C11.867,155.304,9.929,155.999,8,155.999z"/>
<path style="fill:#DBD9DC;" d="M447.999,91.999c-4.422,0-8-3.582-8-8v-16h16v16C455.999,88.417,452.421,91.999,447.999,91.999z"/>
<path style="fill:#6F6571;" d="M446.059,46.484L428.394,50.9c-2.726,0.682-5.61-0.117-7.598-2.104l-19.423-19.424
	c-6.002-6.001-14.141-9.373-22.629-9.373h-50.745v16H222.928l-2.929,8c-51.383,0-92.928,42.124-91.984,93.722
	c0.927,50.648,44.38,90.278,95.035,90.278h62.615c33.843,0,63.595,25.277,66.145,59.024c2.82,37.316-26.384,68.513-62.994,68.971
	c-57.639,0.721-104.817,46.382-104.817,104.027v39.978c17.673,0,32-14.327,32-32v-8c0-35.346,28.654-64,64-64h0.95
	c58.153,0,108.192-44.691,110.927-102.78c2.92-62.02-46.499-113.22-107.877-113.22h-58.281c-20.891,0-39.548-15.274-41.531-36.071
	c-2.275-23.857,16.425-43.929,39.812-43.929h120l8,8h32v-16c0-2.209,0.447-4.313,1.258-6.228c2.023-4.786,6.31-8.381,11.518-9.447
	c1.041-0.212,2.12-0.325,3.224-0.325h48c4.418,0,8-3.582,8-8V54.245C455.999,49.041,451.108,45.222,446.059,46.484z"/>
<path style="fill:#A16570;" d="M283.999,179.999h-60c-22.091,0-40-17.909-40-40s17.909-40,40-40h112v-16h-112
	c-30.878,0-56,25.122-56,56s25.122,56,56,56h60c50.729,0,92,41.271,92,92s-41.271,92-92,92h-4c-44.112,0-80,35.888-80,80v8
	c0,8.822-7.178,16-16,16v16c17.673,0,32-14.327,32-32v-8c0-35.346,28.654-64,64-64h4c59.647,0,108-48.353,108-108
	S343.646,179.999,283.999,179.999z"/>
<path style="fill:#FFB464;" d="M285.452,219.999h-62.993c-43.713,0-81.979-32.378-86.078-75.898
	c-4.703-49.942,34.624-92.102,83.618-92.102h36c4.418,0,8-3.582,8-8l0,0c0-4.418-3.582-8-8-8h-33.071
	c-52.042,0-97.597,38.548-102.474,90.361c-5.596,59.455,41.224,109.639,99.545,109.639h65.796c29.908,0,56.184,22.501,58.088,52.349
	c2.078,32.573-23.877,59.732-56.027,59.651c-61.575-0.156-111.857,55.051-111.857,116.626v35.374c0,4.418,3.578,8,8,8s8-3.582,8-8
	v-36.366c0-52.771,43.105-99.723,95.876-99.634c41.379,0.07,74.747-34.946,71.96-76.89
	C357.296,248.866,323.779,219.999,285.452,219.999z"/>
<path style="fill:#FFD164;" d="M384.077,59.999c-4.422,0-8.039-3.582-8.039-8s3.539-8,7.961-8h0.078c4.422,0,8,3.582,8,8
	S388.499,59.999,384.077,59.999z"/>
<path style="fill:#FF646F;" d="M343.999,43.999l-24-24h-65.941c6.365,0,12.469,2.528,16.97,7.029l2.912,2.912
	c9.002,9.002,21.211,14.059,33.942,14.059H343.999z"/>
<path style="fill:#5D5360;" d="M439.999,115.999h-72c-12.82,0-24.875-4.992-33.937-14.059l-21.258-21.254
	c-3.023-3.023-7.039-4.687-11.313-4.687h-5.492c-4.422,0-8-3.582-8-8s3.578-8,8-8h5.492c8.547,0,16.586,3.332,22.625,9.375
	l21.258,21.254c6.047,6.043,14.078,9.371,22.625,9.371h72c4.422,0,8,3.582,8,8S444.421,115.999,439.999,115.999z"/>
<g>
	<path style="fill:#FF646F;" d="M372.999,291.999c0,4.418,3.578,8,8,8h10.297c0.436-3.944,0.703-7.939,0.703-12
		c0-1.351-0.152-2.662-0.202-4h-10.798C376.577,283.999,372.999,287.581,372.999,291.999z"/>
	<path style="fill:#FF646F;" d="M281.663,179.999v16c0,4.418,3.578,8,8,8s8-3.582,8-8v-15.042
		c-4.485-0.568-9.025-0.958-13.664-0.958H281.663z"/>
	<path style="fill:#FF646F;" d="M352.507,348.511c-3.125,3.125-3.125,8.191,0,11.312l6.123,6.122
		c3.862-3.699,7.424-7.686,10.705-11.919l-5.516-5.515C360.695,345.386,355.632,345.386,352.507,348.511z"/>
	<path style="fill:#FF646F;" d="M215.546,203.909c0.406,0.062,0.812,0.09,1.211,0.09c3.891,0,7.297-2.836,7.898-6.793l2.625-17.207
		h-3.281c-4.417,0-8.59-0.888-12.563-2.21l-2.593,17.003C208.171,199.159,211.179,203.241,215.546,203.909z"/>
	<path style="fill:#FF646F;" d="M266.999,70.499c-4.422,0-8,3.582-8,8v21.5h16v-21.5C274.999,74.081,271.421,70.499,266.999,70.499z
		"/>
	<path style="fill:#FF646F;" d="M166.328,159.401c0.539,0,1.086-0.055,1.633-0.168l19.09-3.962
		c-1.949-4.708-3.052-9.858-3.052-15.272c0-0.151,0.043-0.291,0.044-0.442l-19.333,4.012c-4.328,0.898-7.109,5.133-6.211,9.457
		C159.289,156.804,162.617,159.401,166.328,159.401z"/>
	<path style="fill:#FF646F;" d="M358.632,210.054l-8.289,8.289c-3.125,3.125-3.125,8.187,0,11.312
		c1.562,1.562,3.609,2.344,5.656,2.344s4.094-0.781,5.656-2.344l7.681-7.681C366.056,217.741,362.493,213.753,358.632,210.054z"/>
	<path style="fill:#FF646F;" d="M295.999,395.295v-7.296c0-4.418-3.578-8-8-8s-8,3.582-8,8v8h4
		C288.06,395.999,292.055,395.732,295.999,395.295z"/>
	<path style="fill:#FF646F;" d="M193.554,80.281c-3.891,2.09-5.359,6.937-3.266,10.832l9.327,17.385
		c4.211-3.266,9.046-5.695,14.355-7.075l-9.588-17.873C202.304,79.656,197.453,78.191,193.554,80.281z"/>
</g>
<path style="fill:#FFB464;" d="M344.007,52.003c-2.047,0-4.094-0.781-5.656-2.344l-17.945-17.945
	c-7.563-7.555-17.61-11.715-28.289-11.715h-60.118c-4.422,0-8-3.582-8-8s3.578-8,8-8h60.117c14.953,0,29.016,5.824,39.602,16.398
	l17.945,17.949c3.125,3.125,3.125,8.187,0,11.312C348.101,51.222,346.054,52.003,344.007,52.003z"/>
<g>
</g>
<g>
</g>
<g>
</g>
<g>
</g>
<g>
</g>
<g>
</g>
<g>
</g>
<g>
</g>
<g>
</g>
<g>
</g>
<g>
</g>
<g>
</g>
<g>
</g>
<g>
</g>
<g>
</g>
</svg>
