<?xml version="1.0" encoding="iso-8859-1"?>
<!-- Generator: Adobe Illustrator 19.0.0, SVG Export Plug-In . SVG Version: 6.00 Build 0)  -->
<svg version="1.1" id="Capa_1" xmlns="http://www.w3.org/2000/svg" xmlns:xlink="http://www.w3.org/1999/xlink" x="0px" y="0px"
	 viewBox="0 0 512 512" style="enable-background:new 0 0 512 512;" xml:space="preserve">
<path style="fill:#FFE17D;" d="M260.156,204.406h-70.663c-18.366,0-33.253-14.888-33.253-33.253
	c0-18.366,14.888-33.253,33.253-33.253h99.76V79.706H185.336c-48.209,0-87.29,39.081-87.29,87.29s39.081,87.29,87.29,87.29h78.977
	c27.548,0,49.88,22.332,49.88,49.88s-22.332,49.88-49.88,49.88h-16.627c-59.687,0-108.073,48.386-108.073,108.073v41.567
	c18.366,0,33.253-14.888,33.253-33.253v-8.313c0-36.731,29.776-66.507,66.507-66.507h20.783c52.8,0,95.603-42.803,95.603-95.603
	C355.759,247.209,312.956,204.406,260.156,204.406z"/>
<path style="fill:#FFD164;" d="M318.016,252.07c-14.215-14.654-33.288-22.724-53.704-22.724h-76.078
	c-35.356,0-64.62-27.44-65.235-61.168c-0.308-16.895,6.031-32.829,17.85-44.865c11.82-12.038,27.619-18.667,44.487-18.667h103.917
	v-24.94H185.336c-48.209,0-87.29,39.081-87.29,87.29s39.081,87.29,87.29,87.29h78.977c27.548,0,49.88,22.332,49.88,49.88
	s-22.332,49.88-49.88,49.88h-16.627c-59.687,0-108.073,48.386-108.073,108.073v41.567c9.989,0,18.845-4.496,24.94-11.468V462.12
	c0-45.84,37.293-83.133,83.133-83.133h14.532c41.182,0,75.671-32.537,76.883-72.531C339.716,286.034,332.228,266.72,318.016,252.07z
	"/>
<path style="fill:#FF8087;" d="M175.569,203.533l44.251,50.753h22.063l-43.489-49.88h-8.901c-18.366,0-33.253-14.888-33.253-33.253
	c0-4.276,0.877-8.333,2.347-12.088l-45.515,56.894c3.191,4.7,6.834,9.064,10.857,13.048l33.151-41.439l7.055,64.017
	c5.484,1.371,11.164,2.211,17.004,2.489L175.569,203.533z"/>
<path style="fill:#FF646F;" d="M364.072,212.72c-4.595,0-8.313-3.722-8.313-8.313c0-22.919,18.648-41.567,41.567-41.567
	c4.595,0,8.313,3.722,8.313,8.313s-3.718,8.313-8.313,8.313c-13.753,0-24.94,11.187-24.94,24.94
	C372.386,208.997,368.668,212.72,364.072,212.72z"/>
<path style="fill:#FFEDB1;" d="M405.639,129.586v16.627c0,4.591,3.718,8.313,8.313,8.313s8.313-3.722,8.313-8.313v-16.627H405.639z"
	/>
<path style="fill:#FFD164;" d="M398.752,11.774c-6.277,6.277-9.708,14.805-9.741,23.682c-0.09,24.455-19.943,44.251-44.419,44.251
	h-57.85c-15.756,0-29.878,11.798-30.702,27.532c-0.879,16.78,12.467,30.662,29.055,30.662h12.47v8.313
	c0,13.774,11.166,24.94,24.94,24.94h24.94v-16.627c0-9.183,7.444-16.627,16.627-16.627h49.88c4.591,0,8.313-3.722,8.313-8.313V8.33
	c0-7.406-8.955-11.116-14.192-5.878L398.752,11.774z"/>
<path style="fill:#FFB464;" d="M405.639,179.466h-83.133c-18.34,0-33.253-14.918-33.253-33.253V137.9
	c0-4.591,3.718-8.313,8.313-8.313s8.313,3.722,8.313,8.313v8.313c0,9.17,7.461,16.627,16.627,16.627h83.133
	c4.595,0,8.313,3.722,8.313,8.313S410.234,179.466,405.639,179.466z"/>
<path style="fill:#FFE17D;" d="M389.012,35.455c-0.09,24.455-19.943,44.251-44.419,44.251h-2.608c8.819,0,17.278,3.503,23.514,9.74
	l7.896,7.896c4.677,4.677,11.021,7.305,17.635,7.305h31.236V8.33c0-7.406-8.955-11.116-14.192-5.878l-9.322,9.322
	C392.475,18.05,389.044,26.578,389.012,35.455z"/>
<circle style="fill:#FFFFFF;" cx="347.449" cy="112.96" r="8.313"/>
<path style="fill:#FF646F;" d="M185.336,88.02h120.543c22.918,0,41.567-18.648,41.567-41.567c0-4.591-3.718-8.313-8.313-8.313
	s-8.313,3.722-8.313,8.313c0,13.753-11.187,24.94-24.94,24.94h-9.845c0.932-2.613,1.532-5.384,1.532-8.313
	c0-4.591-3.718-8.313-8.313-8.313s-8.313,3.722-8.313,8.313c0,4.583-3.726,8.313-8.313,8.313h-87.29
	c-25.866,0-50.091,10.164-68.22,28.622c-18.12,18.457-27.838,42.878-27.367,68.768c0.942,51.731,45.123,93.817,98.485,93.817h76.078
	c11.342,0,21.936,4.485,29.835,12.624c7.891,8.135,12.056,18.871,11.707,30.229c-0.666,22.208-20.239,40.28-43.637,40.28h-14.532
	c-64.177,0-116.387,52.21-116.387,116.387v41.567c0,4.591,3.718,8.313,8.313,8.313s8.313-3.722,8.313-8.313V462.12
	c0-55.007,44.749-99.76,99.76-99.76h14.532c32.295,0,59.322-25.305,60.264-56.407c0.479-15.892-5.35-30.915-16.399-42.305
	c-11.057-11.398-25.89-17.674-41.77-17.674h-76.078c-44.359,0-81.079-34.763-81.859-77.491c-0.39-21.392,7.64-41.571,22.61-56.817
	S163.968,88.02,185.336,88.02z"/>
<g>
</g>
<g>
</g>
<g>
</g>
<g>
</g>
<g>
</g>
<g>
</g>
<g>
</g>
<g>
</g>
<g>
</g>
<g>
</g>
<g>
</g>
<g>
</g>
<g>
</g>
<g>
</g>
<g>
</g>
</svg>
