<?xml version="1.0" encoding="iso-8859-1"?>
<!-- Generator: Adobe Illustrator 19.0.0, SVG Export Plug-In . SVG Version: 6.00 Build 0)  -->
<svg version="1.1" id="Capa_1" xmlns="http://www.w3.org/2000/svg" xmlns:xlink="http://www.w3.org/1999/xlink" x="0px" y="0px"
	 viewBox="0 0 511.999 511.999" style="enable-background:new 0 0 511.999 511.999;" xml:space="preserve">
<path style="fill:#5D5360;" d="M395.999,47.999h-9.373c-4.243,0-8.313-1.686-11.314-4.687l-9.941-9.941
	c-6.001-6-14.14-9.372-22.627-9.372h-50.745v16h-104v8h-4c-50.81,0-92,41.189-92,92c0,50.81,41.19,92,92,92h68
	c35.346,0,64,28.654,64,64s-28.654,64-64,64c-57.438,0-104,46.562-104,104v40c17.673,0,32-14.327,32-32v-8c0-35.346,28.654-64,64-64
	h4c59.647,0,108-48.354,108-108c0-59.647-48.353-108-108-108h-60c-22.091,0-40-17.909-40-40s17.909-40,40-40h112.64
	c2.433,2.438,5.325,4.431,8.622,5.793c11.049,4.563,23.129,1.816,31.022-6.077l14.343-14.343c6.001-6.001,14.14-9.373,22.627-9.373
	h42.746v-8C419.999,58.744,409.254,47.999,395.999,47.999z"/>
<g>
	<path style="fill:#6F6571;" d="M297.007,239.675l-5.808,5.809c4.229,3.287,8.026,7.083,11.313,11.312l5.808-5.809
		c3.125-3.125,3.125-8.191,0-11.312C305.194,236.55,300.132,236.55,297.007,239.675z"/>
	<path style="fill:#6F6571;" d="M295.518,342.831l5.324,5.324c1.562,1.562,3.609,2.344,5.656,2.344s4.094-0.781,5.656-2.344
		c3.125-3.125,3.125-8.187,0-11.312l-6.321-6.321C302.921,335.056,299.448,339.177,295.518,342.831z"/>
	<path style="fill:#6F6571;" d="M137.655,194.343c-3.125-3.125-8.187-3.125-11.312,0l-8.975,8.975
		c3.687,3.879,7.714,7.41,12.025,10.6l8.262-8.262C140.78,202.53,140.78,197.468,137.655,194.343z"/>
	<path style="fill:#6F6571;" d="M153.879,446.721c1.422,1.031,3.07,1.527,4.695,1.527c2.477,0,4.914-1.145,6.484-3.301
		c2.594-3.574,1.797-8.578-1.773-11.172l-7.62-5.533c-2.026,5.231-3.724,10.625-4.889,16.226L153.879,446.721z"/>
	<path style="fill:#6F6571;" d="M259.999,367.905v-8.553c-2.626,0.328-5.285,0.553-8,0.553c-2.701,0-5.351,0.202-8,0.404v7.596
		c0,4.418,3.578,8,8,8S259.999,372.323,259.999,367.905z"/>
	<path style="fill:#6F6571;" d="M186.593,393.988c1.562,1.562,3.609,2.344,5.656,2.344s4.094-0.781,5.656-2.344
		c3.125-3.125,3.125-8.188,0-11.312l-3.821-3.821c-4.418,3.064-8.558,6.487-12.442,10.183L186.593,393.988z"/>
	<path style="fill:#6F6571;" d="M171.999,48.87v20.149c0,4.418,3.578,8,8,8s8-3.582,8-8v-21.02h-4
		C179.922,47.999,175.936,48.356,171.999,48.87z"/>
	<path style="fill:#6F6571;" d="M331.999,295.999c0-4.418-3.578-8-8-8h-8.553c0.328,2.626,0.553,5.285,0.553,8s-0.225,5.374-0.553,8
		h8.553C328.421,303.999,331.999,300.417,331.999,295.999z"/>
	<path style="fill:#6F6571;" d="M115.999,143.999c0-4.418-3.578-8-8-8H92.201c-0.058,1.336-0.202,2.65-0.202,4
		c0,4.077,0.357,8.063,0.871,12h15.129C112.421,151.999,115.999,148.417,115.999,143.999z"/>
	<path style="fill:#6F6571;" d="M251.999,223.999c0-4.418-3.578-8-8-8s-8,3.582-8,8v8h16V223.999z"/>
	<path style="fill:#6F6571;" d="M122.733,98.046c1.562,1.562,3.609,2.344,5.656,2.344s4.094-0.781,5.656-2.344
		c3.125-3.125,3.125-8.187,0-11.312L120.68,73.369c-3.879,3.687-7.41,7.714-10.6,12.025L122.733,98.046z"/>
	<path style="fill:#6F6571;" d="M187.999,231.999v-11.5c0-4.418-3.578-8-8-8s-8,3.582-8,8v10.629c3.937,0.514,7.923,0.871,12,0.871
		H187.999z"/>
	<path style="fill:#6F6571;" d="M249.452,223.999h-62.993c-43.713,0-81.979-32.378-86.078-75.898
		c-4.703-49.942,34.624-92.102,83.618-92.102h52c4.418,0,8-3.582,8-8l0,0c0-4.418-3.582-8-8-8h-49.071
		c-52.042,0-97.597,38.548-102.474,90.361c-5.597,59.454,41.223,109.639,99.545,109.639h65.796
		c29.908,0,56.184,22.501,58.088,52.349c2.078,32.573-23.877,59.732-56.027,59.651c-61.575-0.156-111.857,55.051-111.857,116.626
		v35.374c0,4.418,3.578,8,8,8s8-3.582,8-8v-36.366c0-52.771,43.105-99.723,95.876-99.634c41.379,0.07,74.747-34.946,71.961-76.89
		C321.295,252.866,287.779,223.999,249.452,223.999z"/>
</g>
<g>
	<path style="fill:#867E88;" d="M183.999,55.999h4v-16l-4,0.031c-4.068,0-8.058,0.553-12,1.028v15.9
		C175.929,56.392,179.914,55.999,183.999,55.999z"/>
	<path style="fill:#867E88;" d="M126.365,79.052l-11.022-10.991c-3.87,3.694-7.541,7.524-10.781,11.792l11.254,11.274
		C118.947,86.77,122.475,82.732,126.365,79.052z"/>
	<path style="fill:#867E88;" d="M123.052,197.633l-11.308,11.308c3.694,3.87,7.703,7.415,11.97,10.655l11.413-11.413
		C130.77,205.051,126.731,201.522,123.052,197.633z"/>
	<path style="fill:#867E88;" d="M183.999,239.999h4v-16h-4c-4.084,0-8.07-0.393-12-0.958v16.167
		C175.941,239.683,179.93,239.999,183.999,239.999z"/>
	<rect x="235.999" y="223.999" style="fill:#867E88;" width="16" height="16"/>
	<path style="fill:#867E88;" d="M296.785,262.524l11.413-11.415c-3.343-4.178-7.135-7.969-11.313-11.312l-11.413,11.415
		C289.763,254.428,293.569,258.233,296.785,262.524z"/>
	<path style="fill:#867E88;" d="M307.999,295.999c0,2.723-0.261,5.38-0.639,8h16.167c0.292-2.63,0.472-5.293,0.472-8
		s-0.18-5.37-0.472-8H307.36C307.737,290.619,307.999,293.276,307.999,295.999z"/>
	<path style="fill:#867E88;" d="M289.843,337.155l11,11c0.111,0.111,0.26,0.146,0.375,0.249c3.882-3.648,7.406-7.671,10.405-12.094
		l-11.622-11.622C297.22,329.323,293.799,333.515,289.843,337.155z"/>
	<path style="fill:#867E88;" d="M259.999,367.433v-15.997c-2.62,0.377-5.183,0.578-7.906,0.578c-2.7,0-5.44,0.107-8.094,0.296
		v15.595c0,0.142,0.074,0.261,0.081,0.401c2.619-0.215,5.246-0.401,7.919-0.401C254.705,367.905,257.369,367.726,259.999,367.433z"
		/>
	<path style="fill:#867E88;" d="M157.96,448.168c1.047-5.168,2.506-10.22,4.328-15.117l-13.103-9.515
		c-2.153,5.132-3.956,10.428-5.378,15.848l10.073,7.337C155.121,447.623,156.539,448.063,157.96,448.168z"/>
	<path style="fill:#867E88;" d="M197.905,382.676l-9.407-9.407c-4.3,3.177-8.384,6.656-12.222,10.403l10.316,10.316
		c0.264,0.264,0.812,0.698,0.812,0.698c0.288-0.271,0.59-0.536,0.881-0.806c3.477-3.271,7.178-6.289,11.077-9.022
		C198.988,384.08,198.55,383.321,197.905,382.676z"/>
	<path style="fill:#867E88;" d="M100.381,148.101c-0.385-4.093-0.47-8.132-0.283-12.102H84.079c-0.213,5.435,0.011,10.778,0.638,16
		h16.13C100.662,150.71,100.505,149.411,100.381,148.101z"/>
</g>
<path style="fill:#C9C6CA;" d="M411.999,95.999c-4.422,0-8-3.582-8-8v-16h16v16C419.999,92.417,416.421,95.999,411.999,95.999z"/>
<g>
	<path style="fill:#6F6571;" d="M419.999,79.999c-4.422,0-8-3.582-8-8v-32c0-4.418,3.578-8,8-8s8,3.582,8,8v32
		C427.999,76.417,424.421,79.999,419.999,79.999z"/>
	<path style="fill:#6F6571;" d="M347.999,63.999h47.797c10.329,0,10.844-15.865,0.516-15.998c-0.105-0.001-0.209-0.002-0.313-0.002
		h-8h-1.373c-4.244,0-8.313-1.686-11.314-4.687l-9.941-9.941c-6.001-6.001-14.14-9.372-22.627-9.372h-50.745v24h56V63.999z"/>
</g>
<path style="fill:#FFE17D;" d="M348.077,63.999c-4.422,0-8.039-3.582-8.039-8s3.539-8,7.961-8h0.078c4.422,0,8,3.582,8,8
	S352.499,63.999,348.077,63.999z"/>
<g>
	<path style="fill:#6F6571;" d="M402.983,135.987c-1.266,0-2.547-0.301-3.75-0.938c-3.898-2.07-5.383-6.914-3.305-10.816
		c0.664-1.254,0.234-2.316-0.078-2.84c-0.312-0.52-1.047-1.395-2.461-1.395h-69.89c-21.992,0-40.164-17.887-40.515-39.875
		c-0.07-4.418,3.453-8.055,7.875-8.125c0.039,0,0.086,0,0.125,0c4.359,0,7.93,3.5,8,7.875c0.21,13.302,11.21,24.126,24.515,24.126
		h69.891c6.688,0,12.734,3.422,16.18,9.152c3.445,5.734,3.625,12.684,0.484,18.59C408.616,134.448,405.85,135.987,402.983,135.987z"
		/>
	<path style="fill:#6F6571;" d="M280.795,18.968c-8.49-7.001-19.49-10.196-30.41-8.831l-25.205,3.151l2.289,0.408l35.508,25.362
		c8.139,5.815,17.894,8.941,27.898,8.941h25.124L280.795,18.968z"/>
</g>
<path style="fill:#867E88;" d="M315.991,55.999c-1.789,0-3.594-0.598-5.086-1.828L275.702,25.14
	c-6.758-5.574-15.633-8.156-24.328-7.066l-39.125,4.895c-7.344,0.898-14.664-1.566-19.945-6.848l-2.469-2.461
	c-3.125-3.121-3.125-8.188-0.008-11.312c3.125-3.133,8.195-3.125,11.32-0.008l2.461,2.465c1.766,1.762,4.125,2.582,6.664,2.289
	l39.117-4.895c13.062-1.629,26.352,2.238,36.492,10.598l35.211,29.031c3.406,2.812,3.891,7.852,1.078,11.262
	C320.593,55.007,318.303,55.999,315.991,55.999z"/>
<g>
</g>
<g>
</g>
<g>
</g>
<g>
</g>
<g>
</g>
<g>
</g>
<g>
</g>
<g>
</g>
<g>
</g>
<g>
</g>
<g>
</g>
<g>
</g>
<g>
</g>
<g>
</g>
<g>
</g>
</svg>
