<?xml version="1.0" encoding="iso-8859-1"?>
<!-- Generator: Adobe Illustrator 19.0.0, SVG Export Plug-In . SVG Version: 6.00 Build 0)  -->
<svg version="1.1" id="Capa_1" xmlns="http://www.w3.org/2000/svg" xmlns:xlink="http://www.w3.org/1999/xlink" x="0px" y="0px"
	 viewBox="0 0 512 512" style="enable-background:new 0 0 512 512;" xml:space="preserve">
<path style="fill:#ED7D5C;" d="M349.46,304.764c-25.907-60.952-100.571-39.619-100.571-39.619s-7.619-66.54-70.095-106.667
	C162.54,93.463,73.143,44.701,73.143,44.701c138.159,16.254,251.936,105.651,251.936,105.651l39.925,108.367
	c3.378,9.17,16.964,6.746,16.964-3.026v49.071L349.46,304.764L349.46,304.764z"/>
<path style="fill:#DC4655;" d="M243.802,280.383c-1.635,0-3.286-0.492-4.714-1.516c-3.651-2.603-4.5-7.683-1.889-11.333
	l72.087-100.929H170.667c-4.492,0-8.127-3.635-8.127-8.127c0-4.488,3.635-8.127,8.127-8.127H325.08c3.048,0,5.833,1.702,7.23,4.409
	c1.389,2.706,1.151,5.964-0.619,8.44l-81.27,113.778C248.833,279.201,246.341,280.383,243.802,280.383z"/>
<path style="fill:#FFD164;" d="M503.873,158.478L503.873,158.478c-4.488,0-8.127-3.639-8.127-8.127v-16.254H512v16.254
	C512,154.84,508.361,158.478,503.873,158.478z"/>
<path style="fill:#DC4655;" d="M495.746,109.716h-17.648c-4.311,0-8.445-1.713-11.494-4.761l-1.972-1.972
	c-6.096-6.097-14.365-9.521-22.987-9.521h-59.678v186.921c0,13.465-10.916,24.381-24.381,24.381H217.795
	c-30.177,0-59.118,11.988-80.456,33.326l-23.674,23.674c-4.888,4.888-11.514,7.64-18.428,7.653l-0.555,0.001
	c-16.376,0.029-29.667-13.238-29.667-29.614v-2.533H48.762v16.254c0,26.931,21.831,48.762,48.762,48.762h0.003
	c10.569,0,20.875-3.303,29.475-9.446l24.59-17.565c12.405-8.861,27.268-13.624,42.512-13.624h41.578l76.947,32.285
	c13.59,5.514,28.118,8.35,42.783,8.35h50.936l26.407-18.862c18.497-13.212,27.354-36.167,22.525-58.379l-27.499-126.49
	c-2.04-9.384,2.987-18.326,11.075-22.016v-18.062c0-8.977,7.277-16.254,16.254-16.254h48.762c4.489,0,8.127-3.639,8.127-8.127
	v-8.127C512,116.993,504.723,109.716,495.746,109.716z"/>
<path style="fill:#FFB464;" d="M455.281,325.047l-27.498-126.49c-2.04-9.385,2.987-18.326,11.075-22.016v-1.808h-21.934
	c-5.137,7.806-7.144,17.523-5.024,27.277l27.499,126.49c3.453,15.883-2.863,32.251-16.089,41.699l-22.168,15.834h-45.728
	c-12.629,0-24.967-2.408-36.495-7.084l-76.947-32.285l-3.017-1.266h-3.272h-41.578c-18.632,0-36.799,5.822-51.96,16.652
	l-24.59,17.565c-5.81,4.15-12.643,6.366-19.778,6.417c-18.019,0.129-32.761-15.096-32.761-33.115v-13.113V256.27
	c0-31.414-25.351-56.978-56.765-57.157c-0.054,0-0.096,0-0.124,0c-4.706,0-8.471,3.99-8.102,8.775c0.33,4.278,4.089,7.451,8.38,7.48
	c22.277,0.15,40.357,18.322,40.357,40.634v97.524c0,26.93,21.831,48.762,48.762,48.762h0.003c10.569,0,20.875-3.303,29.475-9.446
	l24.59-17.565c12.405-8.861,27.268-13.624,42.512-13.624h41.578l76.947,32.285c13.59,5.514,28.118,8.35,42.783,8.35h50.937
	l26.407-18.862C451.253,370.214,460.11,347.259,455.281,325.047z"/>
<path style="fill:#ED7D5C;" d="M487.619,182.859H430.73c-17.929,0-32.508-14.579-32.508-32.508c0-4.488,3.635-8.127,8.127-8.127
	s8.127,3.639,8.127,8.127c0,8.96,7.294,16.254,16.254,16.254h56.889c4.492,0,8.127,3.635,8.127,8.127
	S492.111,182.859,487.619,182.859z"/>
<path style="fill:#FFD164;" d="M374.464,119.967l-27.031-21.624c-3.856-3.085-6.1-7.755-6.1-12.692V44.073
	c0-3.893,5.248-5.132,6.989-1.65l17.392,34.785l27.234,15.562c11.982,6.847,10.756,24.505-2.057,29.631l0,0
	C385.376,124.607,379.102,123.677,374.464,119.967z"/>
<path style="fill:#BE4150;" d="M260.063,345.398c-2.317-0.572-12.875-2.093-22.64-3.444c-9.494-1.313-17.962,6.05-17.995,15.634l0,0
	c0,23.642,15.548,43.605,36.968,50.335c4.277,1.344,6.787,5.73,5.531,10.034l-13.729,47.068l15.603,4.556l23.352-80.5
	C289.502,381.026,299.175,355.049,260.063,345.398z"/>
<path style="fill:#FFB464;" d="M387.681,114.229L360.65,92.604c-3.856-3.084-6.1-7.754-6.1-12.692V54.881l-6.229-12.457
	c-1.741-3.482-6.989-2.243-6.989,1.65v41.577c0,4.938,2.245,9.608,6.1,12.692l27.031,21.625c4.637,3.71,10.912,4.64,16.427,2.434
	c2.67-1.068,4.713-2.763,6.362-4.708C393.821,117.539,390.455,116.449,387.681,114.229z"/>
<circle style="fill:#FFD164;" cx="446.98" cy="117.84" r="8.127"/>
<path style="fill:#BE4150;" d="M373.841,373.842v6.852c0,8.622,3.425,16.89,9.521,22.987l7.719,7.719
	c4.572,4.572,7.141,10.774,7.141,17.24v38.663h16.254v-93.46c0-11.221-9.096-20.317-20.317-20.317l0,0
	C382.938,353.526,373.841,362.622,373.841,373.842z"/>
<g>
	<path style="fill:#ED7D5C;" d="M451.048,475.431c-1.968,0-3.929-0.706-5.492-2.135c-2.984-2.738-7.968-5.992-14.825-5.992
		c-4.373,0-8.667,1.397-12.405,4.04c-3.802,2.675-8.452,4.087-13.468,4.087h-18.825c-4.492,0-8.127-3.635-8.127-8.127
		s3.635-8.127,8.127-8.127h18.825c1.627,0,3.079-0.397,4.095-1.111c14.397-10.159,34.444-8.817,47.587,3.246
		c3.31,3.04,3.532,8.175,0.5,11.484C455.436,474.542,453.246,475.431,451.048,475.431z"/>
	<path style="fill:#ED7D5C;" d="M300.698,475.431c-1.968,0-3.929-0.706-5.492-2.135c-2.984-2.738-7.968-5.992-14.825-5.992
		c-4.373,0-8.667,1.397-12.405,4.04c-3.802,2.675-8.452,4.087-13.468,4.087h-18.825c-4.492,0-8.127-3.635-8.127-8.127
		s3.635-8.127,8.127-8.127h18.825c1.627,0,3.079-0.397,4.095-1.111c14.389-10.159,34.444-8.817,47.587,3.246
		c3.31,3.04,3.532,8.175,0.5,11.484C305.087,474.542,302.897,475.431,300.698,475.431z"/>
</g>
<path style="fill:#BE4150;" d="M382.041,256.289c-4.507-0.036-9.256-0.156-9.406-0.382l-39.929-108.365
	c-0.524-1.413-1.421-2.651-2.603-3.579c-4.722-3.71-117.175-91-256.008-107.333c-4.468-0.544-8.5,2.667-9.024,7.123
	s2.667,8.496,7.119,9.02c124.937,14.697,231.143,91.408,246.08,102.61l39.111,106.135c2.508,6.817,8.714,11.071,15.698,11.071
	c0.405,0,4.323-0.024,8.953-0.064c4.456-0.039,8.063-3.662,8.063-8.119l0,0C390.095,259.946,386.501,256.325,382.041,256.289z"/>
<g>
</g>
<g>
</g>
<g>
</g>
<g>
</g>
<g>
</g>
<g>
</g>
<g>
</g>
<g>
</g>
<g>
</g>
<g>
</g>
<g>
</g>
<g>
</g>
<g>
</g>
<g>
</g>
<g>
</g>
</svg>
