<?xml version="1.0" encoding="iso-8859-1"?>
<!-- Generator: Adobe Illustrator 19.0.0, SVG Export Plug-In . SVG Version: 6.00 Build 0)  -->
<svg version="1.1" id="Capa_1" xmlns="http://www.w3.org/2000/svg" xmlns:xlink="http://www.w3.org/1999/xlink" x="0px" y="0px"
	 viewBox="0 0 512.001 512.001" style="enable-background:new 0 0 512.001 512.001;" xml:space="preserve">
<path style="fill:#867E88;" d="M304.762,40.635v16.254H199.111c-40.396,0-73.143,32.747-73.143,73.143l0,0h-16.254l0,0
	c-18.675,0-32.656-17.791-27.532-35.749C97.713,39.851,147.822,0,207.238,0h43.424c8.622,0,16.89,3.425,22.987,9.521L304.762,40.635
	z"/>
<g>
	<path style="fill:#6F6571;" d="M183.206,2.292l31.467,54.597h18.759l-32.633-56.62C194.821,0.562,188.946,1.218,183.206,2.292z"/>
	<path style="fill:#6F6571;" d="M162.542,66.752c5.248-3.04,10.899-5.434,16.868-7.102l-44.857-37.36
		c-4.612,3.117-9.028,6.496-13.193,10.163L162.542,66.752z"/>
	<path style="fill:#6F6571;" d="M90.34,73.143c-2.548,5.226-4.705,10.664-6.545,16.254h54.506
		c4.115-6.146,9.146-11.617,14.883-16.254H90.34z"/>
</g>
<path style="fill:#867E88;" d="M231.619,308.825v8.127h-32.508c-85.28,0-154.413,69.133-154.413,154.413l0,0h-8.127v-32.508
	c0-84.5,64.48-153.939,146.921-161.798c9.559-0.911,19.029,2.67,25.819,9.46L231.619,308.825z"/>
<g>
	<path style="fill:#6F6571;" d="M159.453,322.285c6.86-1.821,13.874-3.243,21.075-4.109l-39.536-31.082
		c-5.743,2.201-11.323,4.711-16.731,7.523L159.453,322.285z"/>
	<path style="fill:#6F6571;" d="M109.284,345.936c5.13-3.681,10.412-7.161,15.986-10.201l-35.089-17.466
		c-4.239,3.831-8.252,7.897-12.068,12.151L109.284,345.936z"/>
</g>
<path style="fill:#867E88;" d="M349.46,349.46h32.508c51.617,0,93.46-41.844,93.46-93.46l0,0c0-51.617-41.844-93.46-93.46-93.46
	H349.46l-6.108,32.508h2.045c35.907,0,65.016,29.109,65.016,65.016l0,0c0,35.907-29.109,65.016-65.016,65.016h-2.259L349.46,349.46z
	"/>
<g>
	<path style="fill:#6F6571;" d="M410.413,260.064c0,2.758-0.228,5.459-0.561,8.127h64.692c0.522-4,0.885-8.049,0.885-12.19
		c0-1.372-0.147-2.706-0.205-4.063h-65.372C410.185,254.605,410.413,257.305,410.413,260.064z"/>
	<path style="fill:#6F6571;" d="M461.474,304.951l-53.656-26.828c-1.53,5.295-3.726,10.293-6.472,14.939l50.252,25.126
		C455.267,314.082,458.568,309.66,461.474,304.951z"/>
	<path style="fill:#6F6571;" d="M451.598,193.812l-54.333,27.167c3.263,4.323,6.043,9.028,8.155,14.097l56.054-28.027
		C458.567,202.339,455.268,197.918,451.598,193.812z"/>
</g>
<path style="fill:#64DCA0;" d="M349.46,162.54H200.508c-16.979,0-32.14-12.413-33.752-29.315
	c-1.849-19.389,13.348-35.701,32.355-35.701h113.778l24.381,8.127V89.397c0-8.977,7.277-16.254,16.254-16.254h40.635
	c4.488,0,8.127-3.639,8.127-8.127v-8.127c0-8.977-7.277-16.254-16.254-16.254H197.878c-46.984,0-87.289,36.758-88.149,83.734
	c-0.876,47.86,37.658,86.933,85.319,86.933h148.305c26.7,0,49.983,20.574,50.784,47.262c0.829,27.615-21.311,50.262-48.739,50.262
	H199.111c-89.768,0-162.54,72.771-162.54,162.54v32.508h8.127c13.465,0,24.381-10.916,24.381-24.381l0,0
	c0-71.814,58.217-130.031,130.031-130.031h147.25c51.46,0,95.603-40.259,96.544-91.711
	C443.863,205.332,401.659,162.54,349.46,162.54z"/>
<g>
	<path style="fill:#64B4A0;" d="M386.033,97.524H337.27c-11.204,0-20.666-7.6-23.509-17.916c-1.022-3.709-4.089-6.474-7.937-6.471
		h-0.032c-5.288,0.004-9.199,5.013-7.88,10.134c4.512,17.521,20.448,30.507,39.357,30.507h48.762c4.492,0,8.127-3.639,8.127-8.127
		C394.159,101.163,390.524,97.524,386.033,97.524z"/>
	<path style="fill:#64B4A0;" d="M343.352,195.048l-145.883,0.001c-17.79,0-35.436-5.797-48.632-17.727
		c-15.069-13.623-23.225-32.524-22.856-52.655c0.684-37.373,32.937-67.778,71.897-67.778h155.646v-8.127
		c0-4.488-3.639-8.127-8.127-8.127H197.879c-46.984,0-87.289,36.757-88.15,83.734c-0.877,47.86,37.658,86.933,85.318,86.933h148.304
		c26.7,0,49.983,20.574,50.784,47.262c0.829,27.615-21.31,50.262-48.739,50.262H199.111c-89.768,0-162.54,72.771-162.54,162.54
		v32.508c0,4.488,3.639,8.127,8.127,8.127l0,0c4.488,0,8.127-3.639,8.127-8.127v-32.508c0-80.791,65.494-146.286,146.286-146.286
		h144.025c16.911,0,33.673-5.587,46.128-17.025c14.157-13.001,21.69-30.933,21.118-49.978
		C409.34,223.322,379.27,195.048,343.352,195.048z"/>
</g>
<circle style="fill:#FFFFFF;" cx="345.4" cy="56.889" r="8.127"/>
<g>
</g>
<g>
</g>
<g>
</g>
<g>
</g>
<g>
</g>
<g>
</g>
<g>
</g>
<g>
</g>
<g>
</g>
<g>
</g>
<g>
</g>
<g>
</g>
<g>
</g>
<g>
</g>
<g>
</g>
</svg>
