<?xml version="1.0" encoding="iso-8859-1"?>
<!-- Generator: Adobe Illustrator 19.0.0, SVG Export Plug-In . SVG Version: 6.00 Build 0)  -->
<svg version="1.1" id="Capa_1" xmlns="http://www.w3.org/2000/svg" xmlns:xlink="http://www.w3.org/1999/xlink" x="0px" y="0px"
	 viewBox="0 0 512 512" style="enable-background:new 0 0 512 512;" xml:space="preserve">
<g>
	<path style="fill:#96735F;" d="M303.754,323.849c-0.667,0-1.341-0.079-2.008-0.254l-39.619-10.071
		c-4.349-1.103-6.984-5.524-5.873-9.873c1.095-4.365,5.571-7,9.873-5.873l39.619,10.071c4.349,1.103,6.984,5.524,5.873,9.873
		C310.69,321.405,307.381,323.849,303.754,323.849z"/>
	<path style="fill:#96735F;" d="M268.024,344.008c-0.302,0-0.611-0.016-0.929-0.056l-63.825-7.246
		c-4.452-0.5-7.659-4.532-7.151-8.992c0.5-4.452,4.381-7.77,8.992-7.151l63.825,7.246c4.452,0.5,7.659,4.532,7.151,8.992
		C275.619,340.944,272.103,344.008,268.024,344.008z"/>
	<path style="fill:#96735F;" d="M169.643,380.611c-3.73,0-7.095-2.587-7.929-6.381c-0.968-4.381,1.81-8.722,6.19-9.683
		l60.024-13.206c4.349-0.968,8.714,1.81,9.683,6.19c0.968,4.381-1.81,8.722-6.19,9.683l-60.024,13.206
		C170.81,380.548,170.222,380.611,169.643,380.611z"/>
</g>
<g>
	<path style="fill:#B89A63;" d="M256.001,130.032c-21.371,0-38.518-18.423-36.393-40.223c1.852-19,18.93-32.92,38.02-32.92h47.135
		V32.508h-46.642c-30.976,0-58.616,22.209-62.557,52.933c-4.769,37.17,24.188,68.972,60.437,68.972h52.825
		c8.977,0,16.254,7.277,16.254,16.254v40.635h24.381v-40.635c0-22.442-18.193-40.635-40.635-40.635H256.001z"/>
	<path style="fill:#B89A63;" d="M312.89,186.921c-20.167,0-36.571-16.405-36.571-36.571s16.405-36.571,36.571-36.571h48.762V89.397
		H312.89c-33.611,0-60.952,27.341-60.952,60.952s27.341,60.952,60.952,60.952h93.46V186.92h-93.46V186.921z"/>
	<path style="fill:#B89A63;" d="M446.985,268.19H341.334v81.27h16.254v-16.254c0-22.442,18.193-40.635,40.635-40.635h48.762
		L446.985,268.19L446.985,268.19z"/>
</g>
<path style="fill:#B67F5F;" d="M390.161,186.921c-40.386,0-73.133,32.73-73.142,73.117c0,0.051,0,0.102,0,0.153l-0.066-0.127v12.482
	c0,21.533-14.125,40.517-34.751,46.705l-15.119,4.536c-20.611,6.183-39.366,17.385-54.581,32.601l-39.051,39.05
	c-7.128,7.129-17.196,10.744-27.165,9.285v0.096c-73.4-9.94-130.032-72.688-130.032-148.814v-28.449
	c0-4.489-3.638-8.127-8.127-8.127S0,223.067,0,227.556v28.243c0,105.534,85.552,191.085,191.085,191.085l0,0
	c91.957,0,166.503-74.546,166.503-166.503V243.81c0-17.954,14.555-32.508,32.508-32.508h24.381v-24.381H390.161z"/>
<path style="fill:#BAB467;" d="M390.096,195.048c-26.93,0-48.762,21.831-48.762,48.762v36.472
	c0,80.191-63.145,145.95-142.408,150.137c-4.409,0.233-7.921,3.737-7.893,8.152l0,0c0.029,4.561,3.816,8.333,8.371,8.109
	c88.092-4.335,158.184-77.131,158.184-166.299V243.81c0-17.954,14.554-32.508,32.508-32.508h24.381v-16.254H390.096z"/>
<path style="fill:#CD916E;" d="M455.112,268.19h-40.635c-4.492,0-8.127-3.639-8.127-8.127s3.635-8.127,8.127-8.127h40.635
	c4.492,0,8.127,3.639,8.127,8.127C463.239,264.552,459.604,268.19,455.112,268.19z"/>
<path style="fill:#B67F5F;" d="M479.493,251.937h-24.381c-8.977,0-16.254,7.277-16.254,16.254v16.254
	c0,13.465,10.916,24.381,24.381,24.381l0,0v-8.127c0-8.977,7.277-16.254,16.254-16.254h22.977c5.429,0,9.561-5.297,7.819-10.439
	C505.94,261.172,493.795,251.937,479.493,251.937z"/>
<circle style="fill:#FFFFFF;" cx="463.24" cy="268.19" r="8.127"/>
<path style="fill:#CD916E;" d="M308.827,32.508h-40.635c-4.492,0-8.127-3.639-8.127-8.127s3.635-8.127,8.127-8.127h40.635
	c4.492,0,8.127,3.639,8.127,8.127S313.319,32.508,308.827,32.508z"/>
<path style="fill:#B67F5F;" d="M333.207,16.254h-24.381c-8.977,0-16.254,7.277-16.254,16.254v16.254
	c0,13.465,10.916,24.381,24.381,24.381l0,0v-8.127c0-8.977,7.277-16.254,16.254-16.254h22.977c5.429,0,9.561-5.297,7.819-10.439
	C359.654,25.49,347.51,16.254,333.207,16.254z"/>
<path style="fill:#96735F;" d="M357.587,89.397c-4.492,0-8.127-3.635-8.127-8.127h-32.508c-17.929,0-32.508-14.579-32.508-32.508
	c0-4.492,3.635-8.127,8.127-8.127s8.127,3.635,8.127,8.127c0,8.96,7.294,16.254,16.254,16.254h32.508
	c8.96,0,16.254,7.294,16.254,16.254C365.714,85.762,362.079,89.397,357.587,89.397z"/>
<circle style="fill:#FFFFFF;" cx="316.95" cy="32.508" r="8.127"/>
<path style="fill:#96735F;" d="M325.08,338.128v62.883c0,8.622,3.425,16.89,9.521,22.987l0,0c4.311,4.311,6.733,10.157,6.733,16.254
	v47.368h16.254V338.128c0-16.082-20.857-22.397-29.778-9.016l0,0C326.03,331.782,325.08,334.919,325.08,338.128z"/>
<path style="fill:#CD916E;" d="M422.604,178.794h-40.635c-4.492,0-8.127-3.639-8.127-8.127c0-4.488,3.635-8.127,8.127-8.127h40.635
	c4.492,0,8.127,3.639,8.127,8.127C430.731,175.155,427.096,178.794,422.604,178.794z"/>
<path style="fill:#B67F5F;" d="M446.985,162.54h-24.381c-8.977,0-16.254,7.277-16.254,16.254v16.254
	c0,13.465,10.916,24.381,24.381,24.381l0,0v-8.127c0-8.977,7.277-16.254,16.254-16.254h22.977c5.429,0,9.561-5.297,7.819-10.439
	C473.432,171.775,461.287,162.54,446.985,162.54z"/>
<circle style="fill:#FFFFFF;" cx="430.73" cy="178.79" r="8.127"/>
<path style="fill:#CD916E;" d="M373.842,89.397h-40.635c-4.492,0-8.127-3.639-8.127-8.127s3.635-8.127,8.127-8.127h40.635
	c4.492,0,8.127,3.639,8.127,8.127C381.969,85.758,378.334,89.397,373.842,89.397z"/>
<path style="fill:#B67F5F;" d="M398.223,73.143h-24.381c-8.977,0-16.254,7.277-16.254,16.254v16.254
	c0,13.465,10.916,24.381,24.381,24.381l0,0v-8.127c0-8.977,7.277-16.254,16.254-16.254H421.2c5.429,0,9.561-5.297,7.819-10.439
	C424.67,82.379,412.525,73.143,398.223,73.143z"/>
<circle style="fill:#FFFFFF;" cx="381.97" cy="89.4" r="8.127"/>
<path style="fill:#B67F5F;" d="M402.287,495.746c-1.96,0-3.929-0.706-5.492-2.135c-2.984-2.734-7.976-5.992-14.825-5.992
	c-4.381,0-8.667,1.397-12.405,4.04c-3.794,2.675-8.452,4.087-13.468,4.087h-18.825c-4.492,0-8.127-3.639-8.127-8.127
	s3.635-8.127,8.127-8.127h18.825c1.619,0,3.079-0.397,4.095-1.111c14.373-10.171,34.413-8.821,47.587,3.246
	c3.31,3.032,3.532,8.175,0.5,11.484C406.676,494.857,404.485,495.746,402.287,495.746z"/>
<path style="fill:#96735F;" d="M228.484,395.655l-4.433,4.856c-8.201,8.984-12.748,20.71-12.748,32.875v54.234h16.254v-19.252
	c0-9.97,6.07-18.935,15.326-22.637l0.012-0.005c10.782-4.313,18.837-13.541,21.654-24.807l1.3-5.199
	c1.492-5.969,0.402-12.289-3.004-17.413l-0.009-0.013C254.967,386.452,238.068,385.155,228.484,395.655z"/>
<path style="fill:#B67F5F;" d="M260.065,495.746c-1.96,0-3.929-0.706-5.492-2.135c-2.984-2.734-7.976-5.992-14.825-5.992
	c-4.381,0-8.667,1.397-12.405,4.04c-3.794,2.675-8.452,4.087-13.468,4.087H195.05c-4.492,0-8.127-3.639-8.127-8.127
	s3.635-8.127,8.127-8.127h18.825c1.619,0,3.079-0.397,4.095-1.111c14.373-10.171,34.413-8.821,47.587,3.246
	c3.31,3.032,3.532,8.175,0.5,11.484C264.453,494.857,262.263,495.746,260.065,495.746z"/>
<g>
	<path style="fill:#96735F;" d="M503.873,325.079c-4.492,0-8.127-3.635-8.127-8.127h-32.508c-17.929,0-32.508-14.579-32.508-32.508
		c0-4.492,3.635-8.127,8.127-8.127s8.127,3.635,8.127,8.127c0,8.96,7.294,16.254,16.254,16.254h32.508
		c8.96,0,16.254,7.294,16.254,16.254C512,321.444,508.365,325.079,503.873,325.079z"/>
	<path style="fill:#96735F;" d="M471.365,235.683c-4.492,0-8.127-3.635-8.127-8.127H430.73c-17.929,0-32.508-14.579-32.508-32.508
		c0-4.492,3.635-8.127,8.127-8.127s8.127,3.635,8.127,8.127c0,8.96,7.294,16.254,16.254,16.254h32.508
		c8.96,0,16.254,7.294,16.254,16.254C479.492,232.048,475.857,235.683,471.365,235.683z"/>
	<path style="fill:#96735F;" d="M422.603,146.286c-4.492,0-8.127-3.635-8.127-8.127h-32.508c-17.929,0-32.508-14.579-32.508-32.508
		c0-4.492,3.635-8.127,8.127-8.127s8.127,3.635,8.127,8.127c0,8.96,7.294,16.254,16.254,16.254h32.508
		c8.96,0,16.254,7.294,16.254,16.254C430.73,142.651,427.095,146.286,422.603,146.286z"/>
	<path style="fill:#96735F;" d="M16.254,256.005v-28.449c0-4.489-3.638-8.127-8.127-8.127S0,223.067,0,227.556v28.243
		c0,42.152,13.684,81.086,36.806,112.681c2.021,2.762,5.297,4.346,8.719,4.346l0,0c9.151,0,14.244-10.814,8.191-17.677
		C30.407,328.717,16.254,294.04,16.254,256.005z"/>
</g>
<g>
</g>
<g>
</g>
<g>
</g>
<g>
</g>
<g>
</g>
<g>
</g>
<g>
</g>
<g>
</g>
<g>
</g>
<g>
</g>
<g>
</g>
<g>
</g>
<g>
</g>
<g>
</g>
<g>
</g>
</svg>
