<?xml version="1.0" encoding="iso-8859-1"?>
<!-- Generator: Adobe Illustrator 19.0.0, SVG Export Plug-In . SVG Version: 6.00 Build 0)  -->
<svg version="1.1" id="Capa_1" xmlns="http://www.w3.org/2000/svg" xmlns:xlink="http://www.w3.org/1999/xlink" x="0px" y="0px"
	 viewBox="0 0 512.001 512.001" style="enable-background:new 0 0 512.001 512.001;" xml:space="preserve">
<path style="fill:#FFB464;" d="M8.127,20.321c0,0,94.984,61.46,99.556,128c72.466,19.979,70.095,85.333,70.095,85.333
	s77.545-13.545,139.175,54.857h40.635l-36.022-60.037c-8.336-13.894-12.74-29.792-12.74-45.994v-64.635L8.127,20.321z"/>
<path style="fill:#ED7D5C;" d="M170.675,247.877c-2.349,0-4.675-1.008-6.278-2.96c-2.857-3.468-2.365-8.587,1.103-11.437
	l116.905-96.278L98.452,158.428c-4.365,0.496-8.492-2.683-9-7.143c-0.516-4.46,2.683-8.492,7.143-9.008l211.302-24.381
	c3.548-0.393,7,1.579,8.405,4.897c1.413,3.313,0.468,7.163-2.31,9.452L175.833,246.019
	C174.318,247.265,172.492,247.877,170.675,247.877z"/>
<g>
	<path style="fill:#BE4150;" d="M359.03,269.841l-30.967-47.147c-7.27-11.627-11.111-25.032-11.111-38.762V131.83l5.556,1.852
		c0.857,0.286,1.722,0.421,2.571,0.421c3.405,0,6.571-2.155,7.706-5.56c1.421-4.258-0.881-8.861-5.135-10.282L10.699,12.611
		C6.413,11.178,1.833,13.5,0.421,17.75C-1,22.008,1.302,26.611,5.556,28.031l295.143,98.381v57.52
		c0,16.778,4.698,33.159,13.587,47.381l31.259,49.586C348.974,276.294,353.456,272.443,359.03,269.841z"/>
	<path style="fill:#BE4150;" d="M227.556,280.384c-62.838,0-113.778,50.94-113.778,113.778c0,22.442-18.193,40.635-40.635,40.635
		s-40.635-18.193-40.635-40.635v-40.635c0-22.071-8.768-43.239-24.374-58.846l-0.006-0.006v99.487
		c0,40.396,32.747,73.143,73.143,73.143s73.143-32.747,73.143-73.143c0-26.931,21.831-48.762,48.762-48.762h24.381l56.893-65.016
		L227.556,280.384L227.556,280.384z"/>
</g>
<g>
	<path style="fill:#DC4655;" d="M495.746,109.718h-9.521c-4.311,0-8.445-1.712-11.493-4.761l-1.972-1.972
		c-6.096-6.096-14.365-9.521-22.987-9.521h-10.916H412.57h-14.348l0.365,3.28c-8.826,4.229-15.594,12.255-17.782,22.322
		L349.91,261.182c-2.436,11.208-12.355,19.202-23.825,19.202h-57.824c-26.907,0-48.728,21.794-48.762,48.701l-0.013,10.272
		c-0.012,9.294,2.633,18.399,7.623,26.24l33.198,52.168l16.01-15.476v-40.635h15.677c10.778,0,21.114,4.282,28.735,11.903
		l8.703,8.703c5.882,5.881,13.385,9.741,21.458,11.197c3.869,0.698,6.698,4.007,6.698,7.939v50.623l48.762-82.238v-186.92
		c0-8.977,7.277-16.254,16.254-16.254h16.254h8.127v-8.127c0-8.977,7.277-16.254,16.254-16.254h40.635
		c4.488,0,8.127-3.639,8.127-8.127v-8.127C512,116.995,504.723,109.718,495.746,109.718z"/>
	<path style="fill:#DC4655;" d="M146.286,391.865L146.286,391.865c0,34.594-26.046,64.85-60.562,67.163
		c-37.855,2.536-69.469-27.543-69.469-64.866V280.384c0-4.492-3.635-8.127-8.127-8.127S0,275.892,0,280.384v110.909
		c0,44.218,34.087,82.488,78.277,84.084c46.441,1.677,84.713-35.853,84.259-82.03c-0.218-22.127,18.511-39.821,40.639-39.821h32.508
		v-24.381h-26.678C174.366,329.146,146.286,357.227,146.286,391.865z"/>
</g>
<g>
	<path style="fill:#BE4150;" d="M495.746,182.861c-4.492,0-8.127-3.635-8.127-8.127h-48.762c-17.929,0-32.508-14.583-32.508-32.508
		c0-4.488,3.635-8.127,8.127-8.127s8.127,3.639,8.127,8.127c0,8.964,7.294,16.254,16.254,16.254h48.762
		c8.96,0,16.254,7.29,16.254,16.254C503.873,179.226,500.238,182.861,495.746,182.861z"/>
	<path style="fill:#BE4150;" d="M276.318,329.146c-4.492,0-8.127,3.635-8.127,8.127v51.548c0,6.516-2.54,12.643-7.143,17.246
		l-37.841,37.841c-7.675,7.675-11.905,17.881-11.905,28.738v10.913h-12.19c-4.492,0-8.127,3.635-8.127,8.127
		s3.635,8.127,8.127,8.127h18.825c5.016,0,9.667-1.413,13.468-4.087c3.738-2.643,8.032-4.04,12.405-4.04
		c6.857,0,11.841,3.254,14.825,5.992c1.563,1.429,3.524,2.135,5.492,2.135c2.198,0,4.389-0.889,5.992-2.635
		c3.032-3.31,2.81-8.444-0.5-11.484c-11.534-10.579-28.38-12.91-42.063-6.453v-6.595c0-6.516,2.54-12.643,7.143-17.246
		l37.841-37.841c7.675-7.675,11.905-17.881,11.905-28.738v-51.548C284.444,332.781,280.81,329.146,276.318,329.146z"/>
	<path style="fill:#BE4150;" d="M415.571,485.694c-11.446-10.493-28.105-12.868-41.73-6.599v-27.076
		c0-9.651,2.833-19.008,8.19-27.048l13.397-20.095c7.143-10.722,10.921-23.19,10.921-36.063v-31.54c0-4.492-3.635-8.127-8.127-8.127
		s-8.127,3.635-8.127,8.127v31.54c0,9.651-2.833,19.008-8.19,27.048l-13.397,20.095c-7.143,10.722-10.921,23.19-10.921,36.063v31.54
		h-12.524c-4.492,0-8.127,3.635-8.127,8.127s3.635,8.127,8.127,8.127h18.833c5.024,0,9.675-1.413,13.46-4.087
		c3.738-2.643,8.032-4.04,12.405-4.04c6.857,0,11.841,3.254,14.825,5.992c1.563,1.429,3.524,2.135,5.492,2.135
		c2.198,0,4.389-0.889,5.992-2.635C419.103,493.869,418.881,488.734,415.571,485.694z"/>
</g>
<circle style="fill:#FFB464;" cx="455.11" cy="117.84" r="8.127"/>
<path style="fill:#BE4150;" d="M422.603,101.591h-32.508V85.337h32.508c4.488,0,8.127,3.639,8.127,8.127l0,0
	C430.73,97.952,427.092,101.591,422.603,101.591z"/>
<path style="fill:#EBC9A0;" d="M357.587,101.591h40.635c4.488,0,8.127-3.639,8.127-8.127l0,0c0-4.488-3.639-8.127-8.127-8.127
	h-40.635c-4.488,0-8.127,3.639-8.127,8.127l0,0C349.46,97.952,353.099,101.591,357.587,101.591z"/>
<g>
</g>
<g>
</g>
<g>
</g>
<g>
</g>
<g>
</g>
<g>
</g>
<g>
</g>
<g>
</g>
<g>
</g>
<g>
</g>
<g>
</g>
<g>
</g>
<g>
</g>
<g>
</g>
<g>
</g>
</svg>
