<?xml version="1.0" encoding="iso-8859-1"?>
<!-- Generator: Adobe Illustrator 19.0.0, SVG Export Plug-In . SVG Version: 6.00 Build 0)  -->
<svg version="1.1" id="Capa_1" xmlns="http://www.w3.org/2000/svg" xmlns:xlink="http://www.w3.org/1999/xlink" x="0px" y="0px"
	 viewBox="0 0 512 512" style="enable-background:new 0 0 512 512;" xml:space="preserve">
<path style="fill:#FF969C;" d="M276.317,235.687l20.668,20.668c7.133,7.133,17.923,9.136,27.142,5.04l57.841-25.707L276.317,235.687
	L276.317,235.687z"/>
<path style="fill:#FF8087;" d="M380.157,227.871l-31.642-32.818H207.689l35.199,29.333c8.763,7.303,19.81,11.302,31.217,11.302
	h112.007C384.145,233.126,382.171,230.533,380.157,227.871z"/>
<path style="fill:#E6646E;" d="M295.055,162.544H146.286l35.199,29.333c8.763,7.303,19.81,11.302,31.217,11.302h140.371
	L331.5,178.91C322.247,168.5,308.983,162.544,295.055,162.544z"/>
<path style="fill:#C9C6CA;" d="M495.746,138.163v16.254c0,4.488,3.635,8.127,8.127,8.127s8.127-3.639,8.127-8.127v-16.254H495.746z"
	/>
<polygon style="fill:#FFC350;" points="455.111,97.528 406.349,97.528 398.222,65.02 463.238,65.02 "/>
<path style="fill:#FFD164;" d="M473.936,41.056c-4.294-1.437-8.857,0.885-10.278,5.139l-12.55,37.649
	c-1.106,3.319-4.212,5.557-7.71,5.557h-4.541V48.766c0-4.488-3.635-8.127-8.127-8.127s-8.127,3.639-8.127,8.127v40.635h-4.541
	c-3.498,0-6.604-2.238-7.71-5.557l-12.55-37.649c-1.421-4.254-5.984-6.575-10.278-5.139c-4.254,1.421-6.556,6.024-5.135,10.282
	l16.254,48.762c1.135,3.405,4.302,5.56,7.706,5.56c0.008,0,0.016-0.004,0.024-0.004h48.714c0.008,0,0.016,0.004,0.024,0.004
	c3.405,0,6.571-2.155,7.706-5.56l16.254-48.762C480.492,47.08,478.19,42.477,473.936,41.056z"/>
<path style="fill:#867E88;" d="M495.746,113.782h-16.254l-6.732-6.733c-6.095-6.097-14.364-9.521-22.985-9.521h-35.299
	c-17.954,0-32.508,14.554-32.508,32.508v130.032c0,17.953-14.554,32.508-32.508,32.508H211.302
	c-35.907,0-65.016,29.109-65.016,65.016v10.618c0,19.101-13.964,36.158-32.979,37.972c-21.812,2.08-40.164-15.016-40.164-36.399
	V262.619c0-19.399-7.706-38.003-21.423-51.72l-37.847-37.847c-3.175-3.175-8.317-3.175-11.492,0s-3.175,8.317,0,11.492
	l32.099,32.099c9.145,9.145,14.282,21.548,14.282,34.48v120.89c0,33.427,24.483,62.829,57.713,66.45
	c39.064,4.256,72.125-26.125,72.317-64.281c0.091-18.058,14.451-32.844,32.509-32.844h40.635l74.713,49.809
	c13.215,8.81,28.478,14.528,44.349,15.143c2.21,0.085,6.916-0.048,12.194-0.262c14.815-0.603,29-6.225,40.216-15.925
	c25.329-18.956,39.015-52.023,30.575-85.778l-23.808-95.232c-3.263-13.051,4.663-25.658,16.808-29.216v-17.332
	c0-8.977,7.278-16.254,16.254-16.254h40.635c4.488,0,8.127-3.639,8.127-8.127v-8.127C512,121.059,504.722,113.782,495.746,113.782z
	 M62.675,244.838l0.659,0.659C63.637,246.547,63.341,246.132,62.675,244.838z"/>
<g>
	<rect x="211.3" y="406.35" style="fill:#FFC350;" width="16.254" height="56.889"/>
	<rect x="381.97" y="414.48" style="fill:#FFC350;" width="16.254" height="48.762"/>
</g>
<path style="fill:#6F6571;" d="M495.746,186.925h-56.889c-17.929,0-32.508-14.583-32.508-32.508c0-4.488,3.635-8.127,8.127-8.127
	s8.127,3.639,8.127,8.127c0,8.964,7.294,16.254,16.254,16.254h56.889c4.492,0,8.127,3.639,8.127,8.127
	S500.238,186.925,495.746,186.925z"/>
<path style="fill:#FFFFFF;" d="M455.19,130.036c-4.492,0-8.167-3.639-8.167-8.127s3.595-8.127,8.087-8.127h0.079
	c4.492,0,8.127,3.639,8.127,8.127S459.683,130.036,455.19,130.036z"/>
<g>
	<path style="fill:#FFD164;" d="M434.794,471.37c-1.96,0-3.929-0.706-5.492-2.135c-2.984-2.734-7.976-5.992-14.825-5.992
		c-4.381,0-8.667,1.397-12.405,4.04c-3.794,2.675-8.452,4.087-13.468,4.087h-18.825c-4.492,0-8.127-3.639-8.127-8.127
		s3.635-8.127,8.127-8.127h18.825c1.619,0,3.079-0.397,4.095-1.111c14.373-10.167,34.421-8.825,47.587,3.246
		c3.31,3.032,3.532,8.175,0.5,11.484C439.183,470.481,436.992,471.37,434.794,471.37z"/>
	<path style="fill:#FFD164;" d="M264.127,471.37c-1.96,0-3.929-0.706-5.492-2.135c-2.984-2.734-7.976-5.992-14.825-5.992
		c-4.381,0-8.667,1.397-12.405,4.04c-3.794,2.675-8.452,4.087-13.468,4.087h-18.825c-4.492,0-8.127-3.639-8.127-8.127
		s3.635-8.127,8.127-8.127h18.825c1.619,0,3.079-0.397,4.095-1.111c14.373-10.167,34.413-8.825,47.587,3.246
		c3.31,3.032,3.532,8.175,0.5,11.484C268.516,470.481,266.325,471.37,264.127,471.37z"/>
</g>
<g>
	<path style="fill:#6F6571;" d="M406.349,341.338c-13.465,0-24.381,10.916-24.381,24.381v24.088
		c-3.677,0.147-7.044,0.255-9.272,0.255c-0.419,0-0.779-0.003-1.069-0.014c-12.033-0.466-24.468-4.763-35.962-12.425l-82.086-55.154
		c-3.631-3.393-8.471-5.511-13.833-5.511c-7.74,0-14.738,3.112-19.866,8.127h-8.578c-27.109,0-49.21,22.58-48.756,50.102
		c0.435,26.415-22.384,47.422-48.803,47.422l0,0c-22.433,0-40.622-18.178-40.635-40.611l-0.075-121.62
		c-0.572-18.582-8.126-36.294-21.312-49.479l-37.847-37.847c-3.175-3.175-8.317-3.175-11.492,0s-3.175,8.317,0,11.492l32.099,32.099
		c9.145,9.145,14.282,21.548,14.282,34.48v120.89c0,33.427,24.484,62.829,57.714,66.45c39.064,4.256,72.124-26.126,72.317-64.281
		c0.091-18.058,14.451-32.844,32.509-32.844h0.41c-0.193,1.338-0.41,2.672-0.41,4.064v69.079c0,4.488,3.638,8.127,8.127,8.127
		s8.127-3.639,8.127-8.127v-1.394c0-4.311,1.712-8.445,4.761-11.494l18.226-18.226c6.096-6.097,9.521-14.365,9.521-22.987v-13.624
		l66.586,44.39c13.215,8.81,28.478,14.528,44.349,15.143c2.034,0.078,6.21-0.032,10.97-0.216v16.535
		c0,4.488,3.639,8.127,8.127,8.127s8.127-3.639,8.127-8.127v-1.395c0-4.311,1.712-8.445,4.76-11.493l18.226-18.226
		c6.097-6.097,9.522-14.366,9.522-22.988v-2.787C430.73,352.253,419.814,341.338,406.349,341.338z"/>
	<path style="fill:#6F6571;" d="M63.429,246.092c-0.006,0-0.032-0.046-0.04-0.052c-0.034-0.023-0.092-0.101-0.163-0.212
		c-0.032-0.05-0.055-0.078-0.093-0.144c-0.124-0.211-0.272-0.484-0.458-0.846l0.659,0.659c0.106,0.366,0.116,0.498,0.086,0.533
		C63.416,246.034,63.434,246.092,63.429,246.092z"/>
</g>
<path style="fill:#DC4655;" d="M381.968,243.814c-2.238,0-4.468-0.921-6.071-2.726l-50.468-56.778
	c-7.706-8.667-18.778-13.639-30.373-13.639h-148.77c-4.492,0-8.127-3.639-8.127-8.127s3.635-8.127,8.127-8.127h148.77
	c16.23,0,31.73,6.96,42.516,19.091l50.468,56.778c2.984,3.357,2.683,8.492-0.675,11.476
	C385.817,243.135,383.889,243.814,381.968,243.814z"/>
<g>
</g>
<g>
</g>
<g>
</g>
<g>
</g>
<g>
</g>
<g>
</g>
<g>
</g>
<g>
</g>
<g>
</g>
<g>
</g>
<g>
</g>
<g>
</g>
<g>
</g>
<g>
</g>
<g>
</g>
</svg>
