<?xml version="1.0" encoding="iso-8859-1"?>
<!-- Generator: Adobe Illustrator 19.0.0, SVG Export Plug-In . SVG Version: 6.00 Build 0)  -->
<svg version="1.1" id="Capa_1" xmlns="http://www.w3.org/2000/svg" xmlns:xlink="http://www.w3.org/1999/xlink" x="0px" y="0px"
	 viewBox="0 0 512 512" style="enable-background:new 0 0 512 512;" xml:space="preserve">
<path style="fill:#4B3F4E;" d="M83.912,135.212v36.876l32.779-24.584V98.336l-22.945,17.209
	C87.555,120.188,83.912,127.474,83.912,135.212z"/>
<path style="fill:#E6646E;" d="M124.885,83.46l-32.787,23.071c-10.259,7.699-16.381,19.951-16.381,32.779v40.973
	c0,4.525,3.665,8.195,8.195,8.195c4.529,0,8.195-3.669,8.195-8.195V139.31c0-7.699,3.673-15.053,9.627-19.522l23.152-16.29V83.46
	H124.885z"/>
<path style="fill:#F5DCB4;" d="M428.088,98.336L428.088,98.336c-4.526,0-8.195-3.669-8.195-8.195V73.752h16.389v16.389
	C436.283,94.667,432.614,98.336,428.088,98.336z"/>
<path style="fill:#5D5360;" d="M419.893,49.168h-17.795c-4.347,0-8.516-1.727-11.59-4.801l-10.183-10.183
	c-6.147-6.148-14.485-9.601-23.178-9.601h-43.785L296.973,8.195H256l26.01,26.01c2.498,2.498,0.729,6.769-2.803,6.769h-55.985
	h-24.584c-49.784,0-90.141,40.358-90.141,90.141l0,0c0,49.784,40.358,90.141,90.141,90.141h80.185
	c21.4,0,40.511,15.645,42.543,36.949c2.33,24.437-16.824,44.998-40.781,44.998h-57.363c-40.732,0-73.752,33.02-73.752,73.752v73.752
	h16.389v-57.363c0-31.681,25.682-57.363,57.363-57.363h54.554c43.647,0,81.758-32.938,84.578-76.494
	c3.09-47.728-34.707-87.399-81.77-87.399h-80.538c-17.12,0-32.409-12.517-34.034-29.56c-1.864-19.55,13.459-35.998,32.625-35.998
	h131.115l8.195,8.195h24.584V98.336c0-9.052,7.338-16.389,16.389-16.389h49.168c4.526,0,8.195-3.669,8.195-8.195v-8.195
	C436.283,56.505,428.945,49.168,419.893,49.168z"/>
<g>
	<path style="fill:#EBC9A0;" d="M166.156,387.468c-0.197,1.932-0.298,3.892-0.298,5.876
		C165.859,391.361,166.002,389.413,166.156,387.468z"/>
	<path style="fill:#EBC9A0;" d="M280.584,172.088h-80.538c-17.12,0-32.409-12.517-34.034-29.56
		c-1.864-19.55,13.459-35.998,32.625-35.998h68.687c6.092,0,10.054-6.411,7.33-11.859l0,0c-1.388-2.776-4.226-4.53-7.33-4.53
		h-68.687c-13.822,0-27.084,5.868-36.386,16.099c-9.296,10.225-13.872,24.019-12.554,37.844
		c2.374,24.893,24.489,44.393,50.349,44.393h78.256c17.536,0,34.891,5.997,47.55,18.132c14.235,13.647,21.415,32.221,20.147,51.82
		c-2.22,34.297-32.187,61.163-68.222,61.163h-38.165c-38.683,0-70.442,29.954-73.454,67.876
		c2.943-28.92,27.369-51.487,57.065-51.487h54.554c43.647,0,81.758-32.938,84.578-76.494
		C365.443,211.76,327.647,172.088,280.584,172.088z"/>
</g>
<g>
	<path style="fill:#4B3F4E;" d="M419.893,122.92h-71.031c-15.013,0-29.009-6.726-38.389-18.45l-8.179-10.219
		c-6.258-7.823-15.581-12.304-25.6-12.304h-12.5c-4.529,0-8.195-3.669-8.195-8.195s3.665-8.195,8.195-8.195h12.5
		c15.021,0,29.017,6.726,38.397,18.454l8.171,10.215c6.258,7.819,15.589,12.304,25.6,12.304h71.031c4.529,0,8.195,3.669,8.195,8.195
		S424.423,122.92,419.893,122.92z"/>
	<path style="fill:#4B3F4E;" d="M203.451,487.326c-3.156-7.889-8.302-14.825-14.936-20.133l-16.786-14.05
		c-3.721-3.114-5.87-7.716-5.87-12.568v-39.037c0-4.526-3.669-8.195-8.195-8.195l0,0c-4.526,0-8.195,3.669-8.195,8.195v39.037
		c0,4.852-2.15,9.454-5.87,12.568l-16.786,14.05c-6.635,5.308-11.781,12.244-14.936,20.133l-7.167,17.917
		c-1.627,4.067,2.476,8.071,6.502,6.345l31.552-13.522c4.742-2.032,8.609-5.445,11.215-9.65c1.684-2.719,5.686-2.719,7.371,0
		c2.605,4.205,6.473,7.617,11.215,9.65l31.552,13.522c4.026,1.726,8.129-2.278,6.502-6.345L203.451,487.326z"/>
</g>
<circle style="fill:#F5DCB4;" cx="362.53" cy="57.36" r="8.195"/>
<path style="fill:#E6646E;" d="M329.752,49.168c-2.097,0-4.193-0.8-5.794-2.401l-23.176-23.18c-4.642-4.642-10.82-7.198-17.39-7.198
	H239.61c-4.529,0-8.195-3.669-8.195-8.195S235.081,0,239.611,0h43.782c10.948,0,21.239,4.261,28.977,12l23.176,23.18
	c3.201,3.201,3.201,8.391,0,11.588C333.945,48.368,331.849,49.168,329.752,49.168z"/>
<path style="fill:#4B3F4E;" d="M186.054,44.78c-7.684-7.684-18.106-12.001-28.972-12.001h-32.196l20.778,20.778
	c7.684,7.684,18.106,12.001,28.972,12.001h32.196L186.054,44.78z"/>
<path style="fill:#E6646E;" d="M206.832,73.752c-2.097,0-4.193-0.8-5.794-2.401l-20.775-20.779
	c-6.194-6.19-14.429-9.599-23.184-9.599h-48.584c-4.529,0-8.195-3.669-8.195-8.195c0-4.525,3.665-8.195,8.195-8.195h48.584
	c13.124,0,25.472,5.114,34.771,14.397l20.775,20.783c3.201,3.201,3.201,8.391,0,11.588
	C211.025,72.952,208.929,73.752,206.832,73.752z"/>
<g>
</g>
<g>
</g>
<g>
</g>
<g>
</g>
<g>
</g>
<g>
</g>
<g>
</g>
<g>
</g>
<g>
</g>
<g>
</g>
<g>
</g>
<g>
</g>
<g>
</g>
<g>
</g>
<g>
</g>
</svg>
