<?xml version="1.0" encoding="iso-8859-1"?>
<!-- Generator: Adobe Illustrator 19.0.0, SVG Export Plug-In . SVG Version: 6.00 Build 0)  -->
<svg version="1.1" id="Capa_1" xmlns="http://www.w3.org/2000/svg" xmlns:xlink="http://www.w3.org/1999/xlink" x="0px" y="0px"
	 viewBox="0 0 512.002 512.002" style="enable-background:new 0 0 512.002 512.002;" xml:space="preserve">
<path style="fill:#867E88;" d="M327.785,221.843L168.69,134.586l33.201,66.402c5.577,11.154,15.104,19.836,26.727,24.356
	l98.436,38.28c0.243,0.095,0.488,0.098,0.731,0.184V221.843z"/>
<path style="fill:#6F6571;" d="M264.045,143.039L93.329,75.972l27.502,44.004c9.378,15.004,22.879,26.99,38.888,34.523
	l167.95,79.035C326.463,193.45,301.552,157.774,264.045,143.039z"/>
<path style="fill:#DBD9DC;" d="M503.627,184.827L503.627,184.827c-4.625,0-8.373-3.749-8.373-8.373v-16.747H512v16.747
	C512,181.078,508.251,184.827,503.627,184.827z"/>
<path style="fill:#82C378;" d="M495.253,134.586h-26.557c-4.442,0-8.701-1.764-11.842-4.905l-2.032-2.032
	c-6.281-6.281-14.801-9.81-23.684-9.81h-44.74c-13.874,0-25.12,11.247-25.12,25.12v92.108c0,18.498-14.996,33.494-33.494,33.494H195
	c-22.208,0-43.507,8.822-59.21,24.526l-31.966,31.966c-5.521,5.521-12.691,9.094-20.423,10.177l0,0
	c-16.873,2.364-31.939-10.739-31.939-27.777V168.08l-8.373-16.747h-8.373v155.495c0,15.511,4.886,30.888,14.903,42.731
	c22.928,27.108,56.84,23.824,74.137,3.068l6.055-7.266c13.336-16.002,35.171-22.104,54.871-15.335l0.332,0.114l93.889,32.191
	c15.733,5.394,32.251,8.148,48.884,8.148h39.022c2.853,0,5.707-0.086,8.555-0.259c15.547-0.943,30.384-7.229,41.936-17.946
	c20.723-19.224,26.138-49.972,15.64-76.217l-20.606-51.516c-4.4-11,3.701-22.966,15.549-22.966h0.385v-16.747
	c0-9.249,7.498-16.747,16.747-16.747h58.614c4.625,0,8.373-3.749,8.373-8.373v-8.373C512,142.084,504.502,134.586,495.253,134.586z"
	/>
<path style="fill:#5AB478;" d="M394.772,168.08v8.373c0,13.874,11.247,25.12,25.12,25.12h7.989h0.385v-16.747
	c0-9.249,7.498-16.747,16.747-16.747h58.614c4.625,0,8.373-3.749,8.373-8.373v-8.373H411.519
	C402.27,151.333,394.772,158.831,394.772,168.08z"/>
<path style="fill:#E6646E;" d="M495.253,209.947h-75.361c-18.472,0-33.494-15.026-33.494-33.494c0-4.624,3.745-8.373,8.373-8.373
	s8.373,3.749,8.373,8.373c0,9.236,7.515,16.747,16.747,16.747h75.361c4.628,0,8.373,3.749,8.373,8.373
	S499.881,209.947,495.253,209.947z"/>
<path style="fill:#5D5360;" d="M382.752,105.888l-33.911-20.349c-3.966-2.388-9.118-1.092-11.489,2.87
	c-2.38,3.966-1.096,9.109,2.87,11.489l33.919,20.353c6.509,3.901,13.958,5.961,21.539,5.961v-16.747
	C391.133,109.466,386.66,108.227,382.752,105.888z"/>
<path style="fill:#5AB478;" d="M380.053,302.163c-10.896,1.09-18.775,11.068-18.775,22.019v21.177c0,4.624-3.749,8.373-8.373,8.373
	h-25.12c-14.784,0-29.466-2.447-43.451-7.242l-44.242-15.169c-2.059-0.706-3.05-3.041-2.128-5.013
	c8.518-18.205-0.409-37.593-20.273-40.662c-15.085-2.33-28.834,7.626-31.727,22.071l-14.698,73.361
	c-1.098,5.48-0.337,11.17,2.162,16.169l21.264,42.527l14.981-7.49l-17.043-38.765c-3.395-7.721-0.518-16.761,6.714-21.1l4.949-2.969
	c9.559-5.736,19.82-14.223,24.806-24.194l49.801,17.075c15.733,5.394,32.251,8.148,48.884,8.148h43.303l5.5,5.5
	c6.281,6.281,9.81,14.8,9.81,23.684v36.367h16.747V322.988C403.146,310.715,392.584,300.909,380.053,302.163z"/>
<g>
	<path style="fill:#E6646E;" d="M248.237,444.403c-2.02,0-4.048-0.728-5.659-2.2c-3.075-2.817-8.218-6.174-15.275-6.174
		c-3.966,0-7.752,1.063-11.244,3.16c-5.789,3.463-11.8,5.213-17.867,5.213H181.25c-4.628,0-8.373-3.749-8.373-8.373
		s3.745-8.373,8.373-8.373h16.943c3.001,0,6.117-0.953,9.265-2.833c14.474-8.684,33.674-6.664,46.438,5.033
		c3.41,3.124,3.639,8.422,0.515,11.832C252.759,443.487,250.502,444.403,248.237,444.403z"/>
	<path style="fill:#E6646E;" d="M386.399,109.466c-18.498,0-33.494,14.996-33.494,33.494v92.108c0,13.874-11.247,25.12-25.12,25.12
		H195.006c-24.429,0-47.858,9.704-65.133,26.977L98.832,318.2c-4.784,4.784-10.54,7.866-16.567,8.733
		c-5.569,0.773-11.023-0.887-15.365-4.673c-4.489-3.917-7.065-9.571-7.065-15.516v-124.88c0-14.452-4.252-28.584-12.227-40.637l0,0
		c-7.664-11.583-18.145-21.031-30.459-27.456l-9.397-4.903c-4.584-2.392-9.519,2.544-7.128,7.128l14.699,28.172
		c2.146,4.112,5.901,7.15,10.37,8.39l11.26,3.123c3.626,1.006,6.135,4.306,6.135,8.069v142.188c0,6.674,1.432,13.38,4.778,19.154
		c6.916,11.937,18.921,18.726,31.929,18.726c1.717,0,3.451-0.119,5.193-0.36c9.379-1.345,18.26-5.986,25.684-13.419l31.038-31.034
		c14.135-14.133,33.305-22.073,53.293-22.073h132.781c23.123,0,41.867-18.745,41.867-41.867v-92.108
		c0-9.249,7.498-16.747,16.747-16.747h33.494c4.625,0,8.373-3.749,8.373-8.373l0,0c0-4.625-3.749-8.373-8.373-8.373h-33.493V109.466
		z"/>
</g>
<circle style="fill:#FFFFFF;" cx="436.64" cy="142.96" r="8.373"/>
<path style="fill:#5D5360;" d="M327.785,268.561c-4.628,0-8.373-3.749-8.373-8.373v-23.624c0-38.138-22.937-71.787-58.426-85.734
	L90.271,83.765c-4.309-1.689-6.427-6.55-4.735-10.855c1.685-4.309,6.558-6.419,10.851-4.73l170.715,67.065
	c41.949,16.477,69.056,56.247,69.056,101.319v23.624C336.158,264.812,332.413,268.561,327.785,268.561z"/>
<path style="fill:#E6646E;" d="M440.826,444.403c-2.02,0-4.048-0.728-5.659-2.2c-3.075-2.817-8.218-6.174-15.275-6.174
	c-4.514,0-8.929,1.439-12.781,4.162c-3.909,2.756-8.709,4.211-13.877,4.211h-19.396c-4.628,0-8.373-3.749-8.373-8.373
	s3.745-8.373,8.373-8.373h19.396c1.668,0,3.173-0.409,4.219-1.145c14.809-10.471,35.456-9.089,49.03,3.344
	c3.41,3.124,3.639,8.422,0.515,11.832C445.348,443.487,443.091,444.403,440.826,444.403z"/>
<g>
</g>
<g>
</g>
<g>
</g>
<g>
</g>
<g>
</g>
<g>
</g>
<g>
</g>
<g>
</g>
<g>
</g>
<g>
</g>
<g>
</g>
<g>
</g>
<g>
</g>
<g>
</g>
<g>
</g>
</svg>
