<?xml version="1.0" encoding="iso-8859-1"?>
<!-- Generator: Adobe Illustrator 19.0.0, SVG Export Plug-In . SVG Version: 6.00 Build 0)  -->
<svg version="1.1" id="Capa_1" xmlns="http://www.w3.org/2000/svg" xmlns:xlink="http://www.w3.org/1999/xlink" x="0px" y="0px"
	 viewBox="0 0 512 512" style="enable-background:new 0 0 512 512;" xml:space="preserve">
<path style="fill:#FFE17D;" d="M404.892,90.839L404.892,90.839c-4.561,0-8.258-3.697-8.258-8.258V66.065h16.516v16.516
	C413.15,87.141,409.452,90.839,404.892,90.839z"/>
<path style="fill:#DC8C96;" d="M281.021,49.548L223.765,6.606C218.047,2.318,211.093,0,203.945,0h-5.505
	C130.028,0,74.569,55.459,74.569,123.871l0,0c0,4.561,3.697,8.258,8.258,8.258h66.065V82.581h132.129V49.548z"/>
<path style="fill:#C8798A;" d="M247.518,66.065L152.344,8.959c-6.103,2.451-11.925,5.41-17.503,8.759l80.576,48.347H88.923
	c-2.793,5.28-5.138,10.818-7.155,16.516h67.123H281.02V66.065H247.518z"/>
<path style="fill:#A0AAD7;" d="M384.247,165.161H198.983c-17.024,0-31.703-12.678-33.403-29.617
	c-1.985-19.777,13.49-36.448,32.86-36.448h109.646c2.861,4.916,8.128,8.258,14.225,8.258h16.516V90.839
	c0-9.122,7.395-16.516,16.516-16.516h49.548c4.561,0,8.258-3.697,8.258-8.258v-5.066c0-11.536-7.963-21.546-19.203-24.14
	l-64.011-14.772c-8.982-2.073-17.668,2.323-21.738,9.751c-3.164,5.775-9.132,9.452-15.717,9.452h-97.015
	c-47.847,0-87.54,38.269-87.862,86.115c-0.324,48.161,38.621,87.305,86.707,87.305h184.934c27.203,0,49.99,21.558,50.415,48.758
	c0.433,27.727-21.914,50.339-49.542,50.339H198.44c-91.216,0-165.161,73.945-165.161,165.161v24.774
	c0,4.561,3.697,8.258,8.258,8.258l0,0c13.682,0,24.774-11.092,24.774-24.774l0,0c0-72.973,59.156-132.129,132.129-132.129h183.241
	c49.525,0,91.788-37.176,96.582-86.469C483.736,212.351,439.502,165.161,384.247,165.161z"/>
<path style="fill:#B4667F;" d="M49.795,510.483v-31.515c0-82.094,66.551-148.645,148.645-148.645h180.749
	c34.586,0,64.058-26.246,66.781-60.725c3.067-38.827-27.66-71.404-65.853-71.404H195.148c-37.167,0-68.559-28.592-70.889-65.686
	c-2.559-40.738,29.854-74.702,70.052-74.702h86.71c4.561,0,8.258-3.697,8.258-8.258l0,0c0-4.561-3.697-8.258-8.258-8.258h-85.107
	c-49.087,0-87.424,37.35-88.298,85.085c-0.89,48.632,38.266,88.335,86.695,88.335h184.934c27.203,0,49.99,21.558,50.414,48.758
	c0.432,27.727-21.914,50.339-49.542,50.339H198.44c-91.216,0-165.161,73.945-165.161,165.161v24.774
	c0,4.561,3.697,8.258,8.258,8.258l0,0C44.448,512,47.2,511.405,49.795,510.483z"/>
<path style="fill:#8291D7;" d="M388.376,115.613h-58.774c-17.798,0-33.54-11.343-39.169-28.23l-3.492-10.464
	c-1.435-4.327,0.903-9.004,5.226-10.444c4.371-1.456,9.008,0.899,10.452,5.226l3.484,10.46c3.379,10.129,12.823,16.935,23.5,16.935
	h58.774c4.565,0,8.258,3.698,8.258,8.258C396.634,111.915,392.94,115.613,388.376,115.613z"/>
<circle style="fill:#FFD164;" cx="347.08" cy="49.548" r="8.258"/>
<g>
</g>
<g>
</g>
<g>
</g>
<g>
</g>
<g>
</g>
<g>
</g>
<g>
</g>
<g>
</g>
<g>
</g>
<g>
</g>
<g>
</g>
<g>
</g>
<g>
</g>
<g>
</g>
<g>
</g>
</svg>
