<?xml version="1.0" encoding="iso-8859-1"?>
<!-- Generator: Adobe Illustrator 19.0.0, SVG Export Plug-In . SVG Version: 6.00 Build 0)  -->
<svg version="1.1" id="Capa_1" xmlns="http://www.w3.org/2000/svg" xmlns:xlink="http://www.w3.org/1999/xlink" x="0px" y="0px"
	 viewBox="0 0 512.001 512.001" style="enable-background:new 0 0 512.001 512.001;" xml:space="preserve">
<g>
	<path style="fill:#FFB464;" d="M495.746,109.718h-9.521c-4.311,0-8.445-1.713-11.494-4.761l-1.971-1.972
		c-6.096-6.096-14.364-9.521-22.985-9.521h-35.298v73.142h32.508v-8.127c0-8.977,7.277-16.254,16.254-16.254h40.635
		c4.488,0,8.127-3.639,8.127-8.127v-8.127C512,116.995,504.723,109.718,495.746,109.718z"/>
	<path style="fill:#FFB464;" d="M463.424,313.447l-27.555-82.664c-3.403-10.21-5.138-20.901-5.138-31.663v-0.006
		c0-12.002,6.577-22.368,16.254-27.999V93.464H406.35c-13.465,0-24.381,10.916-24.381,24.381v138.158
		c0,13.465-10.916,24.381-24.381,24.381H211.303c-44.884,0-81.269,36.386-81.269,81.269v22.336c0,26.7-20.574,49.983-47.262,50.783
		c-27.615,0.829-50.261-21.31-50.261-48.739v-82.167c0-11.357-2.644-22.559-7.722-32.717L15.4,252.368
		c-2.008-4.02-6.889-5.647-10.905-3.635c-4.016,2.008-5.643,6.889-3.635,10.905l9.389,18.782c3.951,7.904,6.008,16.619,6.008,25.455
		v75.452c0,41.121,31.031,77.027,72.067,79.684c44.966,2.911,82.345-32.699,82.345-77.039v-3.845
		c0-22.563,18.291-40.853,40.853-40.853l0,0l64.847,10.12c9.646,2.445,18.673,7.09,26.338,13.659l20.366,17.457
		c11.784,10.101,26.792,15.653,42.313,15.653h38.991c6.467,0,12.668-2.569,17.241-7.141l31.99-31.989
		C464.491,344.147,468.291,328.049,463.424,313.447z"/>
</g>
<path style="fill:#6F6571;" d="M398.223,296.637V117.845c0-4.488,3.639-8.127,8.127-8.127h32.508V93.464H406.35
	c-13.465,0-24.381,10.916-24.381,24.381v162.539H211.303c-44.884,0-81.269,36.386-81.269,81.269v22.336
	c0,26.7-20.574,49.983-47.262,50.784c-27.615,0.829-50.261-21.31-50.261-48.739v-82.167c0-11.357-2.644-22.559-7.722-32.717
	L15.4,252.368c-2.008-4.02-6.889-5.647-10.905-3.635c-4.016,2.008-5.643,6.889-3.635,10.905l0.215,0.43
	c0.002,0.004,0.007,0.012,0.01,0.016l9.165,18.334c0.475,0.949,0.834,1.95,1.254,2.926c2.979,6.901,4.619,14.301,4.712,21.833
	c0.003,0.231,0.041,0.46,0.041,0.691v0.007v78.096c0,15.955,4.843,30.778,13.135,43.084c12.792,16.964,33.623,27.543,56.828,25.81
	c34.308-2.563,60.068-32.703,60.068-67.107v-22.104c0-35.907,29.108-65.016,65.015-65.016h186.92V296.637z"/>
<path style="fill:#867E88;" d="M438.858,109.723h-14.786c-7.532,0-15.071-1.782-21.809-5.147l-56.436-28.218
	c-4.016-2.008-5.643-6.889-3.635-10.905c2.016-4.02,6.897-5.647,10.905-3.635l56.436,28.218c4.492,2.246,9.516,3.433,14.54,3.433
	h14.786c4.492,0,8.127,3.639,8.127,8.127S443.35,109.723,438.858,109.723z"/>
<path style="fill:#FF8C69;" d="M495.746,174.733h-56.889c-17.928,0-32.508-14.583-32.508-32.508c0-4.488,3.635-8.127,8.127-8.127
	s8.127,3.639,8.127,8.127c0,8.964,7.294,16.254,16.254,16.254h56.889c4.492,0,8.127,3.639,8.127,8.127
	S500.238,174.733,495.746,174.733z"/>
<path style="fill:#9C969E;" d="M327.858,230.007c-11.999-9.23-19.031-23.511-19.031-38.65v-65.386L8.13,20.322
	c0,0,94.984,61.46,99.555,127.999c72.465,19.979,70.095,85.333,70.095,85.333s86.648-16.079,164.451,48.93
	c10.565,8.827,23.667,14.054,37.434,14.054h34.811L327.858,230.007z"/>
<g>
	<path style="fill:#6F6571;" d="M170.677,247.876c-2.349,0-4.675-1.008-6.278-2.96c-2.857-3.464-2.365-8.587,1.103-11.44
		l116.904-96.273L98.455,158.428c-4.373,0.528-8.492-2.683-9-7.143c-0.516-4.46,2.683-8.492,7.143-9.008l211.3-24.381
		c3.556-0.421,6.992,1.583,8.405,4.897c1.413,3.313,0.468,7.163-2.31,9.452L175.835,246.023
		C174.32,247.269,172.494,247.876,170.677,247.876z"/>
	<path style="fill:#6F6571;" d="M332.811,223.566c-9.998-7.691-15.857-19.59-15.857-32.204v-65.391c0-3.448-2.175-6.524-5.436-7.667
		L10.821,12.655c-4.23-1.492-8.873,0.734-10.357,4.972C-1.028,21.861,1.202,26.5,5.44,27.988L300.7,131.73v59.619
		c0,17.665,8.205,34.328,22.206,45.098l80.178,61.676c3.557,2.736,8.658,2.07,11.394-1.487l0,0
		c2.735-3.556,2.069-8.656-1.487-11.392L332.811,223.566z"/>
</g>
<path style="fill:#FF8C69;" d="M405.038,337.306c-13.183,0.69-23.069,12.524-23.069,25.726v6.747c0,4.488-3.639,8.127-8.127,8.127
	h-8.456c-11.64,0-22.897-4.164-31.735-11.74l-20.367-17.457c-5.316-4.557-16.365-11.538-27.171-17.326
	c-5.3-2.839-9.795-7.279-11.78-12.954c-4.383-12.526-16.171-21.554-30.193-21.655l-0.774-0.005
	c-16.787-0.119-31.374,12.571-32.5,29.32c-0.571,8.493,1.115,17.344,5.547,25.767l36.679,69.691
	c2.04,3.875,0.642,8.669-3.159,10.841l-22.25,12.715c-10.128,5.788-16.379,16.559-16.379,28.224v18.358h16.254v-18.357
	c0-5.817,3.143-11.226,8.19-14.115l32.699-19.678c4.885-2.94,7.872-8.225,7.872-13.926v-78.224l0.05,0.008
	c9.646,2.445,18.673,7.09,26.338,13.659l20.366,17.457c11.784,10.101,26.793,15.653,42.314,15.653h16.582v97.523h16.254v-51.548
	c0-8.622,3.425-16.891,9.522-22.988l13.464-13.466c6.097-6.097,9.522-14.366,9.522-22.987v-19.041
	C430.731,347.753,419.1,336.57,405.038,337.306z"/>
<g>
	<path style="fill:#FFB464;" d="M434.794,499.811c-1.96,0-3.929-0.706-5.492-2.135c-2.984-2.734-7.976-5.992-14.825-5.992
		c-4.381,0-8.667,1.397-12.405,4.04c-3.794,2.675-8.452,4.087-13.468,4.087h-18.825c-4.492,0-8.127-3.639-8.127-8.127
		s3.635-8.127,8.127-8.127h18.825c1.619,0,3.079-0.397,4.095-1.111c14.373-10.171,34.413-8.821,47.587,3.246
		c3.309,3.032,3.532,8.175,0.5,11.484C439.183,498.922,436.993,499.811,434.794,499.811z"/>
	<path style="fill:#FFB464;" d="M264.128,499.811c-1.96,0-3.929-0.706-5.492-2.135c-2.984-2.734-7.976-5.992-14.825-5.992
		c-4.381,0-8.667,1.397-12.405,4.04c-3.794,2.675-8.452,4.087-13.468,4.087h-18.825c-4.492,0-8.127-3.639-8.127-8.127
		s3.635-8.127,8.127-8.127h18.825c1.619,0,3.079-0.397,4.095-1.111c14.373-10.171,34.412-8.821,47.587,3.246
		c3.31,3.032,3.532,8.175,0.5,11.484C268.517,498.922,266.327,499.811,264.128,499.811z"/>
</g>
<circle style="fill:#FFFFFF;" cx="455.11" cy="117.841" r="8.127"/>
<g>
</g>
<g>
</g>
<g>
</g>
<g>
</g>
<g>
</g>
<g>
</g>
<g>
</g>
<g>
</g>
<g>
</g>
<g>
</g>
<g>
</g>
<g>
</g>
<g>
</g>
<g>
</g>
<g>
</g>
</svg>
