<?xml version="1.0" encoding="iso-8859-1"?>
<!-- Generator: Adobe Illustrator 19.0.0, SVG Export Plug-In . SVG Version: 6.00 Build 0)  -->
<svg version="1.1" id="Capa_1" xmlns="http://www.w3.org/2000/svg" xmlns:xlink="http://www.w3.org/1999/xlink" x="0px" y="0px"
	 viewBox="0 0 512 512" style="enable-background:new 0 0 512 512;" xml:space="preserve">
<path style="fill:#FFE17D;" d="M256.984,5.746l-3.365-3.365c-3.175-3.175-8.317-3.175-11.492,0s-3.175,8.317,0,11.492l3.365,3.365
	c1.532,1.536,2.381,3.579,2.381,5.75v1.393c0,22.405-18.23,40.635-40.635,40.635h-93.46c-38.152,0-69.079,30.928-69.079,69.079
	s30.928,69.079,69.079,69.079h28.444l36.624-36.624c-7.687-2.565-15.884-4.011-24.434-4.011h-36.571
	c-13.465,0-24.381-10.916-24.381-24.381s10.916-24.381,24.381-24.381h55.089c4.463,4.954,10.861,8.127,18.054,8.127h16.254V105.65
	c0-4.489,3.638-8.127,8.127-8.127h32.508c8.977,0,16.254-7.277,16.254-16.254V22.988C264.127,16.476,261.587,10.349,256.984,5.746z"
	/>
<g>
	<path style="fill:#FFD164;" d="M116.143,211.302h17.952l16.254-16.254h-34.206c-33.365,0-61.119-24.984-63.183-56.877
		c-1.103-17.083,4.698-33.329,16.341-45.754c11.651-12.429,27.444-19.274,44.476-19.274h69.079
		c17.929,0,32.508-14.583,32.508-32.508c0-4.488-3.635-8.127-8.127-8.127s-8.127,3.639-8.127,8.127
		c0,8.964-7.294,16.254-16.254,16.254h-69.079c-21.262,0-41.794,8.897-56.333,24.413c-14.754,15.734-22.103,36.306-20.706,57.917
		C39.349,179.639,74.23,211.302,116.143,211.302z"/>
	<path style="fill:#FFD164;" d="M247.873,138.159c-4.492,0-8.127-3.639-8.127-8.127h-48.762c-17.929,0-32.508-14.583-32.508-32.508
		c0-4.488,3.635-8.127,8.127-8.127s8.127,3.639,8.127,8.127c0,8.964,7.294,16.254,16.254,16.254h48.762
		c8.96,0,16.254,7.29,16.254,16.254C256,134.52,252.365,138.159,247.873,138.159z"/>
</g>
<circle style="fill:#FFFFFF;" cx="199.11" cy="81.27" r="8.127"/>
<rect x="117.84" y="56.889" style="fill:#E6646E;" width="24.381" height="56.889"/>
<rect x="117.84" y="56.889" style="fill:#DC4655;" width="24.381" height="16.254"/>
<path style="fill:#FFE17D;" d="M468.287,200.794l-3.365-3.365c-3.175-3.175-8.317-3.175-11.492,0c-3.175,3.175-3.175,8.317,0,11.492
	l3.365,3.365c1.532,1.536,2.381,3.579,2.381,5.75v1.393c0,22.405-18.23,40.635-40.635,40.635H247.873v48.762h136.361
	c4.463,4.954,10.861,8.127,18.054,8.127h16.254v-16.254c0-4.489,3.638-8.127,8.127-8.127h32.508c8.977,0,16.254-7.277,16.254-16.254
	v-58.282C475.43,211.524,472.89,205.397,468.287,200.794z"/>
<path style="fill:#FFD164;" d="M459.176,333.206c-4.492,0-8.127-3.639-8.127-8.127h-48.762c-17.929,0-32.508-14.583-32.508-32.508
	c0-4.488,3.635-8.127,8.127-8.127s8.127,3.639,8.127,8.127c0,8.964,7.294,16.254,16.254,16.254h48.762
	c8.96,0,16.254,7.29,16.254,16.254C467.303,329.567,463.668,333.206,459.176,333.206z"/>
<circle style="fill:#FFFFFF;" cx="410.41" cy="276.32" r="8.127"/>
<rect x="329.14" y="251.94" style="fill:#E6646E;" width="24.381" height="56.889"/>
<path style="fill:#FFD164;" d="M418.541,227.556c-4.492,0-8.127,3.639-8.127,8.127c0,8.964-7.294,16.254-16.254,16.254H166.603
	v16.254H394.16c17.929,0,32.508-14.583,32.508-32.508C426.668,231.194,423.033,227.556,418.541,227.556z"/>
<rect x="329.14" y="251.94" style="fill:#DC4655;" width="24.381" height="16.254"/>
<path style="fill:#FFE17D;" d="M362.635,103.27l-3.365-3.365c-3.175-3.175-8.317-3.175-11.492,0c-3.175,3.175-3.175,8.317,0,11.492
	l3.365,3.365c1.532,1.536,2.381,3.579,2.381,5.75v1.393c0,22.405-18.23,40.635-40.635,40.635H197.418
	c-38.152,0-69.079,30.928-69.079,69.079s30.928,69.079,69.079,69.079H256c22.442,0,40.635,18.193,40.635,40.635
	c0,22.442-18.193,40.635-40.635,40.635H125.968c-44.884,0-81.27,36.385-81.27,81.27v40.635c17.954,0,32.508-14.555,32.508-32.508
	v-8.127c0-26.931,21.831-48.762,48.762-48.762h134.095c42.64,0,77.206-34.566,77.206-77.206s-34.566-77.206-77.206-77.206h-58.582
	c-13.465,0-24.381-10.916-24.381-24.381s10.916-24.381,24.381-24.381h77.1c4.463,4.954,10.861,8.127,18.054,8.127h16.254v-16.254
	c0-4.489,3.638-8.127,8.127-8.127h32.508c8.977,0,16.254-7.277,16.254-16.254v-58.282C369.778,114,367.238,107.873,362.635,103.27z"
	/>
<g>
	<path style="fill:#FFD164;" d="M353.524,235.683c-4.492,0-8.127-3.639-8.127-8.127h-48.762c-17.929,0-32.508-14.583-32.508-32.508
		c0-4.488,3.635-8.127,8.127-8.127s8.127,3.639,8.127,8.127c0,8.964,7.294,16.254,16.254,16.254h48.762
		c8.96,0,16.254,7.29,16.254,16.254C361.651,232.044,358.016,235.683,353.524,235.683z"/>
	<path style="fill:#FFD164;" d="M44.698,512c-4.492,0-8.127-3.639-8.127-8.127v-40.635c0-49.294,40.103-89.397,89.397-89.397
		h128.286c17.556,0,32.532-12.865,34.103-29.29c0.881-9.313-2.063-18.222-8.294-25.079c-6.159-6.766-14.921-10.647-24.063-10.647
		h-56.214c-41.905,0-76.794-31.663-79.413-72.079c-1.397-21.615,5.952-42.183,20.706-57.917
		c14.548-15.516,35.079-24.417,56.341-24.417h91.087c8.96,0,16.254-7.29,16.254-16.254c0-4.488,3.635-8.127,8.127-8.127
		s8.127,3.639,8.127,8.127c0,17.925-14.579,32.508-32.508,32.508H197.42c-17.032,0-32.833,6.845-44.484,19.278
		c-11.643,12.425-17.444,28.671-16.341,45.75c2.063,31.893,29.825,56.877,63.19,56.877H256c13.706,0,26.857,5.817,36.087,15.964
		c9.222,10.139,13.754,23.829,12.444,37.56c-2.349,24.675-24.437,44-50.278,44H125.968c-40.333,0-73.143,32.813-73.143,73.143
		v40.635C52.825,508.361,49.19,512,44.698,512z"/>
</g>
<circle style="fill:#FFFFFF;" cx="304.76" cy="178.79" r="8.127"/>
<rect x="199.11" y="154.41" style="fill:#E6646E;" width="16.254" height="56.889"/>
<rect x="199.11" y="154.41" style="fill:#DC4655;" width="16.254" height="16.254"/>
<rect x="231.62" y="154.41" style="fill:#E6646E;" width="16.254" height="56.889"/>
<rect x="231.62" y="154.41" style="fill:#DC4655;" width="16.254" height="16.254"/>
<rect x="215.37" y="154.41" style="fill:#FF8087;" width="16.254" height="56.889"/>
<rect x="215.37" y="154.41" style="fill:#E6646E;" width="16.254" height="16.254"/>
<g>
</g>
<g>
</g>
<g>
</g>
<g>
</g>
<g>
</g>
<g>
</g>
<g>
</g>
<g>
</g>
<g>
</g>
<g>
</g>
<g>
</g>
<g>
</g>
<g>
</g>
<g>
</g>
<g>
</g>
</svg>
