<?xml version="1.0" encoding="iso-8859-1"?>
<!-- Generator: Adobe Illustrator 19.0.0, SVG Export Plug-In . SVG Version: 6.00 Build 0)  -->
<svg version="1.1" id="Capa_1" xmlns="http://www.w3.org/2000/svg" xmlns:xlink="http://www.w3.org/1999/xlink" x="0px" y="0px"
	 viewBox="0 0 512 512" style="enable-background:new 0 0 512 512;" xml:space="preserve">
<g>
	<path style="fill:#C1CA6E;" d="M300.7,186.921l-0.179-32.92c2.125-21.799-15.022-40.222-36.393-40.222h-8.127
		c-15.709,0-28.444-12.735-28.444-28.444V40.636c-13.465,0-24.381,10.916-24.381,24.381v20.317
		c0,29.174,23.651,52.825,52.825,52.825h8.127c6.722,0,12.19,5.468,12.19,12.19v36.571H300.7V186.921z"/>
	<path style="fill:#C1CA6E;" d="M459.175,251.937h-8.127c-15.709,0-28.444-12.735-28.444-28.444v-44.698
		c-13.465,0-24.381,10.916-24.381,24.381v20.317c0,29.174,23.651,52.825,52.825,52.825h8.127c6.722,0,12.19,5.468,12.19,12.19
		c0,6.722-5.468,12.19-12.19,12.19H333.207v48.762h73.142v-8.127c0-8.977,7.277-16.254,16.254-16.254h34.943
		c19.09,0,36.168-13.92,38.021-32.92C497.693,270.36,480.546,251.937,459.175,251.937z"/>
	<path style="fill:#C1CA6E;" d="M341.334,284.444h-20.317c-6.73,0-12.19-5.456-12.19-12.19s5.46-12.19,12.19-12.19h20.317
		c8.977,0,16.254-7.277,16.254-16.254v-35.682c0-10.062-1.624-20.059-4.809-29.604l-5.387-16.146
		c-4.012-12.026-6.058-24.62-6.058-37.297V97.525c0-8.977,7.277-16.254,16.254-16.254h8.127v43.809
		c0,10.062,1.624,20.059,4.809,29.604l5.398,16.177c4.005,12.005,6.048,24.577,6.048,37.232v35.716
		C381.969,266.251,363.776,284.444,341.334,284.444z"/>
</g>
<path style="fill:#82C378;" d="M385.526,322.032c0,0-9.847-6.689-20.065-13.717c-14.892-10.242-32.533-15.744-50.607-15.744
	l-38.533-16.254l0,0c-10.408,10.407-24.525,16.254-39.243,16.254H219.43c-44.884,0-81.269,36.386-81.269,81.269v12.262
	c0,28.58-22.759,51.961-51.328,52.732l-0.586,0.016c-24.987,0.674-45.609-19.398-45.609-44.394V268.19H24.384v126.772
	c0,42.17,34.232,76.331,76.401,76.243l0,0c42.6,2.757,78.01-30.978,78.01-72.984c0-1.41,0.072-2.803,0.212-4.176
	c2.605-25.514,30.345-40.49,54.157-30.966l82.012,32.805c17.28,6.912,35.72,10.463,54.331,10.463h44.969v-30.221
	C414.477,354.39,403.613,334.09,385.526,322.032z"/>
<path style="fill:#FFE17D;" d="M333.207,276.317l-16.254-48.762L65.019,130.033l54.625,78.696
	c12.016,17.49,29.41,30.584,49.541,37.295l178.975,60.865L333.207,276.317z"/>
<path style="fill:#5AB478;" d="M369.508,390.094c-16.543,0-32.934-3.157-48.293-9.3l-81.186-32.474
	c-4.619-1.848-9.432-3.296-14.368-3.913c-31.979-3.997-59.761,17.991-62.823,47.991c-0.196,1.925-0.296,3.884-0.296,5.824
	c0,31.368-25.52,56.888-56.889,56.888c-1.263,0-2.537-0.041-3.818-0.124l-0.686-0.034h-0.525c-33.129,0-59.986-26.857-59.986-59.986
	v-0.727V286.167c0-3.664,3.393-6.386,6.97-5.591l3.659,0.813c5.511,1.225,9.976-4.494,7.451-9.544l-20.661-41.322
	c-2.286-4.571-8.809-4.571-11.094,0l-20.66,41.322c-2.525,5.05,1.94,10.768,7.451,9.544l3.659-0.813
	c3.577-0.795,6.97,1.927,6.97,5.591v108.796c0,42.169,34.231,76.33,76.401,76.243c42.6,2.757,78.01-30.978,78.01-72.984
	c0-1.41,0.072-2.803,0.212-4.176c2.605-25.514,30.345-40.49,54.157-30.966l82.012,32.805c17.28,6.912,35.72,10.463,54.332,10.463
	h44.968v-16.254H369.508z"/>
<path style="fill:#9EDF82;" d="M395.493,374.063c-7.991,1.3-13.524,8.804-13.524,16.901v10.046c0,8.622,3.425,16.89,9.521,22.986
	l0,0c4.311,4.311,6.733,10.158,6.733,16.254v47.367h16.254v-97.523C414.477,380.222,405.676,372.406,395.493,374.063z"/>
<path style="fill:#82C378;" d="M455.111,495.745c-1.96,0-3.929-0.706-5.492-2.135c-2.984-2.734-7.976-5.992-14.825-5.992
	c-4.381,0-8.667,1.397-12.405,4.04c-3.794,2.675-8.452,4.087-13.468,4.087h-18.825c-4.492,0-8.127-3.639-8.127-8.127
	s3.635-8.127,8.127-8.127h18.825c1.619,0,3.079-0.397,4.095-1.111c14.373-10.171,34.42-8.821,47.587,3.246
	c3.309,3.032,3.532,8.175,0.5,11.484C459.5,494.856,457.309,495.745,455.111,495.745z"/>
<path style="fill:#9EDF82;" d="M259.89,341.95c-14.285-9.134-30.386-1.823-34.755,14.56l-16.232,60.869
	c-1.195,4.482-3.336,8.657-6.279,12.243l-0.997,1.215c-4.012,4.89-4.823,11.664-2.078,17.363l20.737,43.052
	c1.429,2.849,4.294,4.492,7.278,4.492c1.222,0,2.46-0.274,3.627-0.857c4.016-2.008,5.643-6.889,3.635-10.905l-14.041-30.272
	c-5.245-11.308-1.115-24.751,9.574-31.165l0.702-0.421c8.359-5.015,15.288-12.094,20.125-20.557l16.415-28.726
	C273.58,362.38,270.567,348.776,259.89,341.95z"/>
<path style="fill:#82C378;" d="M272.255,495.745c-1.96,0-3.929-0.706-5.492-2.135c-2.984-2.734-7.976-5.992-14.825-5.992
	c-4.381,0-8.667,1.397-12.405,4.04c-3.794,2.675-8.452,4.087-13.468,4.087H207.24c-4.492,0-8.127-3.639-8.127-8.127
	s3.635-8.127,8.127-8.127h18.825c1.619,0,3.079-0.397,4.095-1.111c14.373-10.171,34.42-8.821,47.587,3.246
	c3.31,3.032,3.532,8.175,0.5,11.484C276.644,494.856,274.453,495.745,272.255,495.745z"/>
<path style="fill:#FFD164;" d="M272.983,171.879L8.13,81.271l30.917,46.376c11.589,17.383,28.454,30.586,48.111,37.662
	l231.892,85.894c-1.32-5.79-2.097-11.742-2.097-17.81C316.954,205.597,299.283,180.875,272.983,171.879z"/>
<g>
	<path style="fill:#9EDF82;" d="M352.66,308.254c-1.548,0-3.111-0.44-4.5-1.365c-24.627-16.421-39.333-43.893-39.333-73.496
		c0-24.317-15.46-45.948-38.476-53.825L5.503,88.961C1.249,87.509-1.013,82.886,0.44,78.64c1.46-4.246,6.111-6.508,10.317-5.059
		l264.855,90.607c29.587,10.127,49.468,37.94,49.468,69.206c0,24.155,12,46.575,32.095,59.972c3.738,2.488,4.746,7.536,2.254,11.27
		C357.866,306.984,355.287,308.254,352.66,308.254z"/>
	<path style="fill:#9EDF82;" d="M487.619,170.667h-59.677c-1.806,0-3.58-0.235-5.338-0.528v33.036
		c0,13.465,10.916,24.381,24.381,24.381h8.127v-8.127c0-8.977,7.277-16.254,16.254-16.254h32.508c4.551,0,8.162-3.77,8.126-8.322
		C511.895,181.478,501.019,170.667,487.619,170.667z"/>
</g>
<path style="fill:#5AB478;" d="M503.873,243.81c-4.492,0-8.127-3.639-8.127-8.127h-48.762c-17.928,0-32.508-14.583-32.508-32.508
	c0-4.488,3.635-8.127,8.127-8.127s8.127,3.639,8.127,8.127c0,8.964,7.294,16.254,16.254,16.254h48.762
	c8.96,0,16.254,7.29,16.254,16.254C512,240.171,508.365,243.81,503.873,243.81z"/>
<g>
	<path style="fill:#FFD164;" d="M427.945,170.667c-6.474,0-12.683-2.573-17.259-7.152l-6.717-6.721
		c-3.175-3.175-8.317-3.171-11.492-0.004c-3.175,3.175-3.175,8.321,0,11.496l6.717,6.721c7.624,7.628,17.967,11.914,28.751,11.914
		h10.913c4.488,0,8.127-3.639,8.127-8.127l0,0c0-4.488-3.639-8.127-8.127-8.127L427.945,170.667L427.945,170.667z"/>
	<circle style="fill:#FFD164;" cx="463.24" cy="186.92" r="8.127"/>
</g>
<path style="fill:#9EDF82;" d="M430.731,73.143h-59.677c-1.806,0-3.58-0.235-5.338-0.528v33.036
	c0,13.465,10.916,24.381,24.381,24.381h8.127v-8.127c0-8.977,7.277-16.254,16.254-16.254h32.508c4.551,0,8.162-3.77,8.126-8.322
	C455.006,83.954,444.131,73.143,430.731,73.143z"/>
<path style="fill:#5AB478;" d="M446.985,146.285c-4.492,0-8.127-3.639-8.127-8.127h-48.762c-17.928,0-32.508-14.583-32.508-32.508
	c0-4.488,3.635-8.127,8.127-8.127s8.127,3.639,8.127,8.127c0,8.964,7.294,16.254,16.254,16.254h48.762
	c8.96,0,16.254,7.29,16.254,16.254C455.111,142.647,451.477,146.285,446.985,146.285z"/>
<g>
	<path style="fill:#FFD164;" d="M371.056,73.143c-6.474,0-12.683-2.573-17.259-7.152l-6.717-6.721
		c-3.175-3.175-8.317-3.171-11.492-0.004c-3.175,3.175-3.175,8.321,0,11.496l6.717,6.721c7.624,7.628,17.967,11.914,28.751,11.914
		h10.913c4.488,0,8.127-3.639,8.127-8.127l0,0c0-4.488-3.639-8.127-8.127-8.127H371.056z"/>
	<circle style="fill:#FFD164;" cx="406.35" cy="89.4" r="8.127"/>
</g>
<path style="fill:#9EDF82;" d="M292.573,32.508h-59.677c-1.806,0-3.58-0.235-5.338-0.528v33.036
	c0,13.465,10.916,24.381,24.381,24.381h8.127V81.27c0-8.977,7.277-16.254,16.254-16.254h32.508c4.551,0,8.162-3.77,8.126-8.322
	C316.848,43.319,305.973,32.508,292.573,32.508z"/>
<path style="fill:#5AB478;" d="M308.827,105.651c-4.492,0-8.127-3.639-8.127-8.127h-48.762c-17.928,0-32.508-14.583-32.508-32.508
	c0-4.488,3.635-8.127,8.127-8.127s8.127,3.639,8.127,8.127c0,8.964,7.294,16.254,16.254,16.254H300.7
	c8.96,0,16.254,7.29,16.254,16.254C316.954,102.012,313.319,105.651,308.827,105.651z"/>
<g>
	<path style="fill:#FFD164;" d="M232.899,32.508c-6.474,0-12.683-2.573-17.259-7.152l-6.717-6.721
		c-3.175-3.175-8.317-3.171-11.492-0.004c-3.175,3.175-3.175,8.321,0,11.496l6.717,6.721c7.624,7.628,17.967,11.914,28.751,11.914
		h10.913c4.488,0,8.127-3.639,8.127-8.127l0,0c0-4.488-3.639-8.127-8.127-8.127C243.812,32.508,232.899,32.508,232.899,32.508z"/>
	<circle style="fill:#FFD164;" cx="268.19" cy="48.762" r="8.127"/>
</g>
<g>
</g>
<g>
</g>
<g>
</g>
<g>
</g>
<g>
</g>
<g>
</g>
<g>
</g>
<g>
</g>
<g>
</g>
<g>
</g>
<g>
</g>
<g>
</g>
<g>
</g>
<g>
</g>
<g>
</g>
</svg>
