<?xml version="1.0" encoding="iso-8859-1"?>
<!-- Generator: Adobe Illustrator 19.0.0, SVG Export Plug-In . SVG Version: 6.00 Build 0)  -->
<svg version="1.1" id="Capa_1" xmlns="http://www.w3.org/2000/svg" xmlns:xlink="http://www.w3.org/1999/xlink" x="0px" y="0px"
	 viewBox="0 0 512 512" style="enable-background:new 0 0 512 512;" xml:space="preserve">
<path style="fill:#FFEDB1;" d="M503.819,149.877L503.819,149.877c-4.508,0-8.163-3.655-8.163-8.163v-16.326h16.326v16.326
	C511.983,146.223,508.328,149.877,503.819,149.877z"/>
<path style="fill:#FFD164;" d="M338.797,231.418L169.05,173.347l31.056,46.583c11.641,17.461,28.581,30.722,48.326,37.831
	l207.023,74.293L338.797,231.418z"/>
<path style="fill:#FFB464;" d="M329.644,220.235c-11.997-9.29-14.151-26.313-9.812-40.642L89.799,100.898l31.056,46.583
	c11.641,17.461,28.581,30.722,48.326,37.831l210.423,75.513L329.644,220.235z"/>
<path style="fill:#FF8C69;" d="M274.202,110.278L8.167,19.265l31.055,46.584C50.863,83.31,67.803,96.571,87.548,103.68
	l230.821,82.834v-14.446C318.37,144.147,300.62,119.315,274.202,110.278z"/>
<path style="fill:#FFB464;" d="M212.248,280.489c-45.084,0-81.632,36.548-81.632,81.632v10.218c0,28.993-22.381,54.152-51.36,55.061
	c-0.196,0.006-0.394,0.012-0.591,0.018c-25.21,0.754-46.007-19.648-46.007-44.87v-69.407H16.33v67.724
	c0,43.749,35.465,79.214,79.214,79.214h7.843c39.513,0,68.599-33.379,68.049-72.888c-0.317-22.808,18.077-41.397,40.812-41.397
	h57.143l8.163-65.306L212.248,280.489L212.248,280.489z"/>
<path style="fill:#FFD164;" d="M437.817,230.667c-3.419-10.257-5.162-20.997-5.162-31.809v-0.001
	c0-12.065,6.595-22.518,16.327-28.171v-20.808c0-9.017,7.31-16.326,16.326-16.326h38.525c5.311,0,9.207-4.991,7.92-10.143
	l-0.815-3.261c-2.956-11.827-12.254-21.022-24.114-23.845L355.507,65.037c-7.31-1.74-12.911,6.456-8.634,12.634l29.545,42.676
	c4.726,6.826,7.258,14.931,7.258,23.233v112.419c0,13.525-10.964,24.49-24.49,24.49H269.39c-31.559,0-57.143,25.584-57.143,57.143
	v155.102h16.326v-55.163c0-6.495,2.58-12.724,7.173-17.317l15.916-15.915c6.124-6.124,9.564-14.429,9.564-23.09v-26.648
	c0-4.937,4.363-8.844,9.251-8.152c12.324,1.744,24.099,6.94,33.582,15.069l20.457,17.535c11.837,10.145,26.912,15.722,42.501,15.722
	h29.022c12.99,0,25.448-5.16,34.633-14.345l24.96-24.96c10.932-10.932,14.749-27.102,9.86-41.768L437.817,230.667z"/>
<path style="fill:#FFB464;" d="M240.791,316.196L240.791,316.196c-14.048-3.512-28.47,6.664-28.542,21.144
	c0,0.097-0.001,0.194-0.001,0.292v155.102h16.326v-55.162c0-6.495,2.58-12.725,7.173-17.317l15.916-15.915
	c6.124-6.124,9.564-14.429,9.564-23.09v-38.878C261.227,329.991,252.801,319.199,240.791,316.196z"/>
<path style="fill:#FFD164;" d="M265.309,500.897c-1.969,0-3.946-0.71-5.517-2.144c-2.997-2.746-8.012-6.019-14.892-6.019
	c-4.4,0-8.705,1.403-12.46,4.058c-3.811,2.687-8.49,4.106-13.528,4.106h-18.909c-4.512,0-8.163-3.655-8.163-8.163
	s3.651-8.163,8.163-8.163h18.909c1.626,0,3.093-0.399,4.114-1.116c14.437-10.212,34.566-8.865,47.8,3.261
	c3.324,3.045,3.548,8.211,0.502,11.535C269.717,500.004,267.517,500.897,265.309,500.897z"/>
<path style="fill:#FFB464;" d="M383.676,379.773v112.961h16.326v-55.162c0-6.495,2.58-12.724,7.173-17.317l15.916-15.916
	c6.124-6.124,9.564-14.43,9.564-23.091v-1.475c0-16.716-16.376-28.519-32.234-23.233l0,0
	C390.421,359.873,383.676,369.232,383.676,379.773z"/>
<path style="fill:#FFD164;" d="M436.737,500.897c-1.969,0-3.946-0.71-5.517-2.144c-2.997-2.746-8.012-6.019-14.892-6.019
	c-4.4,0-8.705,1.403-12.46,4.058c-3.811,2.687-8.49,4.106-13.528,4.106h-18.909c-4.512,0-8.163-3.655-8.163-8.163
	s3.651-8.163,8.163-8.163h18.909c1.626,0,3.093-0.399,4.113-1.116c14.437-10.212,34.566-8.865,47.8,3.261
	c3.324,3.045,3.547,8.211,0.502,11.535C441.145,500.004,438.945,500.897,436.737,500.897z"/>
<g>
	<path style="fill:#FF646F;" d="M39.557,301.191l-11.448-34.345c-1.158-3.475-6.073-3.475-7.231,0L9.429,301.191
		c-0.797,2.39-0.445,5.014,0.952,7.11l3.207,4.81c1.788,2.682,2.742,5.833,2.742,9.056v48.118c0,4.508,3.655,8.163,8.163,8.163l0,0
		c4.508,0,8.163-3.655,8.163-8.163v-48.118c0-3.223,0.954-6.374,2.742-9.056l3.207-4.81
		C40.002,306.205,40.354,303.581,39.557,301.191z"/>
	<path style="fill:#FF646F;" d="M416.321,304.979c-1.842,0-3.691-0.622-5.222-1.893l-86.208-71.843
		c-9.327-7.773-14.684-19.204-14.684-31.354v-27.822c0-24.426-15.529-46.153-38.648-54.066L5.528,26.99
		c-4.273-1.459-6.545-6.103-5.086-10.367c1.467-4.261,6.13-6.537,10.363-5.082l266.039,91.011
		c29.719,10.172,49.689,38.11,49.689,69.515v27.822c0,7.29,3.213,14.146,8.809,18.81l86.216,71.847
		c3.46,2.886,3.93,8.032,1.044,11.496C420.984,303.978,418.664,304.979,416.321,304.979z"/>
	<circle style="fill:#FF646F;" cx="457.14" cy="109.059" r="8.163"/>
</g>
<g>
	<path style="fill:#FFB464;" d="M497.961,174.367h-64.134c-10.563,0-20.902-2.922-29.903-8.45c-3.842-2.36-5.046-7.386-2.679-11.228
		c2.352-3.846,7.382-5.038,11.224-2.683c6.425,3.946,13.807,6.035,21.357,6.035h64.134c4.512,0,8.163,3.655,8.163,8.163
		S502.473,174.367,497.961,174.367z"/>
	<path style="fill:#FFB464;" d="M426.367,107.346l-72.67-19.819l20.56,29.697l48.684,6.805c5.133,0.717,9.714-3.268,9.714-8.451l0,0
		C432.655,111.731,430.08,108.359,426.367,107.346z"/>
</g>
<g>
</g>
<g>
</g>
<g>
</g>
<g>
</g>
<g>
</g>
<g>
</g>
<g>
</g>
<g>
</g>
<g>
</g>
<g>
</g>
<g>
</g>
<g>
</g>
<g>
</g>
<g>
</g>
<g>
</g>
</svg>
