<?xml version="1.0" encoding="iso-8859-1"?>
<!-- Generator: Adobe Illustrator 19.0.0, SVG Export Plug-In . SVG Version: 6.00 Build 0)  -->
<svg version="1.1" id="Capa_1" xmlns="http://www.w3.org/2000/svg" xmlns:xlink="http://www.w3.org/1999/xlink" x="0px" y="0px"
	 viewBox="0 0 512 512" style="enable-background:new 0 0 512 512;" xml:space="preserve">
<path style="fill:#C8FAA0;" d="M78.197,312.946c0,0,75.871-151.914,79.312-85.849l-7.398,27.355c0,0,62.108-99.269,71.054-47.656
	c0,0,26.151-41.634,125.247,27.011l-16.182-38.008l-41.256-26.057c-18.681-11.799-24.763-36.212-13.801-55.396l46.465-81.313
	C321.638,33.032,105.896,49.204,78.197,312.946z"/>
<path style="fill:#AAEB87;" d="M148.227,272.512c-0.427,0-0.863-0.032-1.298-0.101c-4.508-0.714-7.581-4.94-6.863-9.44
	c1.032-6.581,27.169-161.968,177.879-237.327c3.637-1.819,8.032-0.722,10.395,2.56c2.363,3.282,2,7.802-0.863,10.665l-8.258,8.258
	c-87.645,87.649-96.621,200.077-96.702,201.202c-0.323,4.544-4.185,7.899-8.823,7.649c-4.548-0.327-7.976-4.278-7.645-8.827
	c0.298-4.242,7.379-92.754,70.758-176.423c-100.484,77.016-120.218,193.488-120.436,194.823
	C155.727,269.617,152.218,272.512,148.227,272.512z"/>
<path style="fill:#82C378;" d="M214.283,305.548c-36.486,0-66.065,29.578-66.065,66.065s-29.578,66.065-66.065,66.065
	c-1.996,0-3.961-0.126-5.912-0.299c-29.148-2.961-51.894-27.578-51.894-57.508V231.226H7.831v144.516
	c0,49.455,37.814,90.043,86.1,94.52c2.916,0.296,5.873,0.448,8.867,0.448c47.889,0,86.71-38.822,86.71-86.71
	c0-15.963,12.941-28.903,28.903-28.903h94.968l16.516-49.548L214.283,305.548L214.283,305.548z"/>
<path style="fill:#F5DCB4;" d="M503.315,165.161L503.315,165.161c-4.561,0-8.258-3.697-8.258-8.258v-16.516h16.516v16.516
	C511.573,161.464,507.876,165.161,503.315,165.161z"/>
<g>
	<path style="fill:#82C378;" d="M395.96,222.968h-8.258c-13.682,0-24.774-11.092-24.774-24.774s11.092-24.774,24.774-24.774h41.29
		v-33.032h-37.161c-34.206,0-61.935,27.729-61.935,61.935s27.729,61.935,61.935,61.935c11.402,0,20.645,9.243,20.645,20.645
		c0,11.402-9.243,20.645-20.645,20.645h-61.935c-27.365,0-49.548,22.183-49.548,49.548v65.24c0,9.577,7.763,17.34,17.34,17.34h0.022
		c9.043,0,16.76-6.538,18.246-15.457l11.188-67.124h68.817c36.486,0,66.065-29.578,66.065-66.065S432.447,222.968,395.96,222.968z"
		/>
	<path style="fill:#82C378;" d="M305.13,512c-2.516,0-4.992-1.141-6.613-3.302l-40.29-53.722
		c-7.79-10.383-6.185-25.157,3.637-33.629l19.355-16.685c3.452-2.98,8.669-2.601,11.653,0.863c2.976,3.452,2.589,8.669-0.863,11.645
		l-19.355,16.685c-3.282,2.827-3.815,7.75-1.218,11.21l40.29,53.722c2.742,3.649,2,8.827-1.653,11.56
		C308.589,511.464,306.856,512,305.13,512z"/>
</g>
<path style="fill:#5AB478;" d="M371.178,512c-1.492,0-3.008-0.403-4.363-1.254c-13.387-8.359-33.919-9.161-48.379-1.923
	c-4.226,2.109-8.96,3.177-14.081,3.177h-24.008c-4.565,0-8.258-3.698-8.258-8.258s3.694-8.258,8.258-8.258h24.008
	c2.54,0,4.79-0.484,6.702-1.435c8.911-4.46,19.242-6.823,29.847-6.823c12.71,0,24.694,3.29,34.653,9.512
	c3.871,2.415,5.048,7.508,2.637,11.379C376.622,510.625,373.936,512,371.178,512z"/>
<path style="fill:#AAEB87;" d="M440.081,115.613h-68.895c-4.565,0-8.258-3.698-8.258-8.258c0-4.56,3.694-8.258,8.258-8.258h68.895
	c4.565,0,8.258,3.698,8.258,8.258S444.646,115.613,440.081,115.613z"/>
<path style="fill:#82C378;" d="M495.057,115.613h-16.516l-6.841-6.841c-6.195-6.195-14.597-9.675-23.357-9.675h-27.608
	c-9.122,0-16.516,7.395-16.516,16.516v24.774c0,22.804,18.486,41.29,41.29,41.29l0,0v-16.516c0-9.122,7.395-16.516,16.516-16.516
	h41.29c4.561,0,8.258-3.697,8.258-8.258v-8.258C511.573,123.007,504.179,115.613,495.057,115.613z"/>
<circle style="fill:#5D5360;" cx="453.77" cy="123.87" r="8.258"/>
<g>
	<path style="fill:#5AB478;" d="M31.328,202.62l-10.989-32.967c-1.361-4.084-7.139-4.084-8.5,0L0.851,202.62
		c-0.806,2.418-0.45,5.072,0.963,7.192l3.244,4.866c1.809,2.713,2.774,5.901,2.774,9.161v48.677c0,4.561,3.697,8.258,8.258,8.258
		l0,0c4.561,0,8.258-3.697,8.258-8.258v-48.677c0-3.261,0.965-6.448,2.774-9.161l3.244-4.866
		C31.779,207.692,32.134,205.038,31.328,202.62z"/>
	<path style="fill:#5AB478;" d="M495.057,173.419h-41.29c-22.766,0-41.29-18.524-41.29-41.29c0-4.56-3.694-8.258-8.258-8.258
		s-8.258,3.698-8.258,8.258c0,2.811,0.27,5.553,0.66,8.258h-2.752c-32.065,0-60.378,23.513-63.638,55.411
		c-3.758,36.766,24.673,67.839,60.525,68.45c9.92,0.169,19.128,6.352,21.223,16.05c2.897,13.409-7.242,25.25-20.147,25.25h-61.935
		c-17.262,0-32.435,8.838-41.291,22.23c-0.746,1.129-4.119,7.721-4.304,8.162c-0.364,0.861-0.657,1.757-0.976,2.64h-64.912
		c-25.084,0-45.419,20.335-45.419,45.419v12.387c0,40.35-32.173,73.114-72.257,74.218c0.693,0.017,1.367,0.104,2.064,0.104
		c47.889,0,86.71-38.822,86.71-86.71c0-15.963,12.941-28.903,28.903-28.903h61.935v65.24c0,9.577,7.764,17.34,17.34,17.34h0.022
		c9.043,0,16.76-6.538,18.246-15.457l11.188-67.124l0.577-6.919c0.268-3.218-0.977-6.821-2.757-10.194
		c-3.692-6.996,0.798-15.566,8.701-15.905c0.218-0.01,0.424-0.014,0.619-0.014h55.894c19.397,0,36.751-14.144,38.635-33.449
		c2.16-22.151-15.264-40.873-36.98-40.873c-26.541,0-47.838-22.884-45.198-49.957c2.301-23.596,23.513-40.882,47.22-40.882h7.764
		c9.302,19.495,29.15,33.032,52.149,33.032h41.29c4.565,0,8.258-3.698,8.258-8.258S499.622,173.419,495.057,173.419z"/>
	<path style="fill:#5AB478;" d="M371.186,0H351.63c-11.25,0-21.621,5.641-27.734,15.085l-6.742,10.42
		C284.724,29.741,73.39,69.08,65.638,371.403c-0.113,4.556,3.484,8.347,8.048,8.464c0.073,0.004,0.145,0.004,0.218,0.004
		c4.46,0,8.129-3.56,8.25-8.048C88.91,108.117,250.806,54.571,305.179,44.013l-36.767,56.826
		c-8.629,13.339-11.371,29.202-7.726,44.661c3.645,15.46,13.177,28.423,26.855,36.504l46.411,27.427
		c1.323,0.778,2.766,1.149,4.194,1.149c2.823,0,5.573-1.448,7.121-4.056c2.315-3.927,1.016-8.992-2.911-11.31l-46.411-27.427
		c-9.766-5.77-16.581-15.032-19.185-26.073c-2.605-11.044-0.645-22.375,5.524-31.903l55.484-85.75
		c3.056-4.726,8.234-7.544,13.863-7.544h19.556c4.565,0,8.258-3.698,8.258-8.258S375.751,0,371.186,0z"/>
</g>
<g>
</g>
<g>
</g>
<g>
</g>
<g>
</g>
<g>
</g>
<g>
</g>
<g>
</g>
<g>
</g>
<g>
</g>
<g>
</g>
<g>
</g>
<g>
</g>
<g>
</g>
<g>
</g>
<g>
</g>
</svg>
