<?xml version="1.0" encoding="iso-8859-1"?>
<!-- Generator: Adobe Illustrator 19.0.0, SVG Export Plug-In . SVG Version: 6.00 Build 0)  -->
<svg version="1.1" id="Capa_1" xmlns="http://www.w3.org/2000/svg" xmlns:xlink="http://www.w3.org/1999/xlink" x="0px" y="0px"
	 viewBox="0 0 512 512" style="enable-background:new 0 0 512 512;" xml:space="preserve">
<path style="fill:#DBD9DC;" d="M432,96L432,96c-4.418,0-8-3.582-8-8V72h16v16C440,92.418,436.418,96,432,96z"/>
<path style="fill:#9C969E;" d="M288,56c-17.648,0-32-14.355-32-32c0-4.418,3.578-8,8-8s8,3.582,8,8c0,8.824,7.18,16,16,16
	c4.422,0,8,3.582,8,8S292.422,56,288,56z"/>
<path style="fill:#867E88;" d="M421.655,274.344l-16.969-16.969c-5.953-5.957-14.195-9.375-22.625-9.375h-81.79
	c-8.43,0-16.672,3.418-22.625,9.375l-16.969,16.969c-3.125,3.125-3.125,8.188,0,11.312c1.562,1.562,3.609,2.344,5.656,2.344
	s4.094-0.781,5.656-2.344l16.969-16.969c2.977-2.98,7.102-4.688,11.312-4.688h81.79c4.211,0,8.336,1.707,11.312,4.688l16.969,16.969
	c1.562,1.562,3.609,2.344,5.656,2.344s4.094-0.781,5.656-2.344C424.78,282.531,424.78,277.469,421.655,274.344z"/>
<g>
	<path style="fill:#5D5360;" d="M226.335,288c-2.164,0-4.32-0.875-5.898-2.594c-2.984-3.258-2.766-8.32,0.492-11.305
		c13.406-12.289,34.141-13.117,48.32-2.102h13.086c4.422,0,8,3.582,8,8s-3.578,8-8,8h-16c-2,0-3.93-0.75-5.406-2.102
		c-2.938-2.691-7.852-5.898-14.594-5.898c-6.742,0-11.656,3.207-14.594,5.898C230.202,287.304,228.264,288,226.335,288z"/>
	<path style="fill:#5D5360;" d="M455.999,288c2.164,0,4.32-0.875,5.898-2.594c2.984-3.258,2.766-8.32-0.492-11.305
		c-13.406-12.289-34.141-13.117-48.32-2.102h-13.086c-4.422,0-8,3.582-8,8s3.578,8,8,8h16c2,0,3.93-0.75,5.406-2.102
		c2.938-2.691,7.852-5.898,14.594-5.898s11.656,3.207,14.594,5.898C452.132,287.304,454.07,288,455.999,288z"/>
	<path style="fill:#5D5360;" d="M239.769,152c2.164,0,4.32-0.875,5.898-2.594c2.984-3.258,2.766-8.32-0.492-11.305
		c-13.406-12.289-34.141-13.117-48.32-2.102h-13.086c-4.422,0-8,3.582-8,8s3.578,8,8,8h16c2,0,3.93-0.75,5.406-2.102
		c2.938-2.691,7.852-5.898,14.594-5.898c6.742,0,11.656,3.207,14.594,5.898C235.902,151.305,237.84,152,239.769,152z"/>
</g>
<path style="fill:#867E88;" d="M96,152c-2.047,0-4.094-0.781-5.656-2.344c-3.125-3.125-3.125-8.187,0-11.312l16.969-16.969
	c5.953-5.957,14.195-9.375,22.625-9.375h11.898c4.422,0,8,3.582,8,8s-3.578,8-8,8h-11.898c-4.211,0-8.336,1.707-11.312,4.687
	l-16.969,16.969C100.094,151.219,98.047,152,96,152z"/>
<path style="fill:#5D5360;" d="M56,152c-2.164,0-4.32-0.875-5.898-2.594c-2.984-3.258-2.766-8.32,0.492-11.305
	C64,125.812,84.735,124.984,98.914,136H112c4.422,0,8,3.582,8,8s-3.578,8-8,8H96c-2,0-3.93-0.75-5.406-2.102
	C87.657,147.207,82.742,144,76,144s-11.656,3.207-14.594,5.898C59.868,151.305,57.931,152,56,152z"/>
<path style="fill:#9C969E;" d="M284,168h-52c-17.673,0-32-14.327-32-32s14.327-32,32-32h104V48h-108c-46.392,0-84,37.608-84,84
	s37.608,84,84,84h52c26.51,0,48,21.49,48,48s-21.49,48-48,48c-61.856,0-112,50.144-112,112v80h8c13.255,0,24-10.745,24-24v-48
	c0-44.183,35.817-80,80-80h4c50.81,0,92-41.19,92-92C376,209.189,334.81,168,284,168z"/>
<g>
	<path style="fill:#867E88;" d="M200.993,143.553l-52.006,16.732c1.833,5.118,4.138,9.996,6.88,14.599l52.881-17.013
		C205.021,153.909,202.322,149.012,200.993,143.553z"/>
	<path style="fill:#867E88;" d="M215.764,108.567c4.539-2.693,9.753-4.328,15.377-4.48l-18.655-54.596
		c-5.327,0.996-10.464,2.502-15.386,4.453L215.764,108.567z"/>
	<path style="fill:#867E88;" d="M152.421,95.529c-2.309,4.774-4.169,9.79-5.549,15.015l53.98,18.36
		c1.24-5.458,3.902-10.336,7.538-14.338L152.421,95.529z"/>
	<rect x="168.001" y="432" style="fill:#867E88;" width="32" height="16"/>
	<rect x="256" y="168" style="fill:#867E88;" width="16" height="48"/>
	<path style="fill:#867E88;" d="M175.937,382.769l30.512,17.757c2.119-4.946,4.738-9.619,7.766-13.992l-31.301-18.216
		C180.256,372.942,177.923,377.76,175.937,382.769z"/>
	<rect x="264" y="48" style="fill:#867E88;" width="16" height="56"/>
	<path style="fill:#867E88;" d="M232.801,168h-0.8c-5.399,0-10.407-1.463-14.869-3.824l-17.707,46.731
		c5.001,1.812,10.214,3.152,15.606,3.99L232.801,168z"/>
	<path style="fill:#867E88;" d="M302.333,350.162l-6.799-40.782c-4.878,1.671-10.09,2.62-15.534,2.62
		c-0.083,0-0.164,0.013-0.248,0.013l6.646,39.866C291.835,351.738,297.172,351.206,302.333,350.162z"/>
	<path style="fill:#867E88;" d="M324.136,245.125c2.069,4.831,3.322,10.079,3.697,15.571l47.451-11.68
		c-0.641-5.381-1.714-10.628-3.243-15.683L324.136,245.125z"/>
	<path style="fill:#867E88;" d="M361.121,310.067l-37.206-26.733c-2.185,4.955-5.194,9.45-8.836,13.356l36.148,25.973
		C354.87,318.756,358.197,314.563,361.121,310.067z"/>
	<path style="fill:#867E88;" d="M322.9,176.718l-24.999,42.767c5.027,2.024,9.617,4.877,13.633,8.385l25.233-43.165
		C332.411,181.646,327.766,178.995,322.9,176.718z"/>
	<path style="fill:#867E88;" d="M230.374,323.706c-4.803,2.382-9.446,5.025-13.829,8.046l19.472,33.457
		c4.44-2.93,9.194-5.408,14.194-7.417L230.374,323.706z"/>
</g>
<path style="fill:#5D5360;" d="M168.001,512c-4.422,0-8-3.582-8-8v-80c0-66.168,53.828-120,120-120c22.055,0,40-17.945,40-40
	s-17.945-40-40-40h-52c-50.727,0-92-41.27-92-92s41.273-92,92-92h108c4.422,0,8,3.582,8,8s-3.578,8-8,8h-108
	c-41.906,0-76,34.094-76,76s34.094,76,76,76h52c30.875,0,56,25.121,56,56s-25.125,56-56,56c-57.344,0-104,46.652-104,104v80
	C176.001,508.418,172.423,512,168.001,512z"/>
<path style="fill:#867E88;" d="M424,48h-17.373c-4.243,0-8.313-1.686-11.314-4.686l-9.941-9.941
	C379.371,27.371,371.232,24,362.745,24H296l16,24v32c0,17.673,14.327,32,32,32h24V96c0-8.837,7.163-16,16-16h48c4.418,0,8-3.582,8-8
	v-8C440,55.163,432.837,48,424,48z"/>
<path style="fill:#5D5360;" d="M424,120h-71.43c-12.812,0-24.867-4.992-33.945-14.055l-20.281-20.289
	c-3.125-3.125-3.125-8.191,0-11.312c3.125-3.125,8.187-3.125,11.312,0l20.281,20.285c6.047,6.043,14.086,9.371,22.633,9.371H424
	c4.422,0,8,3.582,8,8S428.422,120,424,120z"/>
<g>
	<path style="fill:#4B3F4E;" d="M199.691,61.526c4.909-1.979,10.072-3.428,15.422-4.348l-5.25-15.364
		c-5.302,1.065-10.409,2.648-15.342,4.585L199.691,61.526z"/>
	<path style="fill:#4B3F4E;" d="M217.928,207.253c-5.426-0.724-10.66-2.025-15.665-3.835l-5.663,14.945
		c4.998,1.824,10.18,3.234,15.538,4.171L217.928,207.253z"/>
	<path style="fill:#4B3F4E;" d="M156.617,157.83l-15.226,4.898c1.818,5.106,4.037,10.014,6.687,14.662l15.64-5.032
		C160.855,167.814,158.477,162.952,156.617,157.83z"/>
	<rect x="256" y="208" style="fill:#4B3F4E;" width="16" height="16"/>
	<path style="fill:#4B3F4E;" d="M168.946,378.7l14.028,8.165c1.934-5.035,4.221-9.882,6.881-14.507l-13.812-8.039
		C173.38,368.94,170.984,373.721,168.946,378.7z"/>
	<path style="fill:#4B3F4E;" d="M144.824,92.945c-2.263,4.8-4.116,9.813-5.529,15.021l15.174,5.161
		c1.347-5.24,3.222-10.257,5.596-14.999L144.824,92.945z"/>
	<rect x="160.001" y="432" style="fill:#4B3F4E;" width="16" height="16"/>
	<path style="fill:#4B3F4E;" d="M330.491,288.058l-13.31-9.564c-1.984,5.07-4.916,9.657-8.666,13.479l13.074,9.394
		C325.16,297.398,328.162,292.926,330.491,288.058z"/>
	<path style="fill:#4B3F4E;" d="M316.12,247.099c2.239,4.762,3.557,10.003,3.745,15.56l15.87-3.907
		c-0.51-5.45-1.82-10.663-3.784-15.55L316.12,247.099z"/>
	<path style="fill:#4B3F4E;" d="M301.981,212.506l-8.231,14.081c5.112,1.886,9.733,4.73,13.624,8.402l8.269-14.146
		C311.539,217.448,306.941,214.632,301.981,212.506z"/>
	<path style="fill:#4B3F4E;" d="M296.869,317.391l-2.686-16.113C289.76,302.968,285.01,304,280,304c-0.53,0-1.042,0.073-1.57,0.08
		l2.645,15.866C286.565,319.841,291.871,318.974,296.869,317.391z"/>
	<path style="fill:#4B3F4E;" d="M212.525,324.842l8.09,13.9c4.364-3.049,8.993-5.718,13.809-8.08l-8.062-13.853
		C221.574,319.215,216.921,321.842,212.525,324.842z"/>
	<rect x="264" y="40" style="fill:#4B3F4E;" width="16" height="16"/>
</g>
<path style="fill:#B7B2B8;" d="M336,64c-26.469,0-48-21.531-48-48V8c0-4.418,3.578-8,8-8s8,3.582,8,8v8c0,17.645,14.352,32,32,32
	c4.422,0,8,3.582,8,8S340.422,64,336,64z"/>
<circle style="fill:#FF8087;" cx="368" cy="56" r="8"/>
<g>
</g>
<g>
</g>
<g>
</g>
<g>
</g>
<g>
</g>
<g>
</g>
<g>
</g>
<g>
</g>
<g>
</g>
<g>
</g>
<g>
</g>
<g>
</g>
<g>
</g>
<g>
</g>
<g>
</g>
</svg>
