<?xml version="1.0" encoding="iso-8859-1"?>
<!-- Generator: Adobe Illustrator 19.0.0, SVG Export Plug-In . SVG Version: 6.00 Build 0)  -->
<svg version="1.1" id="Capa_1" xmlns="http://www.w3.org/2000/svg" xmlns:xlink="http://www.w3.org/1999/xlink" x="0px" y="0px"
	 viewBox="0 0 512.001 512.001" style="enable-background:new 0 0 512.001 512.001;" xml:space="preserve">
<path style="fill:#AFD755;" d="M211.304,296.635c-35.907,0-65.015,29.108-65.015,65.015v12.19c0,20.198-16.373,36.571-36.571,36.571
	s-36.571-16.373-36.571-36.571v-93.46c0-20.775,0-48.762-29.547-81.678l-21.595-21.591c-3.175-3.175-8.317-3.175-11.492,0
	s-3.175,8.321,0,11.492l21.595,21.591c10.738,10.746,16.659,25.032,16.659,40.226v0.001v0.001v127.481
	c0,35.907,29.108,65.015,65.015,65.015s65.015-29.108,65.015-65.015v-8.127c0-17.954,14.554-32.508,32.508-32.508h48.762v-40.635
	h-48.763V296.635z"/>
<path style="fill:#8CB4EB;" d="M430.731,166.604h-8.127c-13.444,0-24.381-10.936-24.381-24.381
	c0-13.444,10.936-24.381,24.381-24.381h8.127c4.492,0,8.127,3.639,8.127,8.127c0,4.488-3.635,8.127-8.127,8.127h-8.127
	c-4.484,0-8.127,3.647-8.127,8.127s3.643,8.127,8.127,8.127h8.127c4.492,0,8.127,3.639,8.127,8.127S435.223,166.604,430.731,166.604
	z"/>
<path style="fill:#FAEBC8;" d="M503.873,215.366L503.873,215.366c-4.488,0-8.127-3.639-8.127-8.127v-16.254H512v16.254
	C512,211.727,508.361,215.366,503.873,215.366z"/>
<path style="fill:#BEE86E;" d="M495.746,166.604h-16.254l-6.733-6.733c-6.096-6.097-14.365-9.521-22.986-9.521H430.73
	c-26.93,0-48.762,21.831-48.762,48.762v73.142c0,13.465-10.916,24.381-24.381,24.381H254.673c-20.222,0-37.367,14.869-40.226,34.888
	l-11.27,78.889l26.381-15.829c9.352-5.611,17.142-13.485,22.654-22.897l8.108-13.846l65.255,29.313
	c10.391,4.618,21.636,7.004,33.007,7.004h37.023c12.275,0,24.243-3.835,34.231-10.97c24.38-17.415,33.703-49.234,22.576-77.051
	L431.52,253.91c-4.27-10.677,3.592-22.29,15.091-22.29h0.374v-16.254c0-8.977,7.277-16.254,16.254-16.254h40.635
	c4.489,0,8.127-3.639,8.127-8.127v-8.127C512,173.881,504.723,166.604,495.746,166.604z"/>
<path style="fill:#AFD755;" d="M495.746,239.747h-56.889c-17.928,0-32.508-14.583-32.508-32.508c0-4.488,3.635-8.127,8.127-8.127
	s8.127,3.639,8.127,8.127c0,8.964,7.294,16.254,16.254,16.254h56.889c4.492,0,8.127,3.639,8.127,8.127
	S500.238,239.747,495.746,239.747z"/>
<circle style="fill:#739BD7;" cx="455.11" cy="174.73" r="8.127"/>
<path style="fill:#A5CDFF;" d="M325.081,256.001l-8.127-32.508L89.4,117.843l55.183,72.906c11.8,17.175,27.555,31.263,45.937,41.077
	l141.331,75.451c15.848,8.461,35.064,7.522,50.012-2.444l0.106-0.07L325.081,256.001z"/>
<path style="fill:#8CB4EB;" d="M246.776,134.469L8.13,52.827l34.76,52.14c9.119,13.679,22.173,24.271,37.437,30.377l236.496,94.021
	C315.466,186.355,287.708,148.473,246.776,134.469z"/>
<g>
	<path style="fill:#AFD755;" d="M394.969,321.02c-1.833,0-3.675-0.619-5.198-1.885l-66.325-55.273
		c-9.286-7.738-14.619-19.119-14.619-31.214c0-40.885-25.992-77.25-64.682-90.488L5.503,60.518
		c-4.254-1.452-6.516-6.075-5.063-10.321c1.46-4.246,6.111-6.508,10.317-5.059l238.649,81.642
		c45.262,15.488,75.674,58.035,75.674,105.868c0,7.258,3.198,14.083,8.77,18.726l66.333,55.277c3.444,2.873,3.913,7.996,1.04,11.444
		C399.612,320.024,397.302,321.02,394.969,321.02z"/>
	<path style="fill:#AFD755;" d="M397.422,345.962c-9.414,2.184-15.524,11.41-15.452,21.08c0.045,6.034-4.998,10.863-11.032,10.863
		h-12.357c-9.155,0-18.039-1.885-26.347-5.577l-52.68-23.665c-7.733-3.474-14.324-8.818-20.538-14.585
		c-1.673-1.552-3.597-2.889-5.765-3.94c-17.839-8.649-38.935,2.562-41.749,22.186l-5.739,39.614
		c-0.671,4.632-2.771,8.82-5.163,12.842c-3.089,5.194-3.456,11.741-0.633,17.387l20.321,40.642c1.429,2.849,4.294,4.492,7.278,4.492
		c1.222,0,2.46-0.274,3.627-0.857c4.016-2.008,5.643-6.889,3.635-10.905l-17.65-35.3c-1.899-3.799-0.554-8.419,3.088-10.604
		l13.506-8.103c10.65-6.389,19.249-15.694,24.779-26.815l3.704-7.448c1.943-3.908,6.626-5.583,10.607-3.795l52.713,23.679
		c10.391,4.618,21.636,7.004,33.007,7.004h28.325c2.191,0,4.282,0.881,5.809,2.451c2.63,2.704,6.494,6.661,6.494,6.661
		c4.572,4.572,7.141,10.773,7.141,17.238v38.664h16.254v-93.46C422.604,352.907,410.755,342.868,397.422,345.962z"/>
</g>
<g>
	<path style="fill:#BEE86E;" d="M459.175,467.301c-1.96,0-3.929-0.706-5.492-2.135c-2.984-2.734-7.976-5.992-14.825-5.992
		c-4.381,0-8.667,1.397-12.405,4.04c-3.794,2.675-8.452,4.087-13.468,4.087H394.16c-4.492,0-8.127-3.639-8.127-8.127
		s3.635-8.127,8.127-8.127h18.825c1.619,0,3.079-0.397,4.095-1.111c14.373-10.163,34.42-8.825,47.587,3.246
		c3.31,3.032,3.532,8.175,0.5,11.484C463.564,466.412,461.373,467.301,459.175,467.301z"/>
	<path style="fill:#BEE86E;" d="M272.382,467.301c-1.96,0-3.929-0.706-5.492-2.135c-2.984-2.734-7.976-5.992-14.825-5.992
		c-4.381,0-8.667,1.397-12.405,4.04c-3.794,2.675-8.452,4.087-13.468,4.087h-18.825c-4.492,0-8.127-3.639-8.127-8.127
		s3.635-8.127,8.127-8.127h18.825c1.619,0,3.079-0.397,4.095-1.111c14.373-10.163,34.42-8.825,47.587,3.246
		c3.31,3.032,3.532,8.175,0.5,11.484C276.771,466.412,274.581,467.301,272.382,467.301z"/>
</g>
<g>
</g>
<g>
</g>
<g>
</g>
<g>
</g>
<g>
</g>
<g>
</g>
<g>
</g>
<g>
</g>
<g>
</g>
<g>
</g>
<g>
</g>
<g>
</g>
<g>
</g>
<g>
</g>
<g>
</g>
</svg>
