<?xml version="1.0" encoding="iso-8859-1"?>
<!-- Generator: Adobe Illustrator 19.0.0, SVG Export Plug-In . SVG Version: 6.00 Build 0)  -->
<svg version="1.1" id="Capa_1" xmlns="http://www.w3.org/2000/svg" xmlns:xlink="http://www.w3.org/1999/xlink" x="0px" y="0px"
	 viewBox="0 0 512 512" style="enable-background:new 0 0 512 512;" xml:space="preserve">
<path style="fill:#F7D291;" d="M86.71,264.259c-26.557,0-47.79-22.792-45.206-49.882c2.253-23.615,23.436-40.957,47.158-40.957
	h8.011c31.653,0,59.255-24.391,60.204-56.029c0.982-32.737-25.264-59.584-57.78-59.584h-41.29c-4.561,0-8.258,3.697-8.258,8.258
	c0,4.56,3.697,8.258,8.258,8.258h41.29c18.243,0,33.032,14.789,33.032,33.032s-14.789,33.032-33.032,33.032H85.409
	c-43.984,0-82.389,33.191-85.231,77.083c-3.114,48.097,34.975,88.078,82.402,88.078h72.906v-41.29H86.71V264.259z"/>
<path style="fill:#F0C382;" d="M153.859,289.033H82.581c-18.459,0-35.581-7.421-48.212-20.897
	c-12.619-13.462-18.908-31.077-17.709-49.598c2.237-34.561,32.435-61.634,68.749-61.634h13.688
	c27.321,0,49.548-22.227,49.548-49.548c0-25.599-19.515-46.725-44.449-49.286c-1.683-0.148-3.378-0.262-5.099-0.262h-41.29
	c-4.561,0-8.258,3.697-8.258,8.258c0,4.56,3.697,8.258,8.258,8.258h41.29c18.243,0,33.032,14.789,33.032,33.032
	s-14.789,33.032-33.032,33.032H85.409c-43.984,0-82.389,33.191-85.231,77.083c-3.114,48.097,34.975,88.078,82.402,88.078h72.906
	v-16.84L153.859,289.033z"/>
<path style="fill:#FFEDB1;" d="M503.742,272.517L503.742,272.517c-4.561,0-8.258-3.697-8.258-8.258v-16.516H512v16.516
	C512,268.82,508.303,272.517,503.742,272.517z"/>
<path style="fill:#BEE86E;" d="M495.484,222.969H470.71l-15.098-15.098c-6.195-6.195-14.597-9.676-23.359-9.676h-14.751
	c-14.879,0-29.414,4.465-41.727,12.818l-75.191,53.314l-151.169-0.067c-30.391,0-57.72,18.503-69.007,46.72l-30.86,77.151h42.818
	c9.525,0,18.587-4.112,24.86-11.281l27.534-31.467l144.273,26.231l115.613-82.581h33.032v-16.516
	c0-9.122,7.395-16.516,16.516-16.516h49.548c4.561,0,8.258-3.697,8.258-8.258v-8.258C512,230.363,504.605,222.969,495.484,222.969z"
	/>
<path style="fill:#CD916E;" d="M117.225,376.85l27.534-31.467l144.273,26.231L318.9,350.28c19.523-13.945,9.658-44.73-14.335-44.73
	H256v-41.243l-106.584-0.047c-30.391,0-57.72,18.503-69.007,46.72l-30.86,77.151h42.818
	C101.891,388.13,110.952,384.018,117.225,376.85z"/>
<path style="fill:#AFD755;" d="M495.484,297.291H421.75c-13.226,0-25.669-5.153-35.04-14.508l-12.677-12.685
	c-3.226-3.226-3.226-8.456,0-11.677c3.226-3.226,8.452-3.226,11.677,0l12.677,12.681c6.242,6.238,14.54,9.673,23.363,9.673h73.734
	c4.565,0,8.258,3.698,8.258,8.258S500.048,297.291,495.484,297.291z"/>
<path style="fill:#B67F5F;" d="M393.982,443.531l-12.694-12.694c-6.196-6.195-14.597-9.675-23.358-9.675h-19.35
	c-13.682,0-24.774-11.092-24.774-24.774V346.84c0-4.561-3.697-8.258-8.258-8.258h-16.516c-4.561,0-8.258,3.697-8.258,8.258v6.486
	l-113.872-20.705l4.477-5.116c3-3.435,2.653-8.649-0.782-11.653c-3.427-3.004-8.645-2.661-11.653,0.774l-47.94,54.787
	c-4.704,5.376-11.498,8.459-18.641,8.459H49.548c-13.682,0-24.774,11.092-24.774,24.774v33.032c0,9.121,7.395,16.516,16.516,16.516
	h33.032c3.403,0,5.345-3.885,3.303-6.606l-14.865-19.82c-3.119-4.159-8.014-6.606-13.213-6.606c-4.561,0-8.258-3.698-8.258-8.258
	v-8.258c0-4.561,3.697-8.258,8.258-8.258h42.815c11.91,0,23.241-5.142,31.084-14.105l30.782-35.179l126.545,23.008v10.12
	c0,10.193,4.706,19.816,12.753,26.074l52.624,40.93c5.798,4.51,12.934,6.958,20.28,6.958h23.134
	C395.13,454.195,397.917,447.466,393.982,443.531z"/>
<circle style="fill:#AFD755;" cx="379.87" cy="222.971" r="16.516"/>
<path style="fill:#96C855;" d="M280.774,239.485H121.037c-8.761,0-17.163-3.48-23.357-9.675l-23.357-23.357h149.475
	c15.331,0,30.035,6.09,40.875,16.931L280.774,239.485z"/>
<path style="fill:#AFD755;" d="M132.129,239.485l23.357,23.357c6.195,6.195,14.597,9.675,23.357,9.675h126.705l-33.032-33.032
	H132.129z"/>
<path style="fill:#BEE86E;" d="M198.193,272.517l23.357,23.357c6.195,6.195,14.597,9.675,23.357,9.675h53.799
	c14.714,0,22.083-17.79,11.679-28.195l-4.837-4.837L198.193,272.517L198.193,272.517z"/>
<path style="fill:#F7D291;" d="M313.806,289.033c-2.274,0-4.54-0.935-6.169-2.77l-48.815-54.919
	c-9.403-10.573-22.903-16.633-37.04-16.633H74.322c-4.565,0-8.258-3.698-8.258-8.258s3.694-8.258,8.258-8.258h147.46
	c18.855,0,36.847,8.081,49.379,22.173l48.815,54.919c3.032,3.411,2.726,8.629-0.685,11.661
	C317.718,288.348,315.758,289.033,313.806,289.033z"/>
<circle style="fill:#FF646F;" cx="437.68" cy="231.231" r="8.258"/>
<g>
</g>
<g>
</g>
<g>
</g>
<g>
</g>
<g>
</g>
<g>
</g>
<g>
</g>
<g>
</g>
<g>
</g>
<g>
</g>
<g>
</g>
<g>
</g>
<g>
</g>
<g>
</g>
<g>
</g>
</svg>
