<?xml version="1.0" encoding="iso-8859-1"?>
<!-- Generator: Adobe Illustrator 19.0.0, SVG Export Plug-In . SVG Version: 6.00 Build 0)  -->
<svg version="1.1" id="Capa_1" xmlns="http://www.w3.org/2000/svg" xmlns:xlink="http://www.w3.org/1999/xlink" x="0px" y="0px"
	 viewBox="0 0 512 512" style="enable-background:new 0 0 512 512;" xml:space="preserve">
<path style="fill:#AFD755;" d="M287.495,268c-7.124,0-13.88,3.164-18.441,8.637l-35.203,42.242l12.297,10.242l23.63-28.355
	c3.931-4.717,10.215-6.768,16.172-5.279L367.999,316v-48H287.495z"/>
<path style="fill:#BEE86E;" d="M200,332c-2.164,0-4.32-0.875-5.898-2.594c-2.984-3.258-2.766-8.32,0.492-11.305
	c12.953-11.871,32.664-13.211,46.844-3.195c1,0.703,2.438,1.094,4.031,1.094H264c4.422,0,8,3.582,8,8s-3.578,8-8,8h-18.531
	c-4.938,0-9.523-1.391-13.25-4.023C228.531,325.375,224.305,324,220,324c-6.742,0-11.656,3.207-14.594,5.898
	C203.867,331.305,201.93,332,200,332z"/>
<path style="fill:#AFD755;" d="M416.504,268c7.124,0,13.88,3.164,18.44,8.637l35.203,42.242l-12.297,10.242l-23.63-28.354
	c-3.931-4.717-10.215-6.769-16.172-5.279L367.999,308v-40H416.504z"/>
<path style="fill:#BEE86E;" d="M503.999,332c2.164,0,4.32-0.875,5.898-2.594c2.984-3.258,2.766-8.32-0.492-11.305
	c-12.953-11.871-32.664-13.211-46.844-3.195c-1,0.703-2.438,1.094-4.031,1.094h-18.531c-4.422,0-8,3.582-8,8s3.578,8,8,8h18.531
	c4.937,0,9.523-1.391,13.25-4.023c3.687-2.602,7.914-3.977,12.219-3.977c6.742,0,11.656,3.207,14.594,5.898
	C500.131,331.305,502.069,332,503.999,332z"/>
<path style="fill:#AFD755;" d="M216.504,92c7.124,0,13.88,3.164,18.44,8.637l35.203,42.242l-12.297,10.242l-23.63-28.354
	c-3.931-4.717-10.215-6.769-16.172-5.279L167.999,132V92H216.504z"/>
<path style="fill:#BEE86E;" d="M303.999,156c2.164,0,4.32-0.875,5.898-2.594c2.984-3.258,2.766-8.32-0.492-11.305
	c-12.953-11.871-32.664-13.211-46.844-3.195c-1,0.703-2.438,1.094-4.031,1.094h-18.531c-4.422,0-8,3.582-8,8s3.578,8,8,8h18.531
	c4.938,0,9.523-1.391,13.25-4.023c3.688-2.602,7.914-3.977,12.219-3.977c6.742,0,11.656,3.207,14.594,5.898
	C300.132,155.305,302.069,156,303.999,156z"/>
<path style="fill:#AFD755;" d="M95.495,92c-7.124,0-13.88,3.164-18.44,8.637l-35.203,42.242l12.297,10.242l23.63-28.354
	c3.931-4.717,10.215-6.769,16.172-5.279L144,132V92H95.495z"/>
<g>
	<path style="fill:#BEE86E;" d="M8,156c-2.164,0-4.32-0.875-5.898-2.594c-2.984-3.258-2.766-8.32,0.492-11.305
		c12.953-11.871,32.664-13.211,46.844-3.195c1,0.703,2.438,1.094,4.031,1.094H72c4.422,0,8,3.582,8,8s-3.578,8-8,8H53.468
		c-4.937,0-9.523-1.391-13.25-4.023C36.531,149.375,32.304,148,28,148c-6.742,0-11.656,3.207-14.594,5.898
		C11.867,155.305,9.929,156,8,156z"/>
	<path style="fill:#BEE86E;" d="M283.999,180h-60c-22.091,0-40-17.909-40-40s17.909-40,40-40h110.627l1.373-56h-116
		c-50.81,0-92,41.189-92,92c0,50.81,41.19,92,92,92h68c35.346,0,64,28.654,64,64s-28.654,64-64,64c-57.437,0-104,46.562-104,104v40
		c17.673,0,32-14.327,32-32v-8c0-35.346,28.654-64,64-64h4c59.647,0,108-48.353,108-108S343.646,180,283.999,180z"/>
</g>
<g>
	<path style="fill:#AFD755;" d="M333.007,235.676l-5.808,5.809c4.229,3.287,8.026,7.083,11.313,11.312l5.808-5.809
		c3.125-3.125,3.125-8.191,0-11.312C341.195,232.551,336.132,232.551,333.007,235.676z"/>
	<path style="fill:#AFD755;" d="M331.519,338.832l5.324,5.324c1.562,1.562,3.609,2.344,5.656,2.344s4.094-0.781,5.656-2.344
		c3.125-3.125,3.125-8.188,0-11.312l-6.321-6.321C338.921,331.057,335.449,335.178,331.519,338.832z"/>
	<path style="fill:#AFD755;" d="M173.656,190.344c-3.125-3.125-8.187-3.125-11.312,0l-8.975,8.975
		c3.687,3.879,7.714,7.41,12.025,10.6l8.262-8.262C176.781,198.531,176.781,193.469,173.656,190.344z"/>
	<path style="fill:#AFD755;" d="M189.296,440.973c1.422,1.031,3.07,1.527,4.695,1.527c2.477,0,4.914-1.145,6.484-3.301
		c2.594-3.574,1.797-8.578-1.773-11.172l-7.62-5.533c-2.026,5.231-3.724,10.625-4.889,16.226L189.296,440.973z"/>
	<path style="fill:#AFD755;" d="M295.999,364v-8.553c-2.626,0.328-5.285,0.553-8,0.553c-2.701,0-5.351,0.202-8,0.404V364
		c0,4.418,3.578,8,8,8S295.999,368.418,295.999,364z"/>
	<path style="fill:#AFD755;" d="M221.343,389.656c1.562,1.562,3.609,2.344,5.656,2.344s4.094-0.781,5.656-2.344
		c3.125-3.125,3.125-8.188,0-11.312l-3.821-3.821c-4.418,3.064-8.558,6.487-12.442,10.183L221.343,389.656z"/>
	<path style="fill:#AFD755;" d="M208,44.871V65.02c0,4.418,3.578,8,8,8s8-3.582,8-8V44h-4C215.922,44,211.937,44.357,208,44.871z"/>
	<path style="fill:#AFD755;" d="M367.999,292c0-4.418-3.578-8-8-8h-8.553c0.328,2.626,0.553,5.285,0.553,8s-0.225,5.374-0.553,8
		h8.553C364.421,300,367.999,296.418,367.999,292z"/>
	<path style="fill:#AFD755;" d="M152,140c0-4.418-3.578-8-8-8h-15.798c-0.058,1.336-0.202,2.649-0.202,4
		c0,4.077,0.357,8.063,0.871,12H144C148.422,148,152,144.418,152,140z"/>
	<path style="fill:#AFD755;" d="M287.999,220c0-4.418-3.578-8-8-8s-8,3.582-8,8v8h16V220z"/>
	<path style="fill:#AFD755;" d="M158.734,94.047c1.562,1.562,3.609,2.344,5.656,2.344c2.047,0,4.094-0.781,5.656-2.344
		c3.125-3.125,3.125-8.187,0-11.312L156.681,69.37c-3.879,3.687-7.41,7.714-10.6,12.025L158.734,94.047z"/>
	<path style="fill:#AFD755;" d="M224,228v-11.5c0-4.418-3.578-8-8-8s-8,3.582-8,8v10.629c3.937,0.514,7.923,0.871,12,0.871H224z"/>
</g>
<path style="fill:#FFD764;" d="M447.999,92c-4.422,0-8-3.582-8-8V68h16v16C455.999,88.418,452.421,92,447.999,92z"/>
<path style="fill:#BEE86E;" d="M439.999,44h-24l-14.627-14.627C395.371,23.372,387.231,20,378.745,20h-74.746v48l40,40h40V92
	c0-8.837,7.163-16,16-16h48c4.418,0,8-3.582,8-8v-8C455.999,51.164,448.836,44,439.999,44z"/>
<path style="fill:#AFD755;" d="M383.999,60V44h-80v16l40,48h40V92c0-8.837,7.164-16,16-16h48c4.418,0,8-3.582,8-8v-8H383.999z"/>
<path style="fill:#FFB464;" d="M287.999,220h-68c-46.32,0-84-37.684-84-84s37.68-84,84-84h84V36h-84c-55.141,0-100,44.859-100,100
	s44.859,100,100,100h68c30.875,0,56,25.121,56,56s-25.125,56-56,56c-61.758,0-112,50.242-112,112v40c0,4.418,3.578,8,8,8
	s8-3.582,8-8v-40c0-52.934,43.062-96,96-96c39.703,0,72-32.301,72-72S327.703,220,287.999,220z"/>
<path style="fill:#FFD764;" d="M439.999,100h-79.442c-8.485,0-16.622-3.371-22.621-9.371l-14.625-14.628
	c-3.124-3.125-8.189-3.125-11.314-0.001l0,0c-3.124,3.124-3.124,8.188-0.001,11.312l14.61,14.616
	c9.006,9.01,21.223,14.071,33.962,14.071h79.431c4.422,0,8-3.582,8-8C447.999,103.582,444.421,100,439.999,100z"/>
<path style="fill:#FFFFFF;" d="M384.078,60c-4.422,0-8.039-3.582-8.039-8s3.539-8,7.961-8h0.078c4.422,0,8,3.582,8,8
	S388.499,60,384.078,60z"/>
<path style="fill:#FFD764;" d="M326.06,18.06C317.058,9.058,304.848,4,292.117,4h-60.118c-4.418,0-8,3.582-8,8s3.582,8,8,8h22.059
	c6.365,0,12.47,2.529,16.971,7.029l2.911,2.911C282.942,38.943,295.151,44,307.882,44h34.461c3.564,0,5.348-4.309,2.828-6.828
	L326.06,18.06z"/>
<path style="fill:#FFB464;" d="M272,44l20.284,20.284C299.785,71.786,309.959,76,320.568,76h29.775c3.564,0,5.348-4.309,2.828-6.828
	l-13.456-13.456C332.214,48.215,322.04,44,311.431,44H272z"/>
<g>
	<path style="fill:#FF9164;" d="M220,52h4V36h-4c-4.068,0-8.058,0.316-12,0.791v16.167C211.93,52.393,215.915,52,220,52z"/>
	<path style="fill:#FF9164;" d="M162.365,75.054l-11.308-11.308c-3.87,3.694-7.415,7.703-10.655,11.97l11.413,11.413
		C154.948,82.771,158.476,78.733,162.365,75.054z"/>
	<path style="fill:#FF9164;" d="M136,136c0-1.35,0.139-2.665,0.203-4h-16c-0.053,1.337-0.203,2.65-0.203,4
		c0,4.068,0.316,8.058,0.791,12h16.167C136.392,144.07,136,140.085,136,136z"/>
	<path style="fill:#FF9164;" d="M159.053,193.634l-11.308,11.308c3.694,3.87,7.703,7.415,11.97,10.655l11.413-11.413
		C166.771,201.052,162.732,197.524,159.053,193.634z"/>
	<path style="fill:#FF9164;" d="M220,236h4v-16h-4c-4.084,0-8.07-0.393-12-0.958v16.167C211.942,235.684,215.931,236,220,236z"/>
	<rect x="271.999" y="220" style="fill:#FF9164;" width="16" height="16"/>
	<path style="fill:#FF9164;" d="M332.786,258.525l11.413-11.415c-3.343-4.178-7.135-7.969-11.313-11.312l-11.413,11.415
		C325.764,250.429,329.57,254.234,332.786,258.525z"/>
	<path style="fill:#FF9164;" d="M343.999,292c0,2.723-0.261,5.38-0.639,8h16.166c0.292-2.63,0.472-5.293,0.472-8s-0.18-5.37-0.472-8
		H343.36C343.738,286.62,343.999,289.277,343.999,292z"/>
	<path style="fill:#FF9164;" d="M325.843,333.156l11,11c0.111,0.111,0.26,0.146,0.375,0.249c3.882-3.648,7.406-7.671,10.405-12.094
		l-11.622-11.622C333.221,325.324,329.799,329.516,325.843,333.156z"/>
	<path style="fill:#FF9164;" d="M295.999,363.528v-16.167c-2.62,0.377-5.277,0.639-8,0.639c-2.7,0-5.347,0.216-8,0.405V364
		c0,0.142,0.074,0.261,0.081,0.401c2.619-0.215,5.247-0.401,7.919-0.401C290.706,364,293.37,363.821,295.999,363.528z"/>
	<path style="fill:#FF9164;" d="M223.159,368.847c-4.374,3.12-8.511,6.537-12.387,10.238l10.571,10.571
		c0.264,0.264,0.605,0.375,0.895,0.594c3.72-3.509,7.663-6.784,11.904-9.669c-0.381-0.797-0.826-1.577-1.486-2.238L223.159,368.847z
		"/>
	<path style="fill:#FF9164;" d="M197.824,427.389l-13.442-9.762c-2.119,5.162-3.794,10.539-5.129,16.051l10.044,7.294
		c1.331,0.965,2.862,1.419,4.385,1.479C194.645,437.265,196.061,432.25,197.824,427.389z"/>
</g>
<g>
</g>
<g>
</g>
<g>
</g>
<g>
</g>
<g>
</g>
<g>
</g>
<g>
</g>
<g>
</g>
<g>
</g>
<g>
</g>
<g>
</g>
<g>
</g>
<g>
</g>
<g>
</g>
<g>
</g>
</svg>
