<svg height="512" viewBox="0 0 512 512" width="512" xmlns="http://www.w3.org/2000/svg"><circle cx="256" cy="256" fill="#ff421d" r="232"/><path d="m440.749 115.713c-31.642 165.087-164.676 294.144-331.849 319.681a231.035 231.035 0 0 0 147.1 52.606c128.13 0 232-103.87 232-232a230.937 230.937 0 0 0 -47.251-140.287z" fill="#bf3216"/><circle cx="256" cy="256" fill="#fadbb7" r="200"/><path d="m430.3 157.952a400.75 400.75 0 0 1 -278.945 268.492 199.035 199.035 0 0 0 104.645 29.556c110.457 0 200-89.543 200-200a199.014 199.014 0 0 0 -25.7-98.048z" fill="#fbbd75"/><path d="m285.656 146.344-24-24a8 8 0 0 0 -11.312 0l-24 24 11.312 11.312 10.344-10.344v108.688h16v-108.688l10.344 10.344z" fill="#fdb62f"/><path d="m248 80h16v32h-16z" fill="#ff5086"/><path d="m400 248h32v16h-32z" fill="#bf3c65"/><path d="m248 400h16v32h-16z" fill="#bf3c65"/><path d="m40 200h128a154.51 154.51 0 0 1 -45.255 109.255 26.509 26.509 0 0 0 0 37.49 154.51 154.51 0 0 1 45.255 109.255h-128a154.51 154.51 0 0 1 45.255-109.255 26.509 26.509 0 0 0 0-37.49 154.51 154.51 0 0 1 -45.255-109.255z" fill="#ccc"/><rect fill="#0071bc" height="32" rx="16" width="160" x="24" y="168"/><rect fill="#0071bc" height="32" rx="16" width="160" x="24" y="456"/><path d="m118.439 314.9a26.519 26.519 0 0 1 4.306-5.64 154.457 154.457 0 0 0 17.746-21.26h-72.983a154.473 154.473 0 0 0 17.747 21.255 26.518 26.518 0 0 1 4.3 5.633 17.5 17.5 0 0 0 28.884.012z" fill="#6cbbc7"/><path d="m163.999 102.507h16.003v16.003h-16.003z" fill="#ff5086" transform="matrix(.866 -.5 .5 .866 -32.209 100.786)"/><path d="m163.999 393.491h16.003v16.003h-16.003z" fill="#ff5086" transform="matrix(.5 -.866 .866 .5 -261.707 349.743)"/><path d="m331.999 393.491h16.003v16.003h-16.003z" fill="#bf3c65" transform="matrix(.866 -.5 .5 .866 -155.178 223.744)"/><path d="m393.491 331.999h16.003v16.003h-16.003z" fill="#bf3c65" transform="matrix(.5 -.866 .866 .5 -93.686 517.748)"/><path d="m393.491 163.999h16.003v16.003h-16.003z" fill="#ff5086" transform="matrix(.866 -.5 .5 .866 -32.215 223.749)"/><path d="m331.999 102.507h16.003v16.003h-16.003z" fill="#ff5086" transform="matrix(.5 -.866 .866 .5 74.32 349.727)"/><path d="m346.867 301.93-8.789-32.785-15.453 4.14 3.788 14.128-66.413-38.343-8 13.86 66.413 38.342-14.132 3.787 4.141 15.453 32.789-8.785a7.995 7.995 0 0 0 5.656-9.8z" fill="#fdb62f"/><circle cx="256" cy="256" fill="#ff421d" r="16"/><path d="m95.781 456h72.219a154.422 154.422 0 0 0 -24.65-83.533 119.745 119.745 0 0 1 -47.569 83.533z" fill="#b3b3b3"/><path d="m40 456 64-64 64 64z" fill="#6cbbc7"/><path d="m129.4 417.4a120.423 120.423 0 0 1 -33.619 38.6h72.219z" fill="#56959f"/><path d="m168 456h-72.219a119.259 119.259 0 0 1 -69.621 23.891 15.929 15.929 0 0 0 13.84 8.109h128a16 16 0 0 0 0-32z" fill="#005a97"/></svg>